<svg width="540" height="149" viewBox="0 0 540 149" version="1.1" xmlns="http://www.w3.org/2000/svg" xmlns:xlink="http://www.w3.org/1999/xlink">
<title>CTA Clicks</title>
<desc>Created using Figma</desc>
<g id="Canvas" transform="translate(-569 -517)">
<g id="CTA Clicks">
<g id="CTA">
<g id="Rectangle 10">
<use xlink:href="#path0_fill" transform="translate(569 517)" fill="#0E589A"/>
</g>
<g id="Rectangle 11">
<use xlink:href="#path1_fill" transform="translate(595.341 590.714)" fill="#48A7F9"/>
</g>
</g>
<g id="Vector">
<use xlink:href="#path2_fill" transform="matrix(0.812563 -0.582873 0.582934 0.812519 684.475 618.187)"/>
<use xlink:href="#path3_stroke" transform="matrix(0.812563 -0.582873 0.582934 0.812519 684.475 618.187)" fill="#FFFFFF"/>
</g>
</g>
</g>
<defs>
<path id="path0_fill" d="M 0 2C 0 0.895431 0.895431 0 2 0L 538 0C 539.105 0 540 0.895431 540 2L 540 129.631C 540 130.736 539.105 131.631 538 131.631L 2 131.631C 0.895431 131.631 0 130.736 0 129.631L 0 2Z"/>
<path id="path1_fill" d="M 0 0L 158.049 0L 158.049 31.5915L 0 31.5915L 0 0Z"/>
<path id="path2_fill" d="M -7.19282e-06 50.7767L 20.3681 0L 41.0272 51.1968L 24.9732 45.6666L 24.9732 68.6918L 15.7629 68.6918L 15.7629 45.6666L -7.19282e-06 50.7767Z"/>
<path id="path3_stroke" d="M 20.3681 0L 21.0636 -0.280654L 20.366 -2.00937L 19.672 -0.279221L 20.3681 0ZM -7.19282e-06 50.7767L -0.696093 50.4975L -1.29242 51.9841L 0.23128 51.4901L -7.19282e-06 50.7767ZM 41.0272 51.1968L 40.7829 51.9059L 42.3383 52.4417L 41.7227 50.9162L 41.0272 51.1968ZM 15.7629 45.6666L 15.7629 44.9166L 15.6444 44.9166L 15.5316 44.9532L 15.7629 45.6666ZM 15.7629 68.6918L 15.0129 68.6918L 15.0129 69.4418L 15.7629 69.4418L 15.7629 68.6918ZM 24.9732 68.6918L 24.9732 69.4418L 25.7232 69.4418L 25.7232 68.6918L 24.9732 68.6918ZM 24.9732 45.6666L 25.2175 44.9575L 25.0988 44.9166L 24.9732 44.9166L 24.9732 45.6666ZM 19.672 -0.279221L -0.696093 50.4975L 0.696079 51.0559L 21.0641 0.279221L 19.672 -0.279221ZM 41.7227 50.9162L 21.0636 -0.280654L 19.6725 0.280654L 40.3316 51.4775L 41.7227 50.9162ZM 0.23128 51.4901L 15.9942 46.3801L 15.5316 44.9532L -0.231294 50.0632L 0.23128 51.4901ZM 15.0129 45.6666L 15.0129 68.6918L 16.5129 68.6918L 16.5129 45.6666L 15.0129 45.6666ZM 15.7629 69.4418L 24.9732 69.4418L 24.9732 67.9418L 15.7629 67.9418L 15.7629 69.4418ZM 15.7629 46.4166L 24.9732 46.4166L 24.9732 44.9166L 15.7629 44.9166L 15.7629 46.4166ZM 24.7289 46.3757L 40.7829 51.9059L 41.2714 50.4877L 25.2175 44.9575L 24.7289 46.3757ZM 25.7232 68.6918L 25.7232 45.6666L 24.2232 45.6666L 24.2232 68.6918L 25.7232 68.6918Z"/>
</defs>
</svg>
