<svg width="612" height="230" viewBox="0 0 612 230" version="1.1" xmlns="http://www.w3.org/2000/svg" xmlns:xlink="http://www.w3.org/1999/xlink">
<title>All Devices</title>
<desc>Created using Figma</desc>
<g id="Canvas" transform="translate(119 -105)">
<g id="All Devices">
<g id="iPad">
<g id="iPad">
<g id="Rectangle 9">
<use xlink:href="#path0_fill" transform="translate(208 117)" fill="#515151"/>
</g>
<g id="Rectangle 9">
<use xlink:href="#path1_fill" transform="translate(224 134)" fill="#FFFFFF"/>
</g>
</g>
<g id="CTA">
<g id="Rectangle 10">
<use xlink:href="#path2_fill" transform="translate(235 241)" fill="#0E589A"/>
</g>
<g id="Rectangle 11">
<use xlink:href="#path3_fill" transform="translate(243 271)" fill="#48A7F9"/>
</g>
</g>
<g id="Blog text">
<g id="Line 2">
<use xlink:href="#path4_stroke" transform="matrix(1 8.67362e-19 -8.67362e-19 1 235 155)" fill="#969696"/>
</g>
<g id="Line 2">
<use xlink:href="#path4_stroke" transform="matrix(1 8.73534e-19 -8.61233e-19 1 235.001 171.631)" fill="#969696"/>
</g>
<g id="Line 2">
<use xlink:href="#path4_stroke" transform="matrix(1 1.61834e-18 -4.6487e-19 1 235.541 188.752)" fill="#969696"/>
</g>
<g id="Line 2">
<use xlink:href="#path4_stroke" transform="matrix(1 1.61834e-18 -4.6487e-19 1 235.541 205.872)" fill="#969696"/>
</g>
<g id="Line 2">
<use xlink:href="#path5_stroke" transform="matrix(1 8.73534e-19 -8.61233e-19 1 235.001 223)" fill="#969696"/>
</g>
</g>
</g>
<g id="iPhone">
<g id="iPhone">
<g id="Rectangle 9">
<use xlink:href="#path6_fill" transform="translate(403 204)" fill="#515151"/>
</g>
<g id="Rectangle 9">
<use xlink:href="#path7_fill" transform="translate(412 212)" fill="#FFFFFF"/>
</g>
</g>
<g id="Blog text">
<g id="Line 2">
<use xlink:href="#path8_stroke" transform="matrix(1 8.78202e-19 -8.56656e-19 1 419.001 223.071)" fill="#969696"/>
</g>
<g id="Line 2">
<use xlink:href="#path8_stroke" transform="matrix(1 1.66013e-18 -4.53168e-19 1 419.341 234.163)" fill="#969696"/>
</g>
<g id="Line 2">
<use xlink:href="#path8_stroke" transform="matrix(1 1.66013e-18 -4.53168e-19 1 419.341 245.255)" fill="#969696"/>
</g>
<g id="Line 2">
<use xlink:href="#path9_stroke" transform="matrix(1 8.78202e-19 -8.56656e-19 1 419.001 256)" fill="#969696"/>
</g>
</g>
<g id="CTA">
<g id="Rectangle 10">
<use xlink:href="#path10_fill" transform="translate(419 267)" fill="#0E589A"/>
</g>
<g id="Rectangle 11">
<use xlink:href="#path11_fill" transform="translate(424 292)" fill="#48A7F9"/>
</g>
</g>
</g>
<g id="Macbook">
<g id="Macbook">
<g id="Rectangle 9">
<use xlink:href="#path12_fill" transform="translate(-119 105)" fill="#515151"/>
</g>
<g id="Rectangle 9">
<use xlink:href="#path13_fill" transform="translate(-101 117)" fill="#FFFFFF"/>
</g>
</g>
<g id="CTA">
<g id="Rectangle 10">
<use xlink:href="#path14_fill" transform="translate(-80 238)" fill="#0E589A"/>
</g>
<g id="Rectangle 11">
<use xlink:href="#path15_fill" transform="translate(-70 266)" fill="#48A7F9"/>
</g>
</g>
<g id="Blog text">
<g id="Line 2">
<use xlink:href="#path16_stroke" transform="matrix(1 8.67362e-19 -8.67362e-19 1 -79 149)" fill="#969696"/>
</g>
<g id="Line 2">
<use xlink:href="#path16_stroke" transform="matrix(1 8.67362e-19 -8.67362e-19 1 -79 131)" fill="#969696"/>
</g>
<g id="Line 2">
<use xlink:href="#path16_stroke" transform="matrix(1 8.73534e-19 -8.61233e-19 1 -78.9986 166.631)" fill="#969696"/>
</g>
<g id="Line 2">
<use xlink:href="#path16_stroke" transform="matrix(1 7.49961e-19 -1.00314e-18 1 -78.8336 183.752)" fill="#969696"/>
</g>
<g id="Line 2">
<use xlink:href="#path16_stroke" transform="matrix(1 7.49961e-19 -1.00314e-18 1 -78.8336 200.872)" fill="#969696"/>
</g>
<g id="Line 2">
<use xlink:href="#path17_stroke" transform="matrix(1 8.73534e-19 -8.61233e-19 1 -78.9986 219)" fill="#969696"/>
</g>
</g>
</g>
</g>
</g>
<defs>
<path id="path0_fill" d="M 0 10C 0 4.47715 4.47715 0 10 0L 140 0C 145.523 0 150 4.47715 150 10L 150 208C 150 213.523 145.523 218 140 218L 10 218C 4.47715 218 0 213.523 0 208L 0 10Z"/>
<path id="path1_fill" d="M 0 4C 0 1.79086 1.79086 0 4 0L 114 0C 116.209 0 118 1.79086 118 4L 118 168C 118 170.209 116.209 172 114 172L 4 172C 1.79086 172 0 170.209 0 168L 0 4Z"/>
<path id="path2_fill" d="M 0 2C 0 0.895431 0.895431 0 2 0L 93 0C 94.1046 0 95 0.895431 95 2L 95 49C 95 50.1046 94.1046 51 93 51L 2 51C 0.895431 51 0 50.1046 0 49L 0 2Z"/>
<path id="path3_fill" d="M 0 0L 54 0L 54 12L 0 12L 0 0Z"/>
<path id="path4_stroke" d="M 0 0L 94.4595 0L 94.4595 -1L 0 -1L 0 0Z"/>
<path id="path5_stroke" d="M 0 0L 69.629 0L 69.629 -1L 0 -1L 0 0Z"/>
<path id="path6_fill" d="M 0 3C 0 1.34315 1.34315 0 3 0L 87 0C 88.6569 0 90 1.34315 90 3L 90 127.8C 90 129.457 88.6569 130.8 87 130.8L 3 130.8C 1.34315 130.8 0 129.457 0 127.8L 0 3Z"/>
<path id="path7_fill" d="M 0 3C 0 1.34315 1.34315 0 3 0L 70 0C 71.6569 0 73 1.34315 73 3L 73 103C 73 104.657 71.6569 106 70 106L 3 106C 1.34315 106 0 104.657 0 103L 0 3Z"/>
<path id="path8_stroke" d="M 0 -2.77556e-17L 59.6586 -2.77556e-17L 59.6586 -0.5L 0 -0.5L 0 -2.77556e-17Z"/>
<path id="path9_stroke" d="M 0 0L 43.9762 0L 43.9762 -0.5L 0 -0.5L 0 0Z"/>
<path id="path10_fill" d="M 0 2C 0 0.895431 0.895431 0 2 0L 58 0C 59.1046 0 60 0.895431 60 2L 60 39C 60 40.1046 59.1046 41 58 41L 2 41C 0.895431 41 0 40.1046 0 39L 0 2Z"/>
<path id="path11_fill" d="M 0 0L 49 0L 49 10L 0 10L 0 0Z"/>
<path id="path12_fill" d="M 0 6C 0 2.68629 2.68629 0 6 0L 278 0C 281.314 0 284 2.68629 284 6L 284 224C 284 227.314 281.314 230 278 230L 6 230C 2.68629 230 0 227.314 0 224L 0 6Z"/>
<path id="path13_fill" d="M 0 2C 0 0.895431 0.895431 0 2 0L 246 0C 247.105 0 248 0.895431 248 2L 248 188C 248 189.105 247.105 190 246 190L 2 190C 0.895431 190 0 189.105 0 188L 0 2Z"/>
<path id="path14_fill" d="M 0 2C 0 0.895431 0.895431 0 2 0L 203 0C 204.105 0 205 0.895431 205 2L 205 48C 205 49.1046 204.105 50 203 50L 2 50C 0.895431 50 0 49.1046 0 48L 0 2Z"/>
<path id="path15_fill" d="M 0 0L 60 0L 60 12L 0 12L 0 0Z"/>
<path id="path16_stroke" d="M 0 0L 203.834 0L 203.834 -1L 0 -1L 0 0Z"/>
<path id="path17_stroke" d="M 0 0L 150.252 0L 150.252 -1L 0 -1L 0 0Z"/>
</defs>
</svg>
