<svg width="540" height="132" viewBox="0 0 540 132" version="1.1" xmlns="http://www.w3.org/2000/svg" xmlns:xlink="http://www.w3.org/1999/xlink">
<title>Keyword CTA</title>
<desc>Created using Figma</desc>
<g id="Canvas" transform="translate(-569 -1268)">
<g id="Keyword CTA">
<g id="CTA Clicks">
<g id="CTA">
<g id="Rectangle 10">
<use xlink:href="#path0_fill" transform="translate(569 1268)" fill="#0E589A"/>
</g>
<g id="Rectangle 11">
<use xlink:href="#path1_fill" transform="translate(588.341 1349.71)" fill="#48A7F9"/>
</g>
</g>
</g>
<g id="Line 5">
<use xlink:href="#path2_stroke" transform="translate(588 1296)" fill="#FFFFFF"/>
</g>
<g id="Line 5">
<use xlink:href="#path3_stroke" transform="translate(588 1324)" fill="#FFFFFF"/>
</g>
<g id="Line 5">
<use xlink:href="#path4_stroke" transform="translate(889 1296)" fill="#FFFFFF"/>
</g>
<g id="keyword">
<use xlink:href="#path5_fill" transform="translate(768 1279)" fill="#FFFFFF"/>
</g>
</g>
</g>
<defs>
<path id="path0_fill" d="M 0 2C 0 0.895431 0.895431 0 2 0L 538 0C 539.105 0 540 0.895431 540 2L 540 129.631C 540 130.736 539.105 131.631 538 131.631L 2 131.631C 0.895431 131.631 0 130.736 0 129.631L 0 2Z"/>
<path id="path1_fill" d="M 0 0L 158.049 0L 158.049 31.5915L 0 31.5915L 0 0Z"/>
<path id="path2_stroke" d="M 0 0L 180 0L 180 -3L 0 -3L 0 0Z"/>
<path id="path3_stroke" d="M 0 0L 324 0L 324 -1L 0 -1L 0 0Z"/>
<path id="path4_stroke" d="M 0 0L 131 0L 131 -3L 0 -3L 0 0Z"/>
<path id="path5_fill" d="M 18.7339 16.346L 18.7999 16.346L 23.5519 11.704L 25.7079 11.704L 20.5159 16.412L 26.2359 22L 24.0359 22L 18.7999 16.588L 18.7339 16.588L 18.7339 22L 17.2379 22L 17.2379 5.368L 18.7339 5.368L 18.7339 16.346ZM 35.876 16.06C 35.832 15.092 35.5167 14.2927 34.93 13.662C 34.358 13.0167 33.5367 12.694 32.466 12.694C 31.9673 12.694 31.5053 12.7893 31.08 12.98C 30.6547 13.156 30.2807 13.4053 29.958 13.728C 29.6353 14.036 29.3787 14.3953 29.188 14.806C 28.9973 15.202 28.8873 15.62 28.858 16.06L 35.876 16.06ZM 37.394 16.544C 37.394 16.6467 37.394 16.7567 37.394 16.874C 37.394 16.9913 37.3867 17.116 37.372 17.248L 28.836 17.248C 28.8507 17.7613 28.9533 18.2453 29.144 18.7C 29.3347 19.1547 29.5987 19.5507 29.936 19.888C 30.2733 20.2253 30.6693 20.4967 31.124 20.702C 31.5787 20.8927 32.07 20.988 32.598 20.988C 33.3753 20.988 34.0427 20.812 34.6 20.46C 35.172 20.0933 35.6047 19.6753 35.898 19.206L 37.02 20.086C 36.404 20.8633 35.722 21.4207 34.974 21.758C 34.2407 22.0953 33.4487 22.264 32.598 22.264C 31.8353 22.264 31.124 22.132 30.464 21.868C 29.8187 21.5893 29.2613 21.208 28.792 20.724C 28.3227 20.24 27.9487 19.668 27.67 19.008C 27.406 18.348 27.274 17.6293 27.274 16.852C 27.274 16.0747 27.406 15.356 27.67 14.696C 27.934 14.036 28.3007 13.464 28.77 12.98C 29.2393 12.496 29.7893 12.122 30.42 11.858C 31.0507 11.5793 31.7327 11.44 32.466 11.44C 33.2727 11.44 33.984 11.5793 34.6 11.858C 35.216 12.122 35.7293 12.4887 36.14 12.958C 36.5507 13.4127 36.8587 13.948 37.064 14.564C 37.284 15.18 37.394 15.84 37.394 16.544ZM 44.1538 20.394L 44.1978 20.394L 47.3878 11.704L 49.0158 11.704L 43.8898 24.662C 43.5818 25.454 43.1858 26.0847 42.7018 26.554C 42.2325 27.038 41.5505 27.28 40.6558 27.28C 40.2012 27.28 39.7538 27.236 39.3138 27.148L 39.4678 25.784C 39.8198 25.9013 40.1865 25.96 40.5678 25.96C 41.0812 25.96 41.4845 25.7987 41.7778 25.476C 42.0712 25.168 42.3278 24.7207 42.5478 24.134L 43.3838 21.978L 38.9838 11.704L 40.6558 11.704L 44.1538 20.394ZM 51.552 11.704L 54.038 20.064L 54.082 20.064L 56.854 11.704L 58.306 11.704L 61.122 20.064L 61.166 20.064L 63.63 11.704L 65.214 11.704L 61.958 22L 60.33 22L 57.58 13.662L 57.536 13.662L 54.83 22L 53.202 22L 49.946 11.704L 51.552 11.704ZM 77.9981 16.852C 77.9981 17.6293 77.8588 18.348 77.5801 19.008C 77.3161 19.668 76.9421 20.24 76.4581 20.724C 75.9741 21.208 75.3948 21.5893 74.7201 21.868C 74.0454 22.132 73.3048 22.264 72.4981 22.264C 71.7061 22.264 70.9728 22.132 70.2981 21.868C 69.6234 21.5893 69.0441 21.208 68.5601 20.724C 68.0761 20.24 67.6948 19.668 67.4161 19.008C 67.1521 18.348 67.0201 17.6293 67.0201 16.852C 67.0201 16.0747 67.1521 15.356 67.4161 14.696C 67.6948 14.036 68.0761 13.464 68.5601 12.98C 69.0441 12.496 69.6234 12.122 70.2981 11.858C 70.9728 11.5793 71.7061 11.44 72.4981 11.44C 73.3048 11.44 74.0454 11.5793 74.7201 11.858C 75.3948 12.122 75.9741 12.496 76.4581 12.98C 76.9421 13.464 77.3161 14.036 77.5801 14.696C 77.8588 15.356 77.9981 16.0747 77.9981 16.852ZM 76.4141 16.852C 76.4141 16.28 76.3188 15.7447 76.1281 15.246C 75.9521 14.7327 75.6954 14.2927 75.3581 13.926C 75.0208 13.5447 74.6101 13.244 74.1261 13.024C 73.6421 12.804 73.0994 12.694 72.4981 12.694C 71.8968 12.694 71.3541 12.804 70.8701 13.024C 70.4008 13.244 69.9974 13.5447 69.6601 13.926C 69.3228 14.2927 69.0588 14.7327 68.8681 15.246C 68.6921 15.7447 68.6041 16.28 68.6041 16.852C 68.6041 17.424 68.6921 17.9667 68.8681 18.48C 69.0588 18.9787 69.3228 19.4187 69.6601 19.8C 69.9974 20.1667 70.4008 20.46 70.8701 20.68C 71.3541 20.8853 71.8968 20.988 72.4981 20.988C 73.0994 20.988 73.6421 20.8853 74.1261 20.68C 74.6101 20.46 75.0208 20.1667 75.3581 19.8C 75.6954 19.4187 75.9521 18.9787 76.1281 18.48C 76.3188 17.9667 76.4141 17.424 76.4141 16.852ZM 81.2173 13.97C 81.2173 13.6913 81.21 13.332 81.1953 12.892C 81.1806 12.452 81.1586 12.056 81.1293 11.704L 82.5593 11.704C 82.5886 11.9827 82.6106 12.2907 82.6253 12.628C 82.64 12.9653 82.6473 13.244 82.6473 13.464L 82.6913 13.464C 82.9846 12.8627 83.4246 12.3787 84.0113 12.012C 84.598 11.6307 85.258 11.44 85.9913 11.44C 86.182 11.44 86.3506 11.4473 86.4973 11.462C 86.6586 11.4767 86.82 11.506 86.9813 11.55L 86.7833 12.958C 86.6953 12.9287 86.5486 12.8993 86.3433 12.87C 86.138 12.8407 85.9326 12.826 85.7273 12.826C 85.3313 12.826 84.95 12.8993 84.5833 13.046C 84.2166 13.1927 83.894 13.4273 83.6153 13.75C 83.3513 14.058 83.1313 14.4613 82.9553 14.96C 82.794 15.444 82.7133 16.0307 82.7133 16.72L 82.7133 22L 81.2173 22L 81.2173 13.97ZM 97.2283 20.262C 96.7883 20.922 96.2163 21.4207 95.5123 21.758C 94.8083 22.0953 94.0823 22.264 93.3343 22.264C 92.5277 22.264 91.7943 22.1247 91.1343 21.846C 90.489 21.5673 89.9317 21.186 89.4623 20.702C 89.0077 20.218 88.6483 19.646 88.3843 18.986C 88.135 18.326 88.0103 17.6147 88.0103 16.852C 88.0103 16.0893 88.135 15.378 88.3843 14.718C 88.6483 14.058 89.0077 13.486 89.4623 13.002C 89.9317 12.518 90.489 12.1367 91.1343 11.858C 91.7943 11.5793 92.5277 11.44 93.3343 11.44C 94.0823 11.44 94.8083 11.616 95.5123 11.968C 96.2163 12.3053 96.7883 12.8113 97.2283 13.486L 97.2723 13.486L 97.2723 5.368L 98.7683 5.368L 98.7683 22L 97.2723 22L 97.2723 20.262L 97.2283 20.262ZM 89.5943 16.852C 89.5943 17.424 89.6823 17.9667 89.8583 18.48C 90.0343 18.9787 90.2837 19.4187 90.6063 19.8C 90.9437 20.1667 91.3543 20.46 91.8383 20.68C 92.3223 20.8853 92.8723 20.988 93.4883 20.988C 94.0603 20.988 94.5883 20.8853 95.0723 20.68C 95.5563 20.46 95.9743 20.1667 96.3263 19.8C 96.6783 19.4333 96.9497 19.0007 97.1403 18.502C 97.3457 17.9887 97.4483 17.4387 97.4483 16.852C 97.4483 16.2653 97.3457 15.7227 97.1403 15.224C 96.9497 14.7107 96.6783 14.2707 96.3263 13.904C 95.9743 13.5227 95.5563 13.2293 95.0723 13.024C 94.5883 12.804 94.0603 12.694 93.4883 12.694C 92.8723 12.694 92.3223 12.804 91.8383 13.024C 91.3543 13.244 90.9437 13.5447 90.6063 13.926C 90.2837 14.2927 90.0343 14.7327 89.8583 15.246C 89.6823 15.7447 89.5943 16.28 89.5943 16.852Z"/>
</defs>
</svg>
