<svg width="387" height="42" viewBox="0 0 387 42" version="1.1" xmlns="http://www.w3.org/2000/svg" xmlns:xlink="http://www.w3.org/1999/xlink">
<title>Group</title>
<desc>Created using Figma</desc>
<g id="Canvas" transform="translate(-510 789)">
<g id="Group">
<g id="Arrow">
<use xlink:href="#path0_stroke" transform="matrix(-0.974634 0.223804 -0.223804 -0.974634 589.566 -767.924)" fill="#FF0000"/>
</g>
<g id="Our Responsive CTAs look like this">
<use xlink:href="#path1_fill" transform="translate(610 -792)"/>
</g>
</g>
</g>
<defs>
<path id="path0_stroke" d="M 80.8515 0.509749C 81.133 -0.841957 80.2654 -2.16595 78.9137 -2.44748L 56.8864 -7.03522C 55.5347 -7.31674 54.2107 -6.44919 53.9292 -5.09749C 53.6477 -3.74578 54.5152 -2.42178 55.8669 -2.14026L 75.4467 1.93773L 71.3688 21.5176C 71.0872 22.8693 71.9548 24.1933 73.3065 24.4748C 74.6582 24.7563 75.9822 23.8888 76.2637 22.5371L 80.8515 0.509749ZM -0.97353 14.108C 15.9406 21.2591 29.8957 22.4477 42.8589 19.6482C 55.6095 16.8651 67.365 10.2207 79.7742 2.09108L 77.0338 -2.09108C 64.7589 5.95358 53.8267 12.1938 41.8035 14.7609C 29.9929 17.3115 17.088 16.3156 0.97353 9.50271L -0.97353 14.108Z"/>
<path id="path1_fill" d="M 0.371094 13.5508C 0.345052 12.9779 0.416667 12.444 0.585938 11.9492C 0.768229 11.4544 1.02214 11.0182 1.34766 10.6406C 1.67318 10.25 2.07031 9.9375 2.53906 9.70312C 3.00781 9.49479 3.52214 9.36458 4.08203 9.3125C 5.05859 9.45573 5.98958 9.70312 6.875 10.0547C 7.77344 10.4062 8.5612 10.8555 9.23828 11.4023C 9.92839 11.9492 10.4883 12.5872 10.918 13.3164C 11.3477 14.0456 11.5885 14.8659 11.6406 15.7773C 11.5104 16.4544 11.2435 16.9883 10.8398 17.3789C 10.4362 17.7695 9.96094 18.0755 9.41406 18.2969C 8.86719 18.5052 8.28125 18.6615 7.65625 18.7656C 7.03125 18.8568 6.45833 18.9414 5.9375 19.0195C 5.13021 19.0195 4.38151 18.8893 3.69141 18.6289C 3.01432 18.3555 2.42839 17.9844 1.93359 17.5156C 1.45182 17.0469 1.06771 16.474 0.78125 15.7969C 0.507812 15.1198 0.371094 14.3711 0.371094 13.5508ZM 1.28906 13.4531C 1.27604 14.0521 1.39974 14.612 1.66016 15.1328C 1.93359 15.6536 2.28516 16.1094 2.71484 16.5C 3.14453 16.8906 3.6263 17.2161 4.16016 17.4766C 4.69401 17.737 5.22786 17.9062 5.76172 17.9844C 5.94401 17.9844 6.1849 17.9714 6.48438 17.9453C 6.78385 17.9062 7.10938 17.8542 7.46094 17.7891C 7.8125 17.7109 8.16406 17.6133 8.51562 17.4961C 8.88021 17.3659 9.20573 17.2161 9.49219 17.0469C 9.79167 16.8646 10.0326 16.6562 10.2148 16.4219C 10.4102 16.1745 10.5078 15.8945 10.5078 15.582C 10.4167 14.931 10.2148 14.3516 9.90234 13.8438C 9.60286 13.3359 9.23177 12.8867 8.78906 12.4961C 8.34635 12.1055 7.86458 11.7734 7.34375 11.5C 6.82292 11.2266 6.30859 11.0117 5.80078 10.8555C 5.29297 10.6862 4.81771 10.5755 4.375 10.5234C 3.93229 10.4714 3.56771 10.4714 3.28125 10.5234C 2.8776 10.6667 2.54557 10.8555 2.28516 11.0898C 2.03776 11.3242 1.83594 11.5781 1.67969 11.8516C 1.53646 12.112 1.43229 12.3789 1.36719 12.6523C 1.3151 12.9258 1.28906 13.1927 1.28906 13.4531ZM 19.6875 16.168C 19.388 16.3372 19.1276 16.5456 18.9062 16.793C 18.6979 17.0273 18.4831 17.2552 18.2617 17.4766C 18.0404 17.6849 17.793 17.8672 17.5195 18.0234C 17.2591 18.1797 16.9206 18.2578 16.5039 18.2578C 16.0352 18.2578 15.612 18.1602 15.2344 17.9648C 14.8568 17.7565 14.5182 17.4831 14.2188 17.1445C 13.9323 16.793 13.6784 16.4023 13.457 15.9727C 13.2487 15.5299 13.0729 15.0807 12.9297 14.625C 12.7995 14.1562 12.6953 13.7005 12.6172 13.2578C 12.5521 12.8021 12.5195 12.3919 12.5195 12.0273C 12.4154 11.3242 12.4349 10.7773 12.5781 10.3867C 12.7214 9.98307 12.8906 9.72917 13.0859 9.625C 13.2943 9.50781 13.4701 9.53385 13.6133 9.70312C 13.7565 9.85938 13.776 10.1393 13.6719 10.543C 13.6458 10.5951 13.6263 10.6797 13.6133 10.7969C 13.6003 10.901 13.5872 11.0117 13.5742 11.1289C 13.5612 11.2461 13.5482 11.3568 13.5352 11.4609C 13.5221 11.5651 13.5156 11.6367 13.5156 11.6758C 13.5156 11.9492 13.5417 12.2747 13.5938 12.6523C 13.6458 13.0169 13.724 13.401 13.8281 13.8047C 13.9453 14.2083 14.0885 14.612 14.2578 15.0156C 14.4271 15.4062 14.6289 15.7578 14.8633 16.0703C 15.0977 16.3828 15.3646 16.6367 15.6641 16.832C 15.9766 17.0273 16.3151 17.125 16.6797 17.125C 16.9141 17.125 17.181 17.0143 17.4805 16.793C 17.7799 16.5586 18.0599 16.2852 18.3203 15.9727C 18.5938 15.6471 18.8216 15.3151 19.0039 14.9766C 19.1992 14.638 19.2969 14.3516 19.2969 14.1172C 19.2969 13.987 19.2969 13.7721 19.2969 13.4727C 19.3099 13.1732 19.3164 12.8542 19.3164 12.5156C 19.3164 12.1771 19.3099 11.8581 19.2969 11.5586C 19.2969 11.2591 19.2969 11.0508 19.2969 10.9336C 19.375 10.8034 19.4596 10.7057 19.5508 10.6406C 19.6419 10.5625 19.7526 10.5234 19.8828 10.5234C 20.0391 10.5234 20.1693 10.6276 20.2734 10.8359C 20.3776 11.0443 20.4622 11.3112 20.5273 11.6367C 20.5924 11.9622 20.638 12.3138 20.6641 12.6914C 20.6901 13.069 20.7096 13.4336 20.7227 13.7852C 20.7357 14.1367 20.7487 14.4492 20.7617 14.7227C 20.7747 14.9831 20.7943 15.1589 20.8203 15.25C 20.8854 15.5104 20.9766 15.8034 21.0938 16.1289C 21.224 16.4544 21.3477 16.7734 21.4648 17.0859C 21.582 17.3854 21.6862 17.6654 21.7773 17.9258C 21.8685 18.1732 21.9141 18.362 21.9141 18.4922C 21.9141 18.6875 21.8555 18.8047 21.7383 18.8438C 21.6341 18.8828 21.4974 18.9023 21.3281 18.9023C 21.1198 18.9023 20.9635 18.8503 20.8594 18.7461C 20.7682 18.6419 20.6966 18.5117 20.6445 18.3555C 20.6055 18.1862 20.5729 18.0039 20.5469 17.8086C 20.5208 17.6133 20.4753 17.4115 20.4102 17.2031C 20.3581 16.9948 20.2734 16.7995 20.1562 16.6172C 20.0521 16.4349 19.8958 16.2852 19.6875 16.168ZM 24.375 19C 24.0885 18.4792 23.8411 17.9128 23.6328 17.3008C 23.4245 16.6888 23.2487 16.0703 23.1055 15.4453C 22.9622 14.8203 22.8451 14.2148 22.7539 13.6289C 22.6758 13.0299 22.6237 12.4896 22.5977 12.0078C 22.5977 11.9167 22.5911 11.819 22.5781 11.7148C 22.5651 11.5977 22.5586 11.4805 22.5586 11.3633C 22.5716 11.2461 22.5911 11.1354 22.6172 11.0312C 22.6562 10.9271 22.7148 10.8359 22.793 10.7578L 22.832 10.7578C 22.8451 10.7578 22.8516 10.7578 22.8516 10.7578C 22.8516 10.7448 22.8581 10.7383 22.8711 10.7383C 22.8841 10.7383 22.8906 10.7448 22.8906 10.7578C 22.8906 10.7578 22.9036 10.7578 22.9297 10.7578L 22.9688 10.7578C 22.9948 10.7708 23.0599 10.7969 23.1641 10.8359C 23.2682 10.875 23.3333 10.9076 23.3594 10.9336C 23.5938 10.8555 23.8346 10.7643 24.082 10.6602C 24.3294 10.543 24.5768 10.4388 24.8242 10.3477C 25.0846 10.2435 25.3451 10.1589 25.6055 10.0938C 25.8659 10.0286 26.1198 9.99609 26.3672 9.99609C 26.5495 9.99609 26.7057 10.0026 26.8359 10.0156C 26.9792 10.0286 27.1159 10.0547 27.2461 10.0938C 27.3893 10.1198 27.5391 10.1589 27.6953 10.2109C 27.8516 10.25 28.0339 10.3021 28.2422 10.3672C 28.3464 10.4453 28.4375 10.5234 28.5156 10.6016C 28.6068 10.6667 28.6849 10.7448 28.75 10.8359C 28.8281 10.9271 28.8867 11.0378 28.9258 11.168C 28.9648 11.2982 28.9844 11.4674 28.9844 11.6758C 28.776 11.7018 28.5286 11.6888 28.2422 11.6367C 27.9688 11.5716 27.6758 11.4935 27.3633 11.4023C 27.0638 11.3112 26.7513 11.2331 26.4258 11.168C 26.1003 11.1029 25.7878 11.0768 25.4883 11.0898C 25.1888 11.1029 24.9089 11.1875 24.6484 11.3438C 24.375 11.474 24.1341 11.7083 23.9258 12.0469C 23.8346 12.4245 23.7956 12.7956 23.8086 13.1602C 23.8216 13.5247 23.8672 13.8828 23.9453 14.2344C 24.0234 14.5729 24.1211 14.918 24.2383 15.2695C 24.3685 15.6081 24.4857 15.9531 24.5898 16.3047C 24.707 16.6432 24.8112 16.9818 24.9023 17.3203C 24.9935 17.6589 25.0521 18.0039 25.0781 18.3555C 25.0781 18.4857 25.0065 18.6289 24.8633 18.7852C 24.7201 18.9284 24.5573 19 24.375 19ZM 40.5273 14.6641C 40.6185 15.25 40.7227 15.7904 40.8398 16.2852C 40.9701 16.7669 41.0677 17.1901 41.1328 17.5547C 41.1979 17.9193 41.2174 18.2122 41.1914 18.4336C 41.1654 18.6549 41.0352 18.7917 40.8008 18.8438C 40.7747 18.9219 40.7227 18.8763 40.6445 18.707C 40.5664 18.5378 40.4753 18.2839 40.3711 17.9453C 40.2669 17.5938 40.1562 17.1771 40.0391 16.6953C 39.9219 16.2135 39.8047 15.7057 39.6875 15.1719C 39.5833 14.625 39.4857 14.0651 39.3945 13.4922C 39.3034 12.9193 39.2253 12.3724 39.1602 11.8516C 39.1081 11.3307 39.082 10.8555 39.082 10.4258C 39.082 9.99609 39.1211 9.63802 39.1992 9.35156C 39.3555 9.23438 39.4922 9.20833 39.6094 9.27344C 39.7396 9.32552 39.8372 9.41667 39.9023 9.54688C 39.9805 9.67708 40.0326 9.82682 40.0586 9.99609C 40.0586 10.1654 40.0456 10.3216 40.0195 10.4648C 40.0326 10.5169 40.0521 10.6146 40.0781 10.7578C 40.1172 10.901 40.1562 11.0573 40.1953 11.2266C 40.2344 11.3828 40.2734 11.5326 40.3125 11.6758C 40.3516 11.819 40.3841 11.9167 40.4102 11.9688C 40.5924 11.9427 40.8594 11.9102 41.2109 11.8711C 41.5755 11.819 41.9661 11.7539 42.3828 11.6758C 42.7995 11.5846 43.2227 11.4805 43.6523 11.3633C 44.0951 11.2461 44.4922 11.1094 44.8438 10.9531C 45.1953 10.7969 45.4818 10.6146 45.7031 10.4062C 45.9375 10.1979 46.0547 9.96354 46.0547 9.70312C 46.0547 9.67708 46.0482 9.64453 46.0352 9.60547L 46.0352 9.54688C 45.6706 9.13021 45.2995 8.79167 44.9219 8.53125C 44.5443 8.27083 44.1406 8.08203 43.7109 7.96484C 43.2943 7.83464 42.8516 7.75 42.3828 7.71094C 41.9141 7.67188 41.4128 7.65234 40.8789 7.65234C 40.4883 7.65234 40.0781 7.65885 39.6484 7.67188C 39.2188 7.67188 38.8216 7.72396 38.457 7.82812C 38.1055 7.93229 37.8125 8.12109 37.5781 8.39453C 37.3438 8.66797 37.2266 9.0651 37.2266 9.58594C 37.1094 9.58594 37.0052 9.54688 36.9141 9.46875C 36.8229 9.39062 36.7448 9.29948 36.6797 9.19531C 36.6146 9.07812 36.5625 8.96094 36.5234 8.84375C 36.4844 8.71354 36.4648 8.60286 36.4648 8.51172C 36.4648 8.32943 36.5039 8.16016 36.582 8.00391C 36.6602 7.83464 36.7643 7.6849 36.8945 7.55469C 37.0247 7.42448 37.168 7.30729 37.3242 7.20312C 37.4805 7.08594 37.6367 6.98828 37.793 6.91016C 38.2096 6.83203 38.5742 6.76693 38.8867 6.71484C 39.2122 6.66276 39.5182 6.6237 39.8047 6.59766C 40.0911 6.55859 40.3776 6.53906 40.6641 6.53906C 40.9635 6.52604 41.2956 6.51953 41.6602 6.51953C 42.0247 6.51953 42.4089 6.55208 42.8125 6.61719C 43.2161 6.66927 43.6263 6.75391 44.043 6.87109C 44.4596 6.98828 44.8503 7.14453 45.2148 7.33984C 45.5924 7.52214 45.9245 7.75 46.2109 8.02344C 46.5104 8.28385 46.7448 8.58984 46.9141 8.94141C 47.0833 9.27995 47.168 9.66406 47.168 10.0938C 47.168 10.4714 47.0508 10.8034 46.8164 11.0898C 46.582 11.3763 46.2695 11.6237 45.8789 11.832C 45.4883 12.0404 45.0521 12.2161 44.5703 12.3594C 44.1016 12.5026 43.6263 12.6328 43.1445 12.75C 42.6758 12.8542 42.2331 12.9453 41.8164 13.0234C 41.3997 13.1276 41.0612 13.2188 40.8008 13.2969C 41.4518 14.1953 42.0964 14.957 42.7344 15.582C 43.3724 16.207 43.9714 16.7344 44.5312 17.1641C 45.0911 17.5938 45.599 17.9453 46.0547 18.2188C 46.5104 18.4792 46.8815 18.7005 47.168 18.8828C 47.4544 19.0651 47.6367 19.2083 47.7148 19.3125C 47.793 19.4167 47.7344 19.5339 47.5391 19.6641C 47.3958 19.8464 47.1615 19.8919 46.8359 19.8008C 46.5104 19.7096 46.1328 19.5273 45.7031 19.2539C 45.2865 18.9935 44.8372 18.668 44.3555 18.2773C 43.8737 17.8737 43.3984 17.457 42.9297 17.0273C 42.4609 16.5977 42.0117 16.1745 41.582 15.7578C 41.1654 15.3411 40.8138 14.9766 40.5273 14.6641ZM 48.6133 13.7656C 48.6133 13.0885 48.7109 12.444 48.9062 11.832C 49.1146 11.207 49.4076 10.6602 49.7852 10.1914C 50.1758 9.72266 50.6445 9.35156 51.1914 9.07812C 51.7513 8.79167 52.3958 8.64844 53.125 8.64844C 53.5547 8.70052 53.9258 8.81771 54.2383 9C 54.5638 9.18229 54.8242 9.41016 55.0195 9.68359C 55.2279 9.94401 55.3776 10.25 55.4688 10.6016C 55.5469 10.9401 55.5859 11.3047 55.5859 11.6953C 55.5859 12.1641 55.4492 12.5872 55.1758 12.9648C 54.9023 13.3424 54.5573 13.6615 54.1406 13.9219C 53.724 14.1693 53.2747 14.3646 52.793 14.5078C 52.3112 14.638 51.862 14.7031 51.4453 14.7031C 51.2891 14.7031 51.1263 14.7031 50.957 14.7031C 50.8008 14.7031 50.6576 14.6771 50.5273 14.625C 50.3971 14.5729 50.293 14.4948 50.2148 14.3906C 50.1367 14.2865 50.0977 14.1302 50.0977 13.9219C 50.0977 13.8568 50.1042 13.8047 50.1172 13.7656C 50.1432 13.7135 50.2018 13.681 50.293 13.668C 50.3841 13.6419 50.5208 13.6354 50.7031 13.6484C 50.8854 13.6745 51.1328 13.7135 51.4453 13.7656C 51.6276 13.7656 51.888 13.707 52.2266 13.5898C 52.5781 13.4596 52.9297 13.2969 53.2812 13.1016C 53.6458 12.9062 53.9583 12.6849 54.2188 12.4375C 54.4792 12.1771 54.6094 11.9232 54.6094 11.6758C 54.6094 11.4154 54.5638 11.1615 54.4727 10.9141C 54.3945 10.6536 54.2708 10.4258 54.1016 10.2305C 53.9323 10.0352 53.7305 9.87891 53.4961 9.76172C 53.2747 9.64453 53.0208 9.59896 52.7344 9.625C 52.2786 9.66406 51.862 9.78776 51.4844 9.99609C 51.1198 10.2044 50.8073 10.4779 50.5469 10.8164C 50.2865 11.1419 50.0846 11.5065 49.9414 11.9102C 49.7982 12.3138 49.7266 12.737 49.7266 13.1797C 49.7266 13.5182 49.7331 13.8568 49.7461 14.1953C 49.7591 14.5339 49.8047 14.8659 49.8828 15.1914C 49.974 15.5169 50.1107 15.8294 50.293 16.1289C 50.4883 16.4284 50.7617 16.6953 51.1133 16.9297C 51.4779 17.151 51.9336 17.3398 52.4805 17.4961C 53.0273 17.6393 53.7044 17.7305 54.5117 17.7695L 58.0078 17.5352C 57.7995 17.8216 57.5326 18.056 57.207 18.2383C 56.8945 18.4206 56.556 18.5703 56.1914 18.6875C 55.8398 18.7917 55.4883 18.8698 55.1367 18.9219C 54.7852 18.974 54.4531 19 54.1406 19C 53.3854 19 52.6758 18.8763 52.0117 18.6289C 51.3477 18.3815 50.7617 18.0365 50.2539 17.5938C 49.7461 17.138 49.3424 16.5911 49.043 15.9531C 48.7565 15.3021 48.6133 14.5729 48.6133 13.7656ZM 58.8867 16.6367C 58.9909 16.5586 59.082 16.513 59.1602 16.5C 59.2513 16.474 59.349 16.4609 59.4531 16.4609C 59.5703 16.4609 59.6875 16.4935 59.8047 16.5586C 59.9219 16.6107 60.026 16.6823 60.1172 16.7734C 60.2214 16.8516 60.3255 16.9297 60.4297 17.0078C 60.5339 17.0859 60.6445 17.151 60.7617 17.2031C 61.1003 17.3464 61.3672 17.4635 61.5625 17.5547C 61.7708 17.6458 61.9596 17.7174 62.1289 17.7695C 62.2982 17.8216 62.4935 17.8542 62.7148 17.8672C 62.9362 17.8802 63.2227 17.8867 63.5742 17.8867C 63.8477 17.8867 64.1797 17.8932 64.5703 17.9062C 64.9609 17.9062 65.332 17.8737 65.6836 17.8086C 66.0352 17.7305 66.3346 17.6003 66.582 17.418C 66.8294 17.2227 66.9531 16.9297 66.9531 16.5391C 66.9661 16.1615 66.862 15.8685 66.6406 15.6602C 66.4323 15.4388 66.1458 15.2695 65.7812 15.1523C 65.4167 15.0352 65.0065 14.957 64.5508 14.918C 64.0951 14.8659 63.6263 14.8138 63.1445 14.7617C 62.6628 14.7096 62.1875 14.638 61.7188 14.5469C 61.263 14.4427 60.8529 14.2865 60.4883 14.0781C 60.1237 13.8698 59.8307 13.5833 59.6094 13.2188C 59.388 12.8542 59.2708 12.3854 59.2578 11.8125C 59.3359 11.3958 59.5378 11.0508 59.8633 10.7773C 60.2018 10.4909 60.599 10.276 61.0547 10.1328C 61.5234 9.97656 62.0182 9.89844 62.5391 9.89844C 63.0599 9.88542 63.5352 9.95052 63.9648 10.0938C 64.4076 10.224 64.7721 10.4388 65.0586 10.7383C 65.3581 11.0378 65.5143 11.4089 65.5273 11.8516C 65.5534 12.112 65.5339 12.3268 65.4688 12.4961C 65.4036 12.6654 65.3125 12.7956 65.1953 12.8867C 65.0911 12.9648 64.9805 13.0039 64.8633 13.0039C 64.7461 12.9909 64.6549 12.9453 64.5898 12.8672C 64.5247 12.776 64.4922 12.6523 64.4922 12.4961C 64.5052 12.3268 64.5833 12.1185 64.7266 11.8711C 64.6745 11.6237 64.5247 11.4284 64.2773 11.2852C 64.0299 11.1419 63.7435 11.0443 63.418 10.9922C 63.0924 10.9271 62.7409 10.9141 62.3633 10.9531C 61.9987 10.9792 61.6602 11.0443 61.3477 11.1484C 61.0482 11.2526 60.8008 11.3893 60.6055 11.5586C 60.4232 11.7279 60.3451 11.9232 60.3711 12.1445C 60.3711 12.5352 60.4818 12.8411 60.7031 13.0625C 60.9375 13.2708 61.237 13.4336 61.6016 13.5508C 61.9661 13.668 62.3828 13.7526 62.8516 13.8047C 63.3333 13.8568 63.8216 13.9089 64.3164 13.9609C 64.8242 14 65.3125 14.0651 65.7812 14.1562C 66.25 14.2344 66.6732 14.3711 67.0508 14.5664C 67.4284 14.7617 67.7279 15.0286 67.9492 15.3672C 68.1706 15.6927 68.2812 16.1224 68.2812 16.6562C 68.2812 17.0599 68.1771 17.4115 67.9688 17.7109C 67.7604 17.9974 67.4935 18.2383 67.168 18.4336C 66.8555 18.6289 66.5104 18.7721 66.1328 18.8633C 65.7552 18.9544 65.3971 19 65.0586 19C 64.7201 19 64.3555 19 63.9648 19C 63.5872 18.987 63.1966 18.9609 62.793 18.9219C 62.4023 18.8828 62.0052 18.8242 61.6016 18.7461C 61.1979 18.6549 60.8203 18.5247 60.4688 18.3555C 60.1302 18.1732 59.8242 17.9453 59.5508 17.6719C 59.2773 17.3984 59.056 17.0534 58.8867 16.6367ZM 69.2188 16.4414C 69.2188 15.6211 69.362 14.931 69.6484 14.3711C 69.9349 13.8112 70.3125 13.362 70.7812 13.0234C 71.263 12.6849 71.8164 12.4375 72.4414 12.2812C 73.0794 12.125 73.7435 12.0469 74.4336 12.0469C 74.9935 12.0469 75.5339 12.138 76.0547 12.3203C 76.5885 12.5026 77.0638 12.7565 77.4805 13.082C 77.8971 13.4076 78.2292 13.8047 78.4766 14.2734C 78.724 14.7422 78.8477 15.276 78.8477 15.875C 78.8477 16.3958 78.75 16.8255 78.5547 17.1641C 78.3594 17.4896 78.0924 17.75 77.7539 17.9453C 77.4154 18.1276 77.0378 18.2578 76.6211 18.3359C 76.2174 18.4141 75.8008 18.4531 75.3711 18.4531C 74.9544 18.4531 74.5247 18.4336 74.082 18.3945C 73.6523 18.3555 73.2552 18.2643 72.8906 18.1211C 72.526 17.9779 72.2266 17.763 71.9922 17.4766C 71.7578 17.1901 71.6406 16.7865 71.6406 16.2656C 71.9141 16.2656 72.1745 16.3242 72.4219 16.4414C 72.6823 16.5456 72.9427 16.6628 73.2031 16.793C 73.4635 16.9102 73.724 17.0208 73.9844 17.125C 74.2318 17.2422 74.4987 17.3008 74.7852 17.3008C 74.9935 17.3008 75.2669 17.2812 75.6055 17.2422C 75.957 17.2031 76.2826 17.1315 76.582 17.0273C 76.8945 16.9102 77.1615 16.7539 77.3828 16.5586C 77.6042 16.3633 77.7148 16.1159 77.7148 15.8164C 77.7148 15.3737 77.6172 14.9896 77.4219 14.6641C 77.2266 14.3385 76.9727 14.0716 76.6602 13.8633C 76.3477 13.6419 75.9961 13.4727 75.6055 13.3555C 75.2148 13.2383 74.8242 13.1797 74.4336 13.1797C 74.3815 13.1797 74.2513 13.1927 74.043 13.2188C 73.8477 13.2448 73.6198 13.2904 73.3594 13.3555C 73.099 13.4076 72.8255 13.4792 72.5391 13.5703C 72.2526 13.6484 71.9857 13.7526 71.7383 13.8828C 71.5039 14 71.3086 14.1367 71.1523 14.293C 70.9961 14.4492 70.918 14.625 70.918 14.8203L 70.918 15.0547C 70.931 15.1979 70.944 15.3932 70.957 15.6406C 70.9831 15.875 71.0026 16.1159 71.0156 16.3633C 71.0286 16.5977 71.0482 16.806 71.0742 16.9883C 71.1003 17.1706 71.1133 17.2747 71.1133 17.3008C 71.1393 17.5091 71.1849 17.8346 71.25 18.2773C 71.3151 18.707 71.3867 19.1888 71.4648 19.7227C 71.543 20.2695 71.6276 20.8424 71.7188 21.4414C 71.8229 22.0404 71.9206 22.6068 72.0117 23.1406C 72.1029 23.6875 72.181 24.1758 72.2461 24.6055C 72.3242 25.0352 72.3828 25.3477 72.4219 25.543C 72.4219 25.569 72.4219 25.5885 72.4219 25.6016C 72.4349 25.6276 72.4414 25.6471 72.4414 25.6602C 72.4414 25.6732 72.4414 25.6797 72.4414 25.6797L 72.4219 25.7188L 72.4219 25.7578C 72.3958 25.7969 72.3372 25.862 72.2461 25.9531C 72.1419 26.0312 72.0768 26.0833 72.0508 26.1094L 71.9336 26.1094C 71.8034 26.1094 71.6667 25.9857 71.5234 25.7383C 71.3802 25.5039 71.2305 25.1784 71.0742 24.7617C 70.931 24.3581 70.7812 23.8893 70.625 23.3555C 70.4818 22.8216 70.3385 22.2682 70.1953 21.6953C 70.0521 21.1224 69.9219 20.556 69.8047 19.9961C 69.6875 19.4362 69.5833 18.9154 69.4922 18.4336C 69.401 17.9518 69.3294 17.5352 69.2773 17.1836C 69.2383 16.832 69.2188 16.5846 69.2188 16.4414ZM 79.6289 15.0156C 79.6289 14.2995 79.7852 13.6745 80.0977 13.1406C 80.4102 12.6068 80.8203 12.1576 81.3281 11.793C 81.8359 11.4284 82.4023 11.1615 83.0273 10.9922C 83.6654 10.8099 84.3034 10.7188 84.9414 10.7188C 85.2799 10.7188 85.5924 10.7839 85.8789 10.9141C 86.1784 11.0312 86.4583 11.2005 86.7188 11.4219C 86.9922 11.6302 87.2331 11.8776 87.4414 12.1641C 87.6497 12.4375 87.8255 12.724 87.9688 13.0234C 88.125 13.3229 88.2422 13.6289 88.3203 13.9414C 88.3984 14.2409 88.4375 14.5339 88.4375 14.8203C 88.4375 15.4844 88.3073 16.0768 88.0469 16.5977C 87.7865 17.1185 87.4349 17.5612 86.9922 17.9258C 86.5495 18.2773 86.0482 18.5508 85.4883 18.7461C 84.9284 18.9284 84.3555 19.0195 83.7695 19.0195C 83.1706 19.0195 82.6172 18.9284 82.1094 18.7461C 81.6146 18.5508 81.1784 18.2839 80.8008 17.9453C 80.4362 17.6068 80.1497 17.1901 79.9414 16.6953C 79.7331 16.1875 79.6289 15.6276 79.6289 15.0156ZM 80.5859 14.8594C 80.5859 15.263 80.6576 15.6536 80.8008 16.0312C 80.957 16.3958 81.1654 16.7148 81.4258 16.9883C 81.6992 17.2617 82.0182 17.4831 82.3828 17.6523C 82.7474 17.8086 83.138 17.8867 83.5547 17.8867C 83.776 17.9128 84.043 17.8802 84.3555 17.7891C 84.681 17.6849 85 17.5417 85.3125 17.3594C 85.638 17.1641 85.944 16.9362 86.2305 16.6758C 86.5299 16.4023 86.7773 16.1094 86.9727 15.7969C 87.168 15.4714 87.2852 15.1393 87.3242 14.8008C 87.3763 14.4492 87.3177 14.1042 87.1484 13.7656C 86.9922 13.4141 86.6992 13.082 86.2695 12.7695C 85.8398 12.444 85.2474 12.1445 84.4922 11.8711C 84.0625 11.8711 83.6133 11.9362 83.1445 12.0664C 82.6888 12.1836 82.2721 12.3659 81.8945 12.6133C 81.5169 12.8607 81.2044 13.1732 80.957 13.5508C 80.7096 13.9284 80.5859 14.3646 80.5859 14.8594ZM 89.5703 11.3828C 89.5703 11.2656 89.6094 11.194 89.6875 11.168C 89.7786 11.1289 89.8763 11.1094 89.9805 11.1094C 90.0586 11.1094 90.1107 11.1289 90.1367 11.168C 90.1758 11.207 90.2018 11.2526 90.2148 11.3047C 90.2279 11.3568 90.2474 11.4089 90.2734 11.4609C 90.2995 11.5 90.3451 11.5195 90.4102 11.5195C 90.5924 11.5195 90.8138 11.4479 91.0742 11.3047C 91.3346 11.1615 91.6146 11.0052 91.9141 10.8359C 92.2266 10.6667 92.5521 10.5104 92.8906 10.3672C 93.2422 10.224 93.5872 10.1523 93.9258 10.1523C 94.3685 10.1523 94.7721 10.2695 95.1367 10.5039C 95.5143 10.7253 95.8464 11.0247 96.1328 11.4023C 96.4323 11.7799 96.6862 12.2031 96.8945 12.6719C 97.1029 13.1406 97.2786 13.6224 97.4219 14.1172C 97.5651 14.599 97.6693 15.0742 97.7344 15.543C 97.7995 15.9987 97.832 16.3958 97.832 16.7344C 97.832 16.8516 97.819 17.0273 97.793 17.2617C 97.7799 17.4961 97.7474 17.7305 97.6953 17.9648C 97.6562 18.1992 97.5846 18.4076 97.4805 18.5898C 97.3763 18.7591 97.2461 18.8438 97.0898 18.8438C 97.0638 18.8438 97.0182 18.8438 96.9531 18.8438C 96.888 18.8307 96.8229 18.8177 96.7578 18.8047C 96.6927 18.7786 96.6341 18.7526 96.582 18.7266C 96.543 18.7005 96.5234 18.6615 96.5234 18.6094C 96.6406 17.6068 96.6406 16.6693 96.5234 15.7969C 96.4062 14.9115 96.2174 14.1367 95.957 13.4727C 95.6966 12.8086 95.3776 12.2812 95 11.8906C 94.6224 11.5 94.2188 11.3047 93.7891 11.3047C 93.3854 11.3047 93.0078 11.3698 92.6562 11.5C 92.3047 11.6302 91.9987 11.819 91.7383 12.0664C 91.4779 12.3138 91.2695 12.6133 91.1133 12.9648C 90.9701 13.3164 90.8984 13.7005 90.8984 14.1172C 90.8984 14.5339 90.9375 14.9505 91.0156 15.3672C 91.0938 15.7708 91.1784 16.181 91.2695 16.5977C 91.3737 17.0013 91.4648 17.4115 91.543 17.8281C 91.6211 18.2448 91.6602 18.6615 91.6602 19.0781C 91.2956 19.0781 90.9896 18.9284 90.7422 18.6289C 90.4948 18.3294 90.293 17.9453 90.1367 17.4766C 89.9935 17.0078 89.8763 16.4805 89.7852 15.8945C 89.707 15.3086 89.6484 14.7357 89.6094 14.1758C 89.5833 13.6029 89.5703 13.069 89.5703 12.5742C 89.5703 12.0664 89.5703 11.6693 89.5703 11.3828ZM 98.5352 16.6367C 98.6393 16.5586 98.7305 16.513 98.8086 16.5C 98.8997 16.474 98.9974 16.4609 99.1016 16.4609C 99.2188 16.4609 99.3359 16.4935 99.4531 16.5586C 99.5703 16.6107 99.6745 16.6823 99.7656 16.7734C 99.8698 16.8516 99.974 16.9297 100.078 17.0078C 100.182 17.0859 100.293 17.151 100.41 17.2031C 100.749 17.3464 101.016 17.4635 101.211 17.5547C 101.419 17.6458 101.608 17.7174 101.777 17.7695C 101.947 17.8216 102.142 17.8542 102.363 17.8672C 102.585 17.8802 102.871 17.8867 103.223 17.8867C 103.496 17.8867 103.828 17.8932 104.219 17.9062C 104.609 17.9062 104.98 17.8737 105.332 17.8086C 105.684 17.7305 105.983 17.6003 106.23 17.418C 106.478 17.2227 106.602 16.9297 106.602 16.5391C 106.615 16.1615 106.51 15.8685 106.289 15.6602C 106.081 15.4388 105.794 15.2695 105.43 15.1523C 105.065 15.0352 104.655 14.957 104.199 14.918C 103.743 14.8659 103.275 14.8138 102.793 14.7617C 102.311 14.7096 101.836 14.638 101.367 14.5469C 100.911 14.4427 100.501 14.2865 100.137 14.0781C 99.7721 13.8698 99.4792 13.5833 99.2578 13.2188C 99.0365 12.8542 98.9193 12.3854 98.9062 11.8125C 98.9844 11.3958 99.1862 11.0508 99.5117 10.7773C 99.8503 10.4909 100.247 10.276 100.703 10.1328C 101.172 9.97656 101.667 9.89844 102.188 9.89844C 102.708 9.88542 103.184 9.95052 103.613 10.0938C 104.056 10.224 104.421 10.4388 104.707 10.7383C 105.007 11.0378 105.163 11.4089 105.176 11.8516C 105.202 12.112 105.182 12.3268 105.117 12.4961C 105.052 12.6654 104.961 12.7956 104.844 12.8867C 104.74 12.9648 104.629 13.0039 104.512 13.0039C 104.395 12.9909 104.303 12.9453 104.238 12.8672C 104.173 12.776 104.141 12.6523 104.141 12.4961C 104.154 12.3268 104.232 12.1185 104.375 11.8711C 104.323 11.6237 104.173 11.4284 103.926 11.2852C 103.678 11.1419 103.392 11.0443 103.066 10.9922C 102.741 10.9271 102.389 10.9141 102.012 10.9531C 101.647 10.9792 101.309 11.0443 100.996 11.1484C 100.697 11.2526 100.449 11.3893 100.254 11.5586C 100.072 11.7279 99.9935 11.9232 100.02 12.1445C 100.02 12.5352 100.13 12.8411 100.352 13.0625C 100.586 13.2708 100.885 13.4336 101.25 13.5508C 101.615 13.668 102.031 13.7526 102.5 13.8047C 102.982 13.8568 103.47 13.9089 103.965 13.9609C 104.473 14 104.961 14.0651 105.43 14.1562C 105.898 14.2344 106.322 14.3711 106.699 14.5664C 107.077 14.7617 107.376 15.0286 107.598 15.3672C 107.819 15.6927 107.93 16.1224 107.93 16.6562C 107.93 17.0599 107.826 17.4115 107.617 17.7109C 107.409 17.9974 107.142 18.2383 106.816 18.4336C 106.504 18.6289 106.159 18.7721 105.781 18.8633C 105.404 18.9544 105.046 19 104.707 19C 104.368 19 104.004 19 103.613 19C 103.236 18.987 102.845 18.9609 102.441 18.9219C 102.051 18.8828 101.654 18.8242 101.25 18.7461C 100.846 18.6549 100.469 18.5247 100.117 18.3555C 99.7786 18.1732 99.4727 17.9453 99.1992 17.6719C 98.9258 17.3984 98.7044 17.0534 98.5352 16.6367ZM 109.727 12.2422C 109.727 12.1901 109.727 12.0924 109.727 11.9492C 109.727 11.806 109.727 11.6562 109.727 11.5C 109.74 11.3438 109.746 11.194 109.746 11.0508C 109.746 10.9076 109.746 10.8099 109.746 10.7578C 109.694 10.3542 109.811 10.1523 110.098 10.1523C 110.228 10.1523 110.339 10.1849 110.43 10.25C 110.521 10.3151 110.605 10.4128 110.684 10.543C 110.645 11.2201 110.671 11.8776 110.762 12.5156C 110.866 13.1406 110.977 13.7656 111.094 14.3906C 111.224 15.0026 111.341 15.6211 111.445 16.2461C 111.562 16.8711 111.621 17.5221 111.621 18.1992C 111.621 18.3815 111.562 18.5638 111.445 18.7461C 111.341 18.9284 111.178 19.0195 110.957 19.0195C 110.788 19.0195 110.638 18.8763 110.508 18.5898C 110.391 18.2904 110.286 17.9193 110.195 17.4766C 110.104 17.0208 110.026 16.5195 109.961 15.9727C 109.896 15.4258 109.844 14.9049 109.805 14.4102C 109.779 13.9023 109.759 13.4531 109.746 13.0625C 109.733 12.6589 109.727 12.3854 109.727 12.2422ZM 108.73 7.33984C 108.73 7.18359 108.776 7.08594 108.867 7.04688C 108.958 6.99479 109.076 6.96875 109.219 6.96875C 109.31 6.95573 109.427 7.01432 109.57 7.14453C 109.727 7.26172 109.85 7.39844 109.941 7.55469C 110.046 7.71094 110.104 7.85417 110.117 7.98438C 110.13 8.14062 110.033 8.23177 109.824 8.25781L 109.727 8.25781C 109.531 8.25781 109.368 8.24479 109.238 8.21875C 109.108 8.19271 109.004 8.15365 108.926 8.10156C 108.861 8.03646 108.809 7.94531 108.77 7.82812C 108.743 7.71094 108.73 7.54818 108.73 7.33984ZM 112.188 12.0469C 112.201 12.0078 112.22 11.9622 112.246 11.9102C 112.272 11.8451 112.305 11.7799 112.344 11.7148C 112.396 11.6497 112.441 11.5977 112.48 11.5586C 112.533 11.5065 112.591 11.4805 112.656 11.4805C 112.669 11.4805 112.676 11.487 112.676 11.5C 112.676 11.5 112.689 11.5 112.715 11.5L 112.754 11.5C 113.053 11.6432 113.301 11.8516 113.496 12.125C 113.691 12.3854 113.861 12.6849 114.004 13.0234C 114.16 13.362 114.303 13.7266 114.434 14.1172C 114.564 14.4948 114.707 14.8724 114.863 15.25C 115.033 15.6146 115.228 15.9727 115.449 16.3242C 115.671 16.6758 115.951 16.9883 116.289 17.2617C 116.406 16.8711 116.523 16.4935 116.641 16.1289C 116.758 15.7513 116.888 15.3737 117.031 14.9961C 117.188 14.6185 117.363 14.2279 117.559 13.8242C 117.767 13.4206 118.001 12.9844 118.262 12.5156C 118.574 12.3854 118.822 12.3073 119.004 12.2812C 119.199 12.2552 119.336 12.2812 119.414 12.3594C 119.492 12.4245 119.505 12.5286 119.453 12.6719C 119.401 12.8151 119.29 12.9844 119.121 13.1797C 119.017 13.2708 118.893 13.4792 118.75 13.8047C 118.62 14.1302 118.477 14.5143 118.32 14.957C 118.164 15.3997 117.995 15.862 117.812 16.3438C 117.643 16.8255 117.467 17.2682 117.285 17.6719C 117.103 18.0625 116.921 18.388 116.738 18.6484C 116.569 18.9089 116.4 19.0326 116.23 19.0195C 116.048 19.0195 115.84 18.8828 115.605 18.6094C 115.384 18.3229 115.143 17.9583 114.883 17.5156C 114.622 17.0729 114.362 16.5911 114.102 16.0703C 113.841 15.5365 113.587 15.0091 113.34 14.4883C 113.105 13.9674 112.884 13.4922 112.676 13.0625C 112.48 12.6198 112.318 12.2812 112.188 12.0469ZM 120.156 13.7656C 120.156 13.0885 120.254 12.444 120.449 11.832C 120.658 11.207 120.951 10.6602 121.328 10.1914C 121.719 9.72266 122.188 9.35156 122.734 9.07812C 123.294 8.79167 123.939 8.64844 124.668 8.64844C 125.098 8.70052 125.469 8.81771 125.781 9C 126.107 9.18229 126.367 9.41016 126.562 9.68359C 126.771 9.94401 126.921 10.25 127.012 10.6016C 127.09 10.9401 127.129 11.3047 127.129 11.6953C 127.129 12.1641 126.992 12.5872 126.719 12.9648C 126.445 13.3424 126.1 13.6615 125.684 13.9219C 125.267 14.1693 124.818 14.3646 124.336 14.5078C 123.854 14.638 123.405 14.7031 122.988 14.7031C 122.832 14.7031 122.669 14.7031 122.5 14.7031C 122.344 14.7031 122.201 14.6771 122.07 14.625C 121.94 14.5729 121.836 14.4948 121.758 14.3906C 121.68 14.2865 121.641 14.1302 121.641 13.9219C 121.641 13.8568 121.647 13.8047 121.66 13.7656C 121.686 13.7135 121.745 13.681 121.836 13.668C 121.927 13.6419 122.064 13.6354 122.246 13.6484C 122.428 13.6745 122.676 13.7135 122.988 13.7656C 123.171 13.7656 123.431 13.707 123.77 13.5898C 124.121 13.4596 124.473 13.2969 124.824 13.1016C 125.189 12.9062 125.501 12.6849 125.762 12.4375C 126.022 12.1771 126.152 11.9232 126.152 11.6758C 126.152 11.4154 126.107 11.1615 126.016 10.9141C 125.938 10.6536 125.814 10.4258 125.645 10.2305C 125.475 10.0352 125.273 9.87891 125.039 9.76172C 124.818 9.64453 124.564 9.59896 124.277 9.625C 123.822 9.66406 123.405 9.78776 123.027 9.99609C 122.663 10.2044 122.35 10.4779 122.09 10.8164C 121.829 11.1419 121.628 11.5065 121.484 11.9102C 121.341 12.3138 121.27 12.737 121.27 13.1797C 121.27 13.5182 121.276 13.8568 121.289 14.1953C 121.302 14.5339 121.348 14.8659 121.426 15.1914C 121.517 15.5169 121.654 15.8294 121.836 16.1289C 122.031 16.4284 122.305 16.6953 122.656 16.9297C 123.021 17.151 123.477 17.3398 124.023 17.4961C 124.57 17.6393 125.247 17.7305 126.055 17.7695L 129.551 17.5352C 129.342 17.8216 129.076 18.056 128.75 18.2383C 128.438 18.4206 128.099 18.5703 127.734 18.6875C 127.383 18.7917 127.031 18.8698 126.68 18.9219C 126.328 18.974 125.996 19 125.684 19C 124.928 19 124.219 18.8763 123.555 18.6289C 122.891 18.3815 122.305 18.0365 121.797 17.5938C 121.289 17.138 120.885 16.5911 120.586 15.9531C 120.299 15.3021 120.156 14.5729 120.156 13.7656ZM 137.969 13.5898C 137.969 13.069 138.053 12.5286 138.223 11.9688C 138.392 11.3958 138.626 10.8294 138.926 10.2695C 139.225 9.70964 139.577 9.17578 139.98 8.66797C 140.397 8.16016 140.853 7.71094 141.348 7.32031C 141.842 6.92969 142.363 6.61719 142.91 6.38281C 143.457 6.16146 144.004 6.05078 144.551 6.05078C 144.863 6.05078 145.098 6.16797 145.254 6.40234C 145.41 6.63672 145.488 6.89714 145.488 7.18359C 145.488 7.35286 145.456 7.54818 145.391 7.76953C 145.326 7.99089 145.228 8.21224 145.098 8.43359C 144.967 8.64193 144.818 8.82422 144.648 8.98047C 144.492 9.1237 144.316 9.19531 144.121 9.19531C 144.121 9.0651 144.141 8.94141 144.18 8.82422C 144.219 8.69401 144.271 8.57682 144.336 8.47266C 144.401 8.35547 144.453 8.23828 144.492 8.12109C 144.531 8.00391 144.551 7.8737 144.551 7.73047C 144.551 7.54818 144.473 7.44401 144.316 7.41797C 144.173 7.37891 144.03 7.35938 143.887 7.35938C 143.861 7.35938 143.809 7.35938 143.73 7.35938C 143.678 7.35938 143.639 7.35938 143.613 7.35938C 143.014 7.59375 142.428 7.90625 141.855 8.29688C 141.283 8.67448 140.775 9.11719 140.332 9.625C 139.889 10.1198 139.538 10.6732 139.277 11.2852C 139.017 11.8841 138.887 12.5286 138.887 13.2188C 138.887 13.6615 138.926 14.1497 139.004 14.6836C 139.095 15.2044 139.245 15.6927 139.453 16.1484C 139.661 16.5911 139.941 16.9622 140.293 17.2617C 140.658 17.5612 141.107 17.7109 141.641 17.7109C 142.083 17.7109 142.52 17.6719 142.949 17.5938C 143.392 17.5026 143.828 17.4115 144.258 17.3203C 144.701 17.2161 145.137 17.125 145.566 17.0469C 146.009 16.9688 146.452 16.9297 146.895 16.9297C 146.999 16.9297 147.103 16.9427 147.207 16.9688C 147.311 16.9948 147.363 17.0729 147.363 17.2031C 147.363 17.2682 147.324 17.3529 147.246 17.457C 147.168 17.5482 147.07 17.6393 146.953 17.7305C 146.836 17.8216 146.725 17.8932 146.621 17.9453C 146.517 17.9974 146.452 18.0299 146.426 18.043L 141.914 19C 141.888 19 141.829 19 141.738 19C 141.66 19.013 141.595 19.0195 141.543 19.0195C 141.113 19.0195 140.723 18.9349 140.371 18.7656C 140.033 18.5833 139.727 18.3555 139.453 18.082C 139.193 17.7956 138.965 17.4701 138.77 17.1055C 138.587 16.7279 138.431 16.3372 138.301 15.9336C 138.184 15.5299 138.099 15.1263 138.047 14.7227C 137.995 14.319 137.969 13.9414 137.969 13.5898ZM 154.082 8.14062C 153.171 8.14062 152.227 8.08203 151.25 7.96484C 150.286 7.83464 149.362 7.69792 148.477 7.55469C 148.359 7.58073 148.268 7.56771 148.203 7.51562C 148.138 7.45052 148.086 7.3724 148.047 7.28125C 148.008 7.17708 147.982 7.07943 147.969 6.98828C 147.969 6.89714 147.969 6.82552 147.969 6.77344C 148.164 6.77344 148.503 6.77344 148.984 6.77344C 149.466 6.77344 150.033 6.77995 150.684 6.79297C 151.348 6.80599 152.064 6.82552 152.832 6.85156C 153.613 6.8776 154.395 6.91667 155.176 6.96875C 155.957 7.02083 156.712 7.08594 157.441 7.16406C 158.171 7.22917 158.815 7.32031 159.375 7.4375C 159.948 7.54167 160.397 7.66536 160.723 7.80859C 161.061 7.95182 161.23 8.11458 161.23 8.29688C 161.23 8.42708 161.211 8.55729 161.172 8.6875C 161.133 8.81771 161.035 8.88281 160.879 8.88281C 160.397 8.85677 159.922 8.78516 159.453 8.66797C 158.984 8.55078 158.516 8.4401 158.047 8.33594C 157.578 8.21875 157.096 8.14062 156.602 8.10156C 156.12 8.04948 155.625 8.10156 155.117 8.25781C 155.117 8.85677 155.15 9.51432 155.215 10.2305C 155.293 10.9466 155.378 11.6758 155.469 12.418C 155.573 13.1602 155.684 13.9023 155.801 14.6445C 155.931 15.3867 156.055 16.0833 156.172 16.7344C 156.198 16.9036 156.25 17.0729 156.328 17.2422C 156.419 17.3984 156.51 17.5547 156.602 17.7109C 156.693 17.8542 156.771 18.0039 156.836 18.1602C 156.901 18.3164 156.934 18.4727 156.934 18.6289C 156.934 18.7331 156.901 18.8177 156.836 18.8828C 156.771 18.9349 156.693 18.974 156.602 19C 156.51 19.013 156.413 19.0195 156.309 19.0195C 156.204 19.0195 156.12 19.0195 156.055 19.0195C 155.794 19.0195 155.586 18.9154 155.43 18.707C 155.286 18.4987 155.176 18.2578 155.098 17.9844C 155.02 17.6979 154.967 17.4049 154.941 17.1055C 154.915 16.806 154.889 16.5651 154.863 16.3828C 154.759 15.6667 154.668 14.9766 154.59 14.3125C 154.512 13.6354 154.44 12.9648 154.375 12.3008C 154.323 11.6237 154.271 10.9466 154.219 10.2695C 154.18 9.57943 154.134 8.86979 154.082 8.14062ZM 168.711 18.5508C 168.711 18.3294 168.73 18.1081 168.77 17.8867C 168.809 17.6523 168.854 17.4245 168.906 17.2031C 168.958 16.9688 169.004 16.7344 169.043 16.5C 169.082 16.2656 169.102 16.0312 169.102 15.7969C 169.102 15.4323 169.089 15.0417 169.062 14.625C 169.036 14.2083 168.971 13.8112 168.867 13.4336C 168.503 13.5117 168.125 13.5443 167.734 13.5312C 167.357 13.5052 166.973 13.4661 166.582 13.4141C 166.204 13.362 165.82 13.3099 165.43 13.2578C 165.039 13.2057 164.648 13.1797 164.258 13.1797C 164.141 13.1797 163.952 13.1797 163.691 13.1797C 163.444 13.1797 163.184 13.1862 162.91 13.1992C 162.65 13.2122 162.409 13.2318 162.188 13.2578C 161.979 13.2839 161.849 13.3229 161.797 13.375L 161.602 13.5508C 161.602 13.5638 161.595 13.5964 161.582 13.6484C 161.582 13.6875 161.582 13.7396 161.582 13.8047C 161.582 13.8698 161.576 13.9349 161.562 14C 161.562 14.0651 161.562 14.1172 161.562 14.1562C 161.562 14.5339 161.589 14.918 161.641 15.3086C 161.706 15.6862 161.771 16.0573 161.836 16.4219C 161.914 16.7865 161.986 17.151 162.051 17.5156C 162.116 17.8802 162.148 18.2448 162.148 18.6094L 162.148 18.8047C 161.953 18.987 161.777 19.0521 161.621 19C 161.465 18.9349 161.322 18.7917 161.191 18.5703C 161.074 18.3359 160.97 18.043 160.879 17.6914C 160.801 17.3268 160.736 16.9362 160.684 16.5195C 160.645 16.0898 160.618 15.6536 160.605 15.2109C 160.605 14.7682 160.625 14.3385 160.664 13.9219C 160.638 13.8958 160.586 13.8438 160.508 13.7656C 160.43 13.6745 160.352 13.5833 160.273 13.4922C 160.195 13.388 160.117 13.2904 160.039 13.1992C 159.987 13.1081 159.948 13.0365 159.922 12.9844L 159.902 12.9453L 159.902 12.9062C 159.902 12.8151 159.922 12.75 159.961 12.7109C 160.013 12.6719 160.072 12.6458 160.137 12.6328C 160.202 12.6068 160.267 12.5807 160.332 12.5547C 160.397 12.5286 160.449 12.4831 160.488 12.418C 160.488 12.4049 160.488 12.3724 160.488 12.3203C 160.488 12.2682 160.488 12.2161 160.488 12.1641C 160.488 12.099 160.488 12.0404 160.488 11.9883C 160.488 11.9492 160.488 11.9167 160.488 11.8906C 160.54 11.3438 160.579 10.7643 160.605 10.1523C 160.645 9.52734 160.703 8.92188 160.781 8.33594C 160.872 7.73698 161.003 7.16406 161.172 6.61719C 161.354 6.07031 161.602 5.58854 161.914 5.17188C 162.227 4.75521 162.624 4.42318 163.105 4.17578C 163.587 3.92839 164.193 3.80469 164.922 3.80469C 165.495 3.80469 166.009 3.94141 166.465 4.21484C 166.934 4.48828 167.344 4.85938 167.695 5.32812C 168.06 5.78385 168.372 6.31771 168.633 6.92969C 168.906 7.52865 169.134 8.16667 169.316 8.84375C 169.499 9.52083 169.648 10.2044 169.766 10.8945C 169.896 11.5846 169.993 12.2422 170.059 12.8672C 170.124 13.4922 170.169 14.0651 170.195 14.5859C 170.221 15.1068 170.234 15.5365 170.234 15.875C 170.234 16.1224 170.234 16.3438 170.234 16.5391C 170.234 16.7344 170.221 16.9297 170.195 17.125C 170.182 17.3073 170.163 17.5026 170.137 17.7109C 170.124 17.9193 170.091 18.1602 170.039 18.4336C 169.935 18.5768 169.798 18.7135 169.629 18.8438C 169.473 18.9609 169.297 19.0195 169.102 19.0195C 168.932 19.0195 168.822 18.9805 168.77 18.9023C 168.73 18.8112 168.711 18.694 168.711 18.5508ZM 168.242 12.6328C 168.281 12.6328 168.327 12.6328 168.379 12.6328C 168.444 12.6198 168.496 12.5872 168.535 12.5352C 168.574 12.4701 168.613 12.3724 168.652 12.2422C 168.691 12.112 168.724 11.9297 168.75 11.6953C 168.75 11.3177 168.711 10.888 168.633 10.4062C 168.568 9.91146 168.464 9.40365 168.32 8.88281C 168.177 8.36198 167.988 7.85417 167.754 7.35938C 167.533 6.86458 167.266 6.42188 166.953 6.03125C 166.641 5.64062 166.276 5.32812 165.859 5.09375C 165.456 4.85938 165 4.74219 164.492 4.74219C 163.958 4.74219 163.509 4.88542 163.145 5.17188C 162.78 5.44531 162.48 5.8099 162.246 6.26562C 162.025 6.70833 161.849 7.20964 161.719 7.76953C 161.602 8.32943 161.517 8.88932 161.465 9.44922C 161.413 10.0091 161.38 10.5365 161.367 11.0312C 161.367 11.526 161.367 11.9297 161.367 12.2422L 168.242 12.6328ZM 171.113 16.6367C 171.217 16.5586 171.309 16.513 171.387 16.5C 171.478 16.474 171.576 16.4609 171.68 16.4609C 171.797 16.4609 171.914 16.4935 172.031 16.5586C 172.148 16.6107 172.253 16.6823 172.344 16.7734C 172.448 16.8516 172.552 16.9297 172.656 17.0078C 172.76 17.0859 172.871 17.151 172.988 17.2031C 173.327 17.3464 173.594 17.4635 173.789 17.5547C 173.997 17.6458 174.186 17.7174 174.355 17.7695C 174.525 17.8216 174.72 17.8542 174.941 17.8672C 175.163 17.8802 175.449 17.8867 175.801 17.8867C 176.074 17.8867 176.406 17.8932 176.797 17.9062C 177.188 17.9062 177.559 17.8737 177.91 17.8086C 178.262 17.7305 178.561 17.6003 178.809 17.418C 179.056 17.2227 179.18 16.9297 179.18 16.5391C 179.193 16.1615 179.089 15.8685 178.867 15.6602C 178.659 15.4388 178.372 15.2695 178.008 15.1523C 177.643 15.0352 177.233 14.957 176.777 14.918C 176.322 14.8659 175.853 14.8138 175.371 14.7617C 174.889 14.7096 174.414 14.638 173.945 14.5469C 173.49 14.4427 173.079 14.2865 172.715 14.0781C 172.35 13.8698 172.057 13.5833 171.836 13.2188C 171.615 12.8542 171.497 12.3854 171.484 11.8125C 171.562 11.3958 171.764 11.0508 172.09 10.7773C 172.428 10.4909 172.826 10.276 173.281 10.1328C 173.75 9.97656 174.245 9.89844 174.766 9.89844C 175.286 9.88542 175.762 9.95052 176.191 10.0938C 176.634 10.224 176.999 10.4388 177.285 10.7383C 177.585 11.0378 177.741 11.4089 177.754 11.8516C 177.78 12.112 177.76 12.3268 177.695 12.4961C 177.63 12.6654 177.539 12.7956 177.422 12.8867C 177.318 12.9648 177.207 13.0039 177.09 13.0039C 176.973 12.9909 176.882 12.9453 176.816 12.8672C 176.751 12.776 176.719 12.6523 176.719 12.4961C 176.732 12.3268 176.81 12.1185 176.953 11.8711C 176.901 11.6237 176.751 11.4284 176.504 11.2852C 176.257 11.1419 175.97 11.0443 175.645 10.9922C 175.319 10.9271 174.967 10.9141 174.59 10.9531C 174.225 10.9792 173.887 11.0443 173.574 11.1484C 173.275 11.2526 173.027 11.3893 172.832 11.5586C 172.65 11.7279 172.572 11.9232 172.598 12.1445C 172.598 12.5352 172.708 12.8411 172.93 13.0625C 173.164 13.2708 173.464 13.4336 173.828 13.5508C 174.193 13.668 174.609 13.7526 175.078 13.8047C 175.56 13.8568 176.048 13.9089 176.543 13.9609C 177.051 14 177.539 14.0651 178.008 14.1562C 178.477 14.2344 178.9 14.3711 179.277 14.5664C 179.655 14.7617 179.954 15.0286 180.176 15.3672C 180.397 15.6927 180.508 16.1224 180.508 16.6562C 180.508 17.0599 180.404 17.4115 180.195 17.7109C 179.987 17.9974 179.72 18.2383 179.395 18.4336C 179.082 18.6289 178.737 18.7721 178.359 18.8633C 177.982 18.9544 177.624 19 177.285 19C 176.947 19 176.582 19 176.191 19C 175.814 18.987 175.423 18.9609 175.02 18.9219C 174.629 18.8828 174.232 18.8242 173.828 18.7461C 173.424 18.6549 173.047 18.5247 172.695 18.3555C 172.357 18.1732 172.051 17.9453 171.777 17.6719C 171.504 17.3984 171.283 17.0534 171.113 16.6367ZM 189.375 18.8438C 189.245 17.9193 189.16 17.0013 189.121 16.0898C 189.095 15.1654 189.082 14.2409 189.082 13.3164C 189.082 12.3919 189.095 11.474 189.121 10.5625C 189.147 9.65104 189.154 8.73958 189.141 7.82812C 189.141 7.72396 189.18 7.65234 189.258 7.61328C 189.336 7.57422 189.427 7.55469 189.531 7.55469C 189.648 7.55469 189.753 7.60026 189.844 7.69141C 189.935 7.76953 190.013 7.8737 190.078 8.00391C 190.143 8.12109 190.189 8.24479 190.215 8.375C 190.254 8.49219 190.273 8.58984 190.273 8.66797C 190.352 10.5299 190.404 12.0859 190.43 13.3359C 190.456 14.5729 190.456 15.5755 190.43 16.3438C 190.404 17.099 190.358 17.6589 190.293 18.0234C 190.241 18.388 190.169 18.6354 190.078 18.7656C 189.987 18.8958 189.876 18.9479 189.746 18.9219C 189.629 18.8958 189.505 18.8698 189.375 18.8438ZM 191.348 15.0156C 191.348 14.2995 191.504 13.6745 191.816 13.1406C 192.129 12.6068 192.539 12.1576 193.047 11.793C 193.555 11.4284 194.121 11.1615 194.746 10.9922C 195.384 10.8099 196.022 10.7188 196.66 10.7188C 196.999 10.7188 197.311 10.7839 197.598 10.9141C 197.897 11.0312 198.177 11.2005 198.438 11.4219C 198.711 11.6302 198.952 11.8776 199.16 12.1641C 199.368 12.4375 199.544 12.724 199.688 13.0234C 199.844 13.3229 199.961 13.6289 200.039 13.9414C 200.117 14.2409 200.156 14.5339 200.156 14.8203C 200.156 15.4844 200.026 16.0768 199.766 16.5977C 199.505 17.1185 199.154 17.5612 198.711 17.9258C 198.268 18.2773 197.767 18.5508 197.207 18.7461C 196.647 18.9284 196.074 19.0195 195.488 19.0195C 194.889 19.0195 194.336 18.9284 193.828 18.7461C 193.333 18.5508 192.897 18.2839 192.52 17.9453C 192.155 17.6068 191.868 17.1901 191.66 16.6953C 191.452 16.1875 191.348 15.6276 191.348 15.0156ZM 192.305 14.8594C 192.305 15.263 192.376 15.6536 192.52 16.0312C 192.676 16.3958 192.884 16.7148 193.145 16.9883C 193.418 17.2617 193.737 17.4831 194.102 17.6523C 194.466 17.8086 194.857 17.8867 195.273 17.8867C 195.495 17.9128 195.762 17.8802 196.074 17.7891C 196.4 17.6849 196.719 17.5417 197.031 17.3594C 197.357 17.1641 197.663 16.9362 197.949 16.6758C 198.249 16.4023 198.496 16.1094 198.691 15.7969C 198.887 15.4714 199.004 15.1393 199.043 14.8008C 199.095 14.4492 199.036 14.1042 198.867 13.7656C 198.711 13.4141 198.418 13.082 197.988 12.7695C 197.559 12.444 196.966 12.1445 196.211 11.8711C 195.781 11.8711 195.332 11.9362 194.863 12.0664C 194.408 12.1836 193.991 12.3659 193.613 12.6133C 193.236 12.8607 192.923 13.1732 192.676 13.5508C 192.428 13.9284 192.305 14.3646 192.305 14.8594ZM 201.094 15.0156C 201.094 14.2995 201.25 13.6745 201.562 13.1406C 201.875 12.6068 202.285 12.1576 202.793 11.793C 203.301 11.4284 203.867 11.1615 204.492 10.9922C 205.13 10.8099 205.768 10.7188 206.406 10.7188C 206.745 10.7188 207.057 10.7839 207.344 10.9141C 207.643 11.0312 207.923 11.2005 208.184 11.4219C 208.457 11.6302 208.698 11.8776 208.906 12.1641C 209.115 12.4375 209.29 12.724 209.434 13.0234C 209.59 13.3229 209.707 13.6289 209.785 13.9414C 209.863 14.2409 209.902 14.5339 209.902 14.8203C 209.902 15.4844 209.772 16.0768 209.512 16.5977C 209.251 17.1185 208.9 17.5612 208.457 17.9258C 208.014 18.2773 207.513 18.5508 206.953 18.7461C 206.393 18.9284 205.82 19.0195 205.234 19.0195C 204.635 19.0195 204.082 18.9284 203.574 18.7461C 203.079 18.5508 202.643 18.2839 202.266 17.9453C 201.901 17.6068 201.615 17.1901 201.406 16.6953C 201.198 16.1875 201.094 15.6276 201.094 15.0156ZM 202.051 14.8594C 202.051 15.263 202.122 15.6536 202.266 16.0312C 202.422 16.3958 202.63 16.7148 202.891 16.9883C 203.164 17.2617 203.483 17.4831 203.848 17.6523C 204.212 17.8086 204.603 17.8867 205.02 17.8867C 205.241 17.9128 205.508 17.8802 205.82 17.7891C 206.146 17.6849 206.465 17.5417 206.777 17.3594C 207.103 17.1641 207.409 16.9362 207.695 16.6758C 207.995 16.4023 208.242 16.1094 208.438 15.7969C 208.633 15.4714 208.75 15.1393 208.789 14.8008C 208.841 14.4492 208.783 14.1042 208.613 13.7656C 208.457 13.4141 208.164 13.082 207.734 12.7695C 207.305 12.444 206.712 12.1445 205.957 11.8711C 205.527 11.8711 205.078 11.9362 204.609 12.0664C 204.154 12.1836 203.737 12.3659 203.359 12.6133C 202.982 12.8607 202.669 13.1732 202.422 13.5508C 202.174 13.9284 202.051 14.3646 202.051 14.8594ZM 211.445 18.4336C 211.445 18.4076 211.452 18.3424 211.465 18.2383C 211.478 18.1211 211.497 17.9974 211.523 17.8672C 211.549 17.737 211.569 17.6198 211.582 17.5156C 211.595 17.3984 211.602 17.3268 211.602 17.3008C 211.602 17.2747 211.602 17.2096 211.602 17.1055C 211.602 16.9883 211.602 16.8581 211.602 16.7148C 211.615 16.5716 211.621 16.4219 211.621 16.2656C 211.621 16.1094 211.621 15.9922 211.621 15.9141C 211.621 15.8359 211.621 15.7318 211.621 15.6016C 211.621 15.4714 211.615 15.3411 211.602 15.2109C 211.602 15.0677 211.602 14.9505 211.602 14.8594C 211.602 14.7552 211.602 14.6966 211.602 14.6836C 211.562 14.0846 211.484 13.4531 211.367 12.7891C 211.263 12.112 211.146 11.4414 211.016 10.7773C 210.898 10.1133 210.781 9.46224 210.664 8.82422C 210.56 8.1862 210.482 7.60026 210.43 7.06641C 210.547 6.75391 210.671 6.64974 210.801 6.75391C 210.944 6.84505 211.087 7.07292 211.23 7.4375C 211.374 7.80208 211.517 8.25781 211.66 8.80469C 211.803 9.33854 211.927 9.88542 212.031 10.4453C 212.148 11.0052 212.253 11.5326 212.344 12.0273C 212.422 12.5221 212.487 12.9062 212.539 13.1797C 212.565 13.2057 212.611 13.2188 212.676 13.2188C 212.754 13.2188 212.806 13.2188 212.832 13.2188C 213.092 13.2188 213.32 13.1406 213.516 12.9844C 213.711 12.8281 213.893 12.6328 214.062 12.3984C 214.245 12.151 214.421 11.8906 214.59 11.6172C 214.759 11.3307 214.935 11.0703 215.117 10.8359C 215.299 10.6016 215.501 10.4062 215.723 10.25C 215.944 10.0807 216.198 9.99609 216.484 9.99609C 216.667 9.99609 216.777 10.0547 216.816 10.1719C 216.855 10.276 216.868 10.3997 216.855 10.543C 216.673 10.6862 216.465 10.875 216.23 11.1094C 215.996 11.3438 215.742 11.5977 215.469 11.8711C 215.208 12.1445 214.941 12.431 214.668 12.7305C 214.408 13.0299 214.173 13.3229 213.965 13.6094C 213.77 13.8828 213.6 14.1497 213.457 14.4102C 213.327 14.6706 213.262 14.8984 213.262 15.0938C 213.262 15.3802 213.353 15.6406 213.535 15.875C 213.73 16.1094 213.971 16.3242 214.258 16.5195C 214.557 16.7148 214.889 16.8841 215.254 17.0273C 215.618 17.1576 215.983 17.2747 216.348 17.3789C 216.712 17.4701 217.057 17.5417 217.383 17.5938C 217.695 17.6458 217.956 17.6719 218.164 17.6719C 218.281 17.6979 218.346 17.763 218.359 17.8672C 218.372 17.9714 218.379 18.069 218.379 18.1602C 218.379 18.3555 218.314 18.4987 218.184 18.5898C 218.066 18.681 217.917 18.7461 217.734 18.7852C 217.565 18.8242 217.383 18.8438 217.188 18.8438C 217.005 18.8438 216.849 18.8438 216.719 18.8438C 216.432 18.8438 216.1 18.7526 215.723 18.5703C 215.358 18.388 215 18.1927 214.648 17.9844C 214.31 17.763 214.01 17.5612 213.75 17.3789C 213.49 17.1966 213.307 17.1055 213.203 17.1055C 212.995 17.1055 212.852 17.2096 212.773 17.418C 212.708 17.6133 212.663 17.8281 212.637 18.0625C 212.611 18.2969 212.565 18.5182 212.5 18.7266C 212.448 18.9219 212.324 19.0195 212.129 19.0195C 211.96 19.0195 211.803 18.974 211.66 18.8828C 211.517 18.7917 211.445 18.6419 211.445 18.4336ZM 226.836 18.8438C 226.706 17.9193 226.621 17.0013 226.582 16.0898C 226.556 15.1654 226.543 14.2409 226.543 13.3164C 226.543 12.3919 226.556 11.474 226.582 10.5625C 226.608 9.65104 226.615 8.73958 226.602 7.82812C 226.602 7.72396 226.641 7.65234 226.719 7.61328C 226.797 7.57422 226.888 7.55469 226.992 7.55469C 227.109 7.55469 227.214 7.60026 227.305 7.69141C 227.396 7.76953 227.474 7.8737 227.539 8.00391C 227.604 8.12109 227.65 8.24479 227.676 8.375C 227.715 8.49219 227.734 8.58984 227.734 8.66797C 227.812 10.5299 227.865 12.0859 227.891 13.3359C 227.917 14.5729 227.917 15.5755 227.891 16.3438C 227.865 17.099 227.819 17.6589 227.754 18.0234C 227.702 18.388 227.63 18.6354 227.539 18.7656C 227.448 18.8958 227.337 18.9479 227.207 18.9219C 227.09 18.8958 226.966 18.8698 226.836 18.8438ZM 229.668 12.2422C 229.668 12.1901 229.668 12.0924 229.668 11.9492C 229.668 11.806 229.668 11.6562 229.668 11.5C 229.681 11.3438 229.688 11.194 229.688 11.0508C 229.688 10.9076 229.688 10.8099 229.688 10.7578C 229.635 10.3542 229.753 10.1523 230.039 10.1523C 230.169 10.1523 230.28 10.1849 230.371 10.25C 230.462 10.3151 230.547 10.4128 230.625 10.543C 230.586 11.2201 230.612 11.8776 230.703 12.5156C 230.807 13.1406 230.918 13.7656 231.035 14.3906C 231.165 15.0026 231.283 15.6211 231.387 16.2461C 231.504 16.8711 231.562 17.5221 231.562 18.1992C 231.562 18.3815 231.504 18.5638 231.387 18.7461C 231.283 18.9284 231.12 19.0195 230.898 19.0195C 230.729 19.0195 230.579 18.8763 230.449 18.5898C 230.332 18.2904 230.228 17.9193 230.137 17.4766C 230.046 17.0208 229.967 16.5195 229.902 15.9727C 229.837 15.4258 229.785 14.9049 229.746 14.4102C 229.72 13.9023 229.701 13.4531 229.688 13.0625C 229.674 12.6589 229.668 12.3854 229.668 12.2422ZM 228.672 7.33984C 228.672 7.18359 228.717 7.08594 228.809 7.04688C 228.9 6.99479 229.017 6.96875 229.16 6.96875C 229.251 6.95573 229.368 7.01432 229.512 7.14453C 229.668 7.26172 229.792 7.39844 229.883 7.55469C 229.987 7.71094 230.046 7.85417 230.059 7.98438C 230.072 8.14062 229.974 8.23177 229.766 8.25781L 229.668 8.25781C 229.473 8.25781 229.31 8.24479 229.18 8.21875C 229.049 8.19271 228.945 8.15365 228.867 8.10156C 228.802 8.03646 228.75 7.94531 228.711 7.82812C 228.685 7.71094 228.672 7.54818 228.672 7.33984ZM 232.91 18.4336C 232.91 18.4076 232.917 18.3424 232.93 18.2383C 232.943 18.1211 232.962 17.9974 232.988 17.8672C 233.014 17.737 233.034 17.6198 233.047 17.5156C 233.06 17.3984 233.066 17.3268 233.066 17.3008C 233.066 17.2747 233.066 17.2096 233.066 17.1055C 233.066 16.9883 233.066 16.8581 233.066 16.7148C 233.079 16.5716 233.086 16.4219 233.086 16.2656C 233.086 16.1094 233.086 15.9922 233.086 15.9141C 233.086 15.8359 233.086 15.7318 233.086 15.6016C 233.086 15.4714 233.079 15.3411 233.066 15.2109C 233.066 15.0677 233.066 14.9505 233.066 14.8594C 233.066 14.7552 233.066 14.6966 233.066 14.6836C 233.027 14.0846 232.949 13.4531 232.832 12.7891C 232.728 12.112 232.611 11.4414 232.48 10.7773C 232.363 10.1133 232.246 9.46224 232.129 8.82422C 232.025 8.1862 231.947 7.60026 231.895 7.06641C 232.012 6.75391 232.135 6.64974 232.266 6.75391C 232.409 6.84505 232.552 7.07292 232.695 7.4375C 232.839 7.80208 232.982 8.25781 233.125 8.80469C 233.268 9.33854 233.392 9.88542 233.496 10.4453C 233.613 11.0052 233.717 11.5326 233.809 12.0273C 233.887 12.5221 233.952 12.9062 234.004 13.1797C 234.03 13.2057 234.076 13.2188 234.141 13.2188C 234.219 13.2188 234.271 13.2188 234.297 13.2188C 234.557 13.2188 234.785 13.1406 234.98 12.9844C 235.176 12.8281 235.358 12.6328 235.527 12.3984C 235.71 12.151 235.885 11.8906 236.055 11.6172C 236.224 11.3307 236.4 11.0703 236.582 10.8359C 236.764 10.6016 236.966 10.4062 237.188 10.25C 237.409 10.0807 237.663 9.99609 237.949 9.99609C 238.132 9.99609 238.242 10.0547 238.281 10.1719C 238.32 10.276 238.333 10.3997 238.32 10.543C 238.138 10.6862 237.93 10.875 237.695 11.1094C 237.461 11.3438 237.207 11.5977 236.934 11.8711C 236.673 12.1445 236.406 12.431 236.133 12.7305C 235.872 13.0299 235.638 13.3229 235.43 13.6094C 235.234 13.8828 235.065 14.1497 234.922 14.4102C 234.792 14.6706 234.727 14.8984 234.727 15.0938C 234.727 15.3802 234.818 15.6406 235 15.875C 235.195 16.1094 235.436 16.3242 235.723 16.5195C 236.022 16.7148 236.354 16.8841 236.719 17.0273C 237.083 17.1576 237.448 17.2747 237.812 17.3789C 238.177 17.4701 238.522 17.5417 238.848 17.5938C 239.16 17.6458 239.421 17.6719 239.629 17.6719C 239.746 17.6979 239.811 17.763 239.824 17.8672C 239.837 17.9714 239.844 18.069 239.844 18.1602C 239.844 18.3555 239.779 18.4987 239.648 18.5898C 239.531 18.681 239.382 18.7461 239.199 18.7852C 239.03 18.8242 238.848 18.8438 238.652 18.8438C 238.47 18.8438 238.314 18.8438 238.184 18.8438C 237.897 18.8438 237.565 18.7526 237.188 18.5703C 236.823 18.388 236.465 18.1927 236.113 17.9844C 235.775 17.763 235.475 17.5612 235.215 17.3789C 234.954 17.1966 234.772 17.1055 234.668 17.1055C 234.46 17.1055 234.316 17.2096 234.238 17.418C 234.173 17.6133 234.128 17.8281 234.102 18.0625C 234.076 18.2969 234.03 18.5182 233.965 18.7266C 233.913 18.9219 233.789 19.0195 233.594 19.0195C 233.424 19.0195 233.268 18.974 233.125 18.8828C 232.982 18.7917 232.91 18.6419 232.91 18.4336ZM 240.371 13.7656C 240.371 13.0885 240.469 12.444 240.664 11.832C 240.872 11.207 241.165 10.6602 241.543 10.1914C 241.934 9.72266 242.402 9.35156 242.949 9.07812C 243.509 8.79167 244.154 8.64844 244.883 8.64844C 245.312 8.70052 245.684 8.81771 245.996 9C 246.322 9.18229 246.582 9.41016 246.777 9.68359C 246.986 9.94401 247.135 10.25 247.227 10.6016C 247.305 10.9401 247.344 11.3047 247.344 11.6953C 247.344 12.1641 247.207 12.5872 246.934 12.9648C 246.66 13.3424 246.315 13.6615 245.898 13.9219C 245.482 14.1693 245.033 14.3646 244.551 14.5078C 244.069 14.638 243.62 14.7031 243.203 14.7031C 243.047 14.7031 242.884 14.7031 242.715 14.7031C 242.559 14.7031 242.415 14.6771 242.285 14.625C 242.155 14.5729 242.051 14.4948 241.973 14.3906C 241.895 14.2865 241.855 14.1302 241.855 13.9219C 241.855 13.8568 241.862 13.8047 241.875 13.7656C 241.901 13.7135 241.96 13.681 242.051 13.668C 242.142 13.6419 242.279 13.6354 242.461 13.6484C 242.643 13.6745 242.891 13.7135 243.203 13.7656C 243.385 13.7656 243.646 13.707 243.984 13.5898C 244.336 13.4596 244.688 13.2969 245.039 13.1016C 245.404 12.9062 245.716 12.6849 245.977 12.4375C 246.237 12.1771 246.367 11.9232 246.367 11.6758C 246.367 11.4154 246.322 11.1615 246.23 10.9141C 246.152 10.6536 246.029 10.4258 245.859 10.2305C 245.69 10.0352 245.488 9.87891 245.254 9.76172C 245.033 9.64453 244.779 9.59896 244.492 9.625C 244.036 9.66406 243.62 9.78776 243.242 9.99609C 242.878 10.2044 242.565 10.4779 242.305 10.8164C 242.044 11.1419 241.842 11.5065 241.699 11.9102C 241.556 12.3138 241.484 12.737 241.484 13.1797C 241.484 13.5182 241.491 13.8568 241.504 14.1953C 241.517 14.5339 241.562 14.8659 241.641 15.1914C 241.732 15.5169 241.868 15.8294 242.051 16.1289C 242.246 16.4284 242.52 16.6953 242.871 16.9297C 243.236 17.151 243.691 17.3398 244.238 17.4961C 244.785 17.6393 245.462 17.7305 246.27 17.7695L 249.766 17.5352C 249.557 17.8216 249.29 18.056 248.965 18.2383C 248.652 18.4206 248.314 18.5703 247.949 18.6875C 247.598 18.7917 247.246 18.8698 246.895 18.9219C 246.543 18.974 246.211 19 245.898 19C 245.143 19 244.434 18.8763 243.77 18.6289C 243.105 18.3815 242.52 18.0365 242.012 17.5938C 241.504 17.138 241.1 16.5911 240.801 15.9531C 240.514 15.3021 240.371 14.5729 240.371 13.7656ZM 260.469 12.2812C 260.365 12.2812 260.182 12.2812 259.922 12.2812C 259.661 12.2812 259.388 12.2617 259.102 12.2227C 258.828 12.1706 258.574 12.0924 258.34 11.9883C 258.118 11.8841 258.008 11.7344 258.008 11.5391C 258.008 11.487 258.014 11.4154 258.027 11.3242C 258.053 11.2201 258.118 11.168 258.223 11.168L 260.234 10.9922C 260.286 10.5104 260.326 10.1198 260.352 9.82031C 260.378 9.50781 260.384 9.22135 260.371 8.96094C 260.358 8.6875 260.339 8.40755 260.312 8.12109C 260.299 7.82161 260.286 7.4375 260.273 6.96875C 260.273 6.8776 260.293 6.80599 260.332 6.75391C 260.371 6.70182 260.417 6.66276 260.469 6.63672C 260.534 6.61068 260.599 6.59115 260.664 6.57812C 260.742 6.5651 260.801 6.55859 260.84 6.55859C 260.918 6.55859 260.996 6.58464 261.074 6.63672C 261.165 6.6888 261.243 6.75391 261.309 6.83203C 261.374 6.91016 261.426 6.99479 261.465 7.08594C 261.504 7.16406 261.523 7.24219 261.523 7.32031L 261.68 10.9727L 263.359 11.0508C 263.581 11.0247 263.783 11.0703 263.965 11.1875C 264.16 11.2917 264.264 11.4935 264.277 11.793C 264.121 11.9622 263.932 12.0664 263.711 12.1055C 263.49 12.1315 263.255 12.1445 263.008 12.1445C 262.773 12.1315 262.539 12.1315 262.305 12.1445C 262.07 12.1445 261.862 12.2031 261.68 12.3203C 261.68 12.3984 261.686 12.6133 261.699 12.9648C 261.712 13.3164 261.725 13.7331 261.738 14.2148C 261.751 14.6966 261.764 15.2109 261.777 15.7578C 261.803 16.3047 261.823 16.8125 261.836 17.2812C 261.849 17.737 261.855 18.1276 261.855 18.4531C 261.868 18.7786 261.875 18.9609 261.875 19C 261.576 19.1823 261.335 19.1693 261.152 18.9609C 260.97 18.7396 260.82 18.4206 260.703 18.0039C 260.599 17.5742 260.521 17.0794 260.469 16.5195C 260.43 15.9466 260.404 15.3867 260.391 14.8398C 260.391 14.2799 260.397 13.7656 260.41 13.2969C 260.423 12.8281 260.443 12.4896 260.469 12.2812ZM 270.781 18.6484C 270.807 18.3099 270.833 17.9583 270.859 17.5938C 270.885 17.2292 270.905 16.8646 270.918 16.5C 270.944 16.1354 270.957 15.7773 270.957 15.4258C 270.97 15.0742 270.977 14.7552 270.977 14.4688C 270.977 14.0521 270.918 13.6549 270.801 13.2773C 270.684 12.8997 270.514 12.5742 270.293 12.3008C 270.072 12.0143 269.792 11.793 269.453 11.6367C 269.128 11.4674 268.737 11.3828 268.281 11.3828C 268.099 11.3828 267.943 11.3958 267.812 11.4219C 267.682 11.4479 267.552 11.4935 267.422 11.5586C 267.292 11.6107 267.148 11.6823 266.992 11.7734C 266.836 11.8776 266.654 12.0013 266.445 12.1445C 266.445 12.1706 266.439 12.2227 266.426 12.3008C 266.426 12.3659 266.426 12.4049 266.426 12.418C 266.426 12.7044 266.452 13.0885 266.504 13.5703C 266.569 14.0391 266.634 14.5339 266.699 15.0547C 266.764 15.5625 266.829 16.0573 266.895 16.5391C 266.96 17.0208 266.992 17.4115 266.992 17.7109C 266.992 17.737 266.992 17.7891 266.992 17.8672C 266.992 17.9453 266.986 18.0299 266.973 18.1211C 266.973 18.2122 266.973 18.2969 266.973 18.375C 266.973 18.4531 266.973 18.5117 266.973 18.5508C 266.895 18.7331 266.797 18.8503 266.68 18.9023C 266.576 18.9414 266.445 18.9609 266.289 18.9609C 266.133 18.987 266.016 18.8763 265.938 18.6289C 265.859 18.3815 265.801 18.0234 265.762 17.5547C 265.723 17.0859 265.684 16.5195 265.645 15.8555C 265.618 15.1914 265.573 14.4622 265.508 13.668C 265.456 12.8737 265.371 12.0339 265.254 11.1484C 265.15 10.25 264.993 9.33203 264.785 8.39453C 264.681 8.02995 264.596 7.72396 264.531 7.47656C 264.479 7.21615 264.427 6.98828 264.375 6.79297C 264.323 6.58464 264.277 6.3763 264.238 6.16797C 264.199 5.94661 264.154 5.6862 264.102 5.38672L 264.102 5.30859C 264.102 5.25651 264.134 5.21094 264.199 5.17188C 264.264 5.11979 264.336 5.07422 264.414 5.03516C 264.505 4.99609 264.59 4.97005 264.668 4.95703C 264.759 4.93099 264.831 4.91797 264.883 4.91797C 265.13 5.56901 265.326 6.1224 265.469 6.57812C 265.625 7.02083 265.749 7.40495 265.84 7.73047C 265.931 8.05599 265.996 8.32943 266.035 8.55078C 266.074 8.77214 266.107 8.98698 266.133 9.19531C 266.159 9.40365 266.178 9.61849 266.191 9.83984C 266.204 10.0612 266.23 10.3281 266.27 10.6406C 266.947 10.224 267.559 9.99609 268.105 9.95703C 268.665 9.91797 269.16 10.0026 269.59 10.2109C 270.02 10.4062 270.391 10.7122 270.703 11.1289C 271.029 11.5456 271.296 12.0143 271.504 12.5352C 271.712 13.056 271.868 13.6094 271.973 14.1953C 272.09 14.7812 272.161 15.3477 272.188 15.8945C 272.227 16.4414 272.214 16.9492 272.148 17.418C 272.096 17.8737 272.012 18.2448 271.895 18.5312C 271.777 18.8047 271.621 18.9609 271.426 19C 271.23 19.0521 271.016 18.9349 270.781 18.6484ZM 274.16 12.2422C 274.16 12.1901 274.16 12.0924 274.16 11.9492C 274.16 11.806 274.16 11.6562 274.16 11.5C 274.173 11.3438 274.18 11.194 274.18 11.0508C 274.18 10.9076 274.18 10.8099 274.18 10.7578C 274.128 10.3542 274.245 10.1523 274.531 10.1523C 274.661 10.1523 274.772 10.1849 274.863 10.25C 274.954 10.3151 275.039 10.4128 275.117 10.543C 275.078 11.2201 275.104 11.8776 275.195 12.5156C 275.299 13.1406 275.41 13.7656 275.527 14.3906C 275.658 15.0026 275.775 15.6211 275.879 16.2461C 275.996 16.8711 276.055 17.5221 276.055 18.1992C 276.055 18.3815 275.996 18.5638 275.879 18.7461C 275.775 18.9284 275.612 19.0195 275.391 19.0195C 275.221 19.0195 275.072 18.8763 274.941 18.5898C 274.824 18.2904 274.72 17.9193 274.629 17.4766C 274.538 17.0208 274.46 16.5195 274.395 15.9727C 274.329 15.4258 274.277 14.9049 274.238 14.4102C 274.212 13.9023 274.193 13.4531 274.18 13.0625C 274.167 12.6589 274.16 12.3854 274.16 12.2422ZM 273.164 7.33984C 273.164 7.18359 273.21 7.08594 273.301 7.04688C 273.392 6.99479 273.509 6.96875 273.652 6.96875C 273.743 6.95573 273.861 7.01432 274.004 7.14453C 274.16 7.26172 274.284 7.39844 274.375 7.55469C 274.479 7.71094 274.538 7.85417 274.551 7.98438C 274.564 8.14062 274.466 8.23177 274.258 8.25781L 274.16 8.25781C 273.965 8.25781 273.802 8.24479 273.672 8.21875C 273.542 8.19271 273.438 8.15365 273.359 8.10156C 273.294 8.03646 273.242 7.94531 273.203 7.82812C 273.177 7.71094 273.164 7.54818 273.164 7.33984ZM 276.758 16.6367C 276.862 16.5586 276.953 16.513 277.031 16.5C 277.122 16.474 277.22 16.4609 277.324 16.4609C 277.441 16.4609 277.559 16.4935 277.676 16.5586C 277.793 16.6107 277.897 16.6823 277.988 16.7734C 278.092 16.8516 278.197 16.9297 278.301 17.0078C 278.405 17.0859 278.516 17.151 278.633 17.2031C 278.971 17.3464 279.238 17.4635 279.434 17.5547C 279.642 17.6458 279.831 17.7174 280 17.7695C 280.169 17.8216 280.365 17.8542 280.586 17.8672C 280.807 17.8802 281.094 17.8867 281.445 17.8867C 281.719 17.8867 282.051 17.8932 282.441 17.9062C 282.832 17.9062 283.203 17.8737 283.555 17.8086C 283.906 17.7305 284.206 17.6003 284.453 17.418C 284.701 17.2227 284.824 16.9297 284.824 16.5391C 284.837 16.1615 284.733 15.8685 284.512 15.6602C 284.303 15.4388 284.017 15.2695 283.652 15.1523C 283.288 15.0352 282.878 14.957 282.422 14.918C 281.966 14.8659 281.497 14.8138 281.016 14.7617C 280.534 14.7096 280.059 14.638 279.59 14.5469C 279.134 14.4427 278.724 14.2865 278.359 14.0781C 277.995 13.8698 277.702 13.5833 277.48 13.2188C 277.259 12.8542 277.142 12.3854 277.129 11.8125C 277.207 11.3958 277.409 11.0508 277.734 10.7773C 278.073 10.4909 278.47 10.276 278.926 10.1328C 279.395 9.97656 279.889 9.89844 280.41 9.89844C 280.931 9.88542 281.406 9.95052 281.836 10.0938C 282.279 10.224 282.643 10.4388 282.93 10.7383C 283.229 11.0378 283.385 11.4089 283.398 11.8516C 283.424 12.112 283.405 12.3268 283.34 12.4961C 283.275 12.6654 283.184 12.7956 283.066 12.8867C 282.962 12.9648 282.852 13.0039 282.734 13.0039C 282.617 12.9909 282.526 12.9453 282.461 12.8672C 282.396 12.776 282.363 12.6523 282.363 12.4961C 282.376 12.3268 282.454 12.1185 282.598 11.8711C 282.546 11.6237 282.396 11.4284 282.148 11.2852C 281.901 11.1419 281.615 11.0443 281.289 10.9922C 280.964 10.9271 280.612 10.9141 280.234 10.9531C 279.87 10.9792 279.531 11.0443 279.219 11.1484C 278.919 11.2526 278.672 11.3893 278.477 11.5586C 278.294 11.7279 278.216 11.9232 278.242 12.1445C 278.242 12.5352 278.353 12.8411 278.574 13.0625C 278.809 13.2708 279.108 13.4336 279.473 13.5508C 279.837 13.668 280.254 13.7526 280.723 13.8047C 281.204 13.8568 281.693 13.9089 282.188 13.9609C 282.695 14 283.184 14.0651 283.652 14.1562C 284.121 14.2344 284.544 14.3711 284.922 14.5664C 285.299 14.7617 285.599 15.0286 285.82 15.3672C 286.042 15.6927 286.152 16.1224 286.152 16.6562C 286.152 17.0599 286.048 17.4115 285.84 17.7109C 285.632 17.9974 285.365 18.2383 285.039 18.4336C 284.727 18.6289 284.382 18.7721 284.004 18.8633C 283.626 18.9544 283.268 19 282.93 19C 282.591 19 282.227 19 281.836 19C 281.458 18.987 281.068 18.9609 280.664 18.9219C 280.273 18.8828 279.876 18.8242 279.473 18.7461C 279.069 18.6549 278.691 18.5247 278.34 18.3555C 278.001 18.1732 277.695 17.9453 277.422 17.6719C 277.148 17.3984 276.927 17.0534 276.758 16.6367Z"/>
</defs>
</svg>
