<svg width="444" height="65" viewBox="0 0 444 65" version="1.1" xmlns="http://www.w3.org/2000/svg" xmlns:xlink="http://www.w3.org/1999/xlink">
<title>looks-like</title>
<desc>Created using Figma</desc>
<g id="Canvas" transform="translate(-508 820)">
<g id="looks-like">
<g id="Fill 106.1">
<use xlink:href="#path0_fill" transform="matrix(-0.487067 -0.873365 0.873365 -0.487067 510 -754)" fill="#FF3860"/>
</g>
<g id="Our Responsive CTAs look like this">
<use xlink:href="#path1_fill" transform="translate(600.27 -819)"/>
</g>
</g>
</g>
<defs>
<path id="path0_fill" fill-rule="evenodd" d="M 1.16148 0.96105C 0.389442 1.99721 0.0042474 3.15834 0.00188055 4.44847C -0.0302107 5.63121 0.353877 6.71748 0.736635 7.8C 0.810797 8.00981 0.884939 8.21947 0.955997 8.42964C 1.30128 9.45413 1.66789 10.4717 2.0345 11.4894C 2.47098 12.7009 2.90749 13.9125 3.30797 15.1356C 4.34413 18.2971 5.3613 21.465 6.37851 24.6329C 7.039 26.6897 7.69949 28.7466 8.36517 30.8018C 8.59569 31.5114 8.87621 32.2076 9.18094 32.889C 9.57478 33.7672 10.6133 33.8883 11.365 33.1945C 12.5777 32.0739 13.0067 30.8159 12.4527 29.164C 10.9446 24.6702 9.50834 20.153 8.08231 15.6326C 7.4554 13.6448 6.90718 11.6329 6.35953 9.62262L 6.33356 9.52753C 6.29062 9.37217 6.45813 9.14214 6.58866 8.9629L 6.62343 8.91493C 6.66093 8.86101 6.86882 8.89693 6.9821 8.93833C 7.33217 9.06728 7.69162 9.18608 8.0159 9.36501C 14.3561 12.8539 20.6925 16.3499 27.0281 19.8459C 27.2455 19.9657 27.4602 20.0915 27.6749 20.2172C 28.1067 20.4701 28.5384 20.723 28.9925 20.9281C 29.6121 21.2086 30.2209 21.0195 30.7194 20.5812C 30.9968 20.3381 31.2586 20.0537 31.4508 19.7404C 32.3548 18.2698 32.1579 17.1196 30.7475 16.2155C 29.173 15.2067 27.5625 14.2472 25.9208 13.3525C 21.7832 11.0945 17.6287 8.86729 13.4743 6.64016L 11.7518 5.71664C 9.54743 4.53442 7.3767 3.31777 5.62404 1.47289C 5.20209 1.02827 4.66291 0.680542 4.13936 0.349248C 3.11811 -0.296223 1.89287 -0.021129 1.16148 0.96105ZM 24.3454 66.1809C 26.0644 60.7893 27.0216 55.2781 27.0654 49.6176C 27.1414 47.3329 26.8567 45.0791 26.5716 42.8236C 26.5434 42.5998 26.5151 42.376 26.4872 42.1522C 25.6058 35.1031 22.9795 28.6519 19.7023 22.4367C 18.6498 20.441 17.1534 18.7368 15.5781 17.1232C 14.9217 16.452 13.9387 16.5411 13.2714 17.2803C 12.2798 18.3781 12.1212 19.619 12.8877 20.6833C 13.2203 21.1441 13.5907 21.5783 13.9607 22.012C 14.0775 22.1489 14.1943 22.2858 14.3099 22.4234C 15.9266 24.3512 17.2432 26.4633 18.22 28.784C 18.4689 29.3754 18.7261 29.9641 18.9834 30.5528C 19.5764 31.9102 20.1697 33.2679 20.6618 34.6609C 24.039 44.2322 24.5149 53.9505 21.816 63.7562C 19.8562 70.8755 17.0729 77.6963 13.9223 84.364C 13.4678 85.3253 12.9246 86.2448 12.3813 87.1643C 12.098 87.644 11.8146 88.1237 11.5437 88.6093C 11.495 88.6964 11.4458 88.7833 11.3965 88.8703C 11.1379 89.3268 10.8782 89.7852 10.699 90.2722C 10.5232 90.748 10.5889 91.2614 11.0538 91.6084C 11.4882 91.9334 12.0071 92.0295 12.4486 91.7365C 12.9526 91.4021 13.5003 91.0145 13.8035 90.5128C 13.9558 90.2619 14.109 90.0112 14.2621 89.7603C 15.2805 88.0923 16.3025 86.4185 17.1237 84.6539C 19.9187 78.652 22.3309 72.4931 24.3454 66.1809Z"/>
<path id="path1_fill" d="M 8.16 14.28C 9.216 13.336 10.12 12.176 10.872 10.8C 11.624 9.408 12 8.096 12 6.864C 12 5.632 11.76 4.632 11.28 3.864C 10.816 3.096 10.264 2.712 9.624 2.712C 8.984 2.712 8.184 3.208 7.224 4.2C 6.264 5.192 5.4 6.496 4.632 8.112C 3.864 9.712 3.48 11.248 3.48 12.72C 3.48 13.6 3.672 14.32 4.056 14.88C 4.44 15.424 4.888 15.696 5.4 15.696C 6.2 15.696 7.12 15.224 8.16 14.28ZM 5.256 17.592C 4.2 17.592 3.272 17.072 2.472 16.032C 1.688 14.992 1.296 13.936 1.296 12.864C 1.296 11.408 1.56 9.928 2.088 8.424C 2.632 6.92 3.304 5.608 4.104 4.488C 4.92 3.368 5.816 2.456 6.792 1.752C 7.768 1.032 8.672 0.672 9.504 0.672C 10.848 0.672 11.968 1.288 12.864 2.52C 13.76 3.736 14.208 5.112 14.208 6.648C 14.208 8.184 13.784 9.8 12.936 11.496C 12.088 13.176 10.952 14.616 9.528 15.816C 8.12 17 6.696 17.592 5.256 17.592ZM 23.9587 6.408C 24.0228 6.152 24.0867 5.976 24.1508 5.88C 24.2147 5.784 24.3507 5.736 24.5587 5.736C 24.7828 5.736 25.0468 5.944 25.3507 6.36C 25.6708 6.776 25.8307 7.176 25.8307 7.56C 25.8307 7.768 25.4787 9 24.7747 11.256C 24.0708 13.512 23.5268 15.304 23.1428 16.632C 22.9507 17.304 22.6788 17.64 22.3268 17.64C 22.1188 17.64 21.9427 17.552 21.7987 17.376C 21.6548 17.2 21.5828 16.88 21.5828 16.416C 21.5828 15.952 21.7667 15.112 22.1347 13.896C 21.4627 14.984 20.7348 15.88 19.9507 16.584C 19.1667 17.288 18.4468 17.64 17.7908 17.64C 17.1508 17.64 16.5427 17.336 15.9668 16.728C 15.3908 16.12 15.1028 15.496 15.1028 14.856C 15.1028 13.336 15.5428 11.44 16.4228 9.168C 17.3188 6.88 18.0628 5.736 18.6548 5.736C 18.9427 5.736 19.1907 5.872 19.3987 6.144C 19.6228 6.4 19.7348 6.696 19.7348 7.032C 19.7348 7.176 19.5188 7.696 19.0867 8.592C 18.6548 9.472 18.2227 10.512 17.7908 11.712C 17.3587 12.896 17.1428 13.936 17.1428 14.832C 17.1428 15.088 17.2228 15.304 17.3828 15.48C 17.5428 15.64 17.7347 15.72 17.9588 15.72C 18.5668 15.72 19.2868 15.184 20.1187 14.112C 20.9667 13.04 21.7348 11.792 22.4228 10.368C 23.1107 8.944 23.6227 7.624 23.9587 6.408ZM 28.4574 8.664L 28.3854 6.864C 28.3854 6.112 28.5614 5.736 28.9134 5.736C 29.2174 5.736 29.5054 5.936 29.7774 6.336C 30.0654 6.72 30.2094 7.184 30.2094 7.728C 30.2094 8.256 30.1934 8.656 30.1614 8.928C 31.5534 6.816 32.8734 5.76 34.1214 5.76C 34.9054 5.76 35.2974 5.952 35.2974 6.336C 35.2974 6.528 35.2094 6.704 35.0334 6.864C 34.8574 7.024 34.5774 7.208 34.1934 7.416C 33.3454 7.784 32.6254 8.352 32.0334 9.12C 31.4574 9.872 30.9854 10.728 30.6174 11.688C 30.2494 12.648 29.9534 13.456 29.7294 14.112C 29.5214 14.768 29.3614 15.28 29.2494 15.648C 29.1374 16.016 29.0094 16.376 28.8654 16.728C 28.6094 17.368 28.3134 17.688 27.9774 17.688C 27.7054 17.688 27.4814 17.536 27.3054 17.232C 27.1454 16.912 27.0654 16.608 27.0654 16.32C 27.0654 16.016 27.2014 15.424 27.4734 14.544C 28.1294 12.528 28.4574 10.568 28.4574 8.664ZM 46.2516 17.616C 46.0116 17.616 45.7396 17.44 45.4356 17.088C 45.1316 16.736 44.9796 16.384 44.9796 16.032C 44.9796 15.664 45.4196 13.928 46.2996 10.824C 47.1796 7.72 47.6836 5.36 47.8116 3.744C 47.6036 3.616 47.4196 3.416 47.2596 3.144C 47.0996 2.872 47.0196 2.632 47.0196 2.424C 47.0196 2.056 47.5636 1.68 48.6516 1.296C 49.7396 0.895999 50.9396 0.696 52.2516 0.696C 53.5796 0.696 54.7236 1.016 55.6836 1.656C 56.6596 2.28 57.1476 3.168 57.1476 4.32C 57.1476 5.104 56.9236 5.84 56.4756 6.528C 56.0436 7.2 55.5076 7.752 54.8676 8.184C 54.2436 8.616 53.6196 9 52.9956 9.336C 52.3716 9.672 51.8356 9.952 51.3876 10.176C 50.9556 10.384 50.7396 10.536 50.7396 10.632C 50.7396 10.984 51.0116 11.44 51.5556 12C 52.1156 12.56 52.5076 12.944 52.7316 13.152C 52.9556 13.36 53.2516 13.64 53.6196 13.992C 53.9876 14.328 54.3316 14.632 54.6516 14.904C 54.9876 15.176 55.2516 15.4 55.4436 15.576C 55.6516 15.752 55.8596 15.936 56.0676 16.128C 56.4676 16.496 56.6676 16.792 56.6676 17.016C 56.6676 17.4 56.4036 17.592 55.8756 17.592C 54.9156 17.592 53.5476 16.76 51.7716 15.096C 49.9956 13.416 48.9076 11.992 48.5076 10.824C 47.7556 13.32 47.3236 14.768 47.2116 15.168C 47.0996 15.552 46.9716 15.952 46.8276 16.368C 46.5716 17.2 46.3796 17.616 46.2516 17.616ZM 49.8756 4.392C 49.8756 5.432 49.5396 7.152 48.8676 9.552C 49.1396 9.344 49.6596 9.04 50.4276 8.64C 51.1956 8.224 51.8836 7.848 52.4916 7.512C 53.1156 7.16 53.6836 6.696 54.1956 6.12C 54.7076 5.544 54.9636 4.944 54.9636 4.32C 54.9636 3.328 54.0996 2.832 52.3716 2.832C 51.5876 2.832 50.6756 3.032 49.6356 3.432C 49.7956 3.784 49.8756 4.104 49.8756 4.392ZM 68.1872 9.72C 68.1872 10.568 67.7232 11.264 66.7952 11.808C 65.8832 12.336 64.8432 12.6 63.6752 12.6C 62.5232 12.6 61.4752 12.472 60.5312 12.216C 60.3072 12.92 60.1952 13.552 60.1952 14.112C 60.1952 14.656 60.3632 15.08 60.6992 15.384C 61.0512 15.688 61.6192 15.84 62.4032 15.84C 63.2032 15.84 64.0192 15.704 64.8512 15.432C 65.6992 15.144 66.1632 15 66.2432 15C 66.6592 15 66.8672 15.16 66.8672 15.48C 66.8672 15.912 66.3792 16.384 65.4032 16.896C 64.4272 17.392 63.4752 17.64 62.5472 17.64C 61.2992 17.64 60.2832 17.272 59.4992 16.536C 58.7152 15.784 58.3232 14.84 58.3232 13.704C 58.3232 12.568 58.6272 11.384 59.2352 10.152C 59.8432 8.904 60.6272 7.856 61.5872 7.008C 62.5472 6.16 63.4992 5.736 64.4432 5.736C 65.3872 5.736 66.2432 6.184 67.0112 7.08C 67.7952 7.976 68.1872 8.856 68.1872 9.72ZM 64.5632 7.632C 63.9712 7.632 63.3552 7.944 62.7152 8.568C 62.0752 9.176 61.5312 9.936 61.0832 10.848C 61.7232 10.992 62.4512 11.064 63.2672 11.064C 64.0832 11.064 64.7952 10.936 65.4032 10.68C 66.0112 10.408 66.3152 10.056 66.3152 9.624C 66.3152 9.192 66.1152 8.752 65.7152 8.304C 65.3312 7.856 64.9472 7.632 64.5632 7.632ZM 76.2799 5.736C 76.8239 5.736 77.3359 6.04 77.8159 6.648C 78.2959 7.24 78.5359 7.76 78.5359 8.208C 78.5359 8.48 78.4079 8.616 78.1519 8.616C 77.9759 8.616 77.7039 8.48 77.3359 8.208C 76.9679 7.92 76.5919 7.776 76.2079 7.776C 75.8239 7.776 75.2159 8 74.3839 8.448C 73.5679 8.896 73.1599 9.368 73.1599 9.864C 73.1599 10.232 73.8959 10.864 75.3679 11.76C 75.9279 12.112 76.4319 12.568 76.8799 13.128C 77.3439 13.672 77.5759 14.264 77.5759 14.904C 77.5759 15.528 77.1359 16.144 76.2559 16.752C 75.3919 17.344 74.3759 17.64 73.2079 17.64C 72.0559 17.64 71.0319 17.36 70.1359 16.8C 69.2559 16.24 68.8159 15.712 68.8159 15.216C 68.8159 15.008 68.8639 14.848 68.9599 14.736C 69.0719 14.608 69.2079 14.544 69.3679 14.544C 69.5279 14.544 69.7519 14.648 70.0399 14.856C 70.9039 15.48 71.7999 15.792 72.7279 15.792C 73.6719 15.792 74.3519 15.688 74.7679 15.48C 75.1839 15.256 75.3919 14.968 75.3919 14.616C 75.3919 14.248 75.1599 13.864 74.6959 13.464C 74.2319 13.048 73.7199 12.68 73.1599 12.36C 72.6159 12.04 72.1119 11.648 71.6479 11.184C 71.1839 10.72 70.9519 10.248 70.9519 9.768C 70.9519 8.92 71.6159 8.04 72.9439 7.128C 74.2879 6.2 75.3999 5.736 76.2799 5.736ZM 87.4826 5.664C 88.1706 5.664 88.7626 6.104 89.2586 6.984C 89.7706 7.864 90.0266 8.776 90.0266 9.72C 90.0266 10.648 89.7546 11.584 89.2106 12.528C 88.6666 13.456 87.9946 14.288 87.1946 15.024C 86.3946 15.76 85.5066 16.376 84.5306 16.872C 83.5706 17.352 82.6826 17.592 81.8666 17.592C 81.5466 17.592 81.2426 17.552 80.9546 17.472C 80.8906 17.744 80.7786 18.232 80.6186 18.936C 80.4586 19.64 80.3226 20.224 80.2106 20.688C 80.0986 21.152 79.9706 21.648 79.8266 22.176C 79.5386 23.264 79.2826 23.808 79.0586 23.808C 78.8346 23.808 78.6026 23.632 78.3626 23.28C 78.1066 22.944 77.9786 22.64 77.9786 22.368C 77.9786 22.096 78.2346 20.928 78.7466 18.864C 80.2826 12.64 81.0506 8.448 81.0506 6.288C 81.0506 5.808 81.2266 5.568 81.5786 5.568C 81.8666 5.568 82.2106 5.784 82.6106 6.216C 83.0266 6.632 83.2346 7.096 83.2346 7.608C 83.2346 7.864 83.2026 8.144 83.1386 8.448C 84.5626 6.592 86.0106 5.664 87.4826 5.664ZM 81.6266 15.72C 82.4746 15.72 83.3866 15.432 84.3626 14.856C 85.3546 14.28 86.1946 13.52 86.8826 12.576C 87.5866 11.616 87.9386 10.664 87.9386 9.72C 87.9386 8.392 87.6266 7.728 87.0026 7.728C 86.3786 7.728 85.5306 8.264 84.4586 9.336C 83.4026 10.408 82.5626 11.8 81.9386 13.512L 81.3866 15.72L 81.6266 15.72ZM 98.3436 9.816C 98.3436 9.272 98.2556 8.76 98.0796 8.28C 97.9036 7.784 97.6476 7.424 97.3116 7.2C 96.2076 7.504 95.2556 8.36 94.4556 9.768C 93.6716 11.16 93.2796 12.472 93.2796 13.704C 93.2796 14.936 93.5836 15.704 94.1916 16.008C 95.3436 15.784 96.3196 15 97.1196 13.656C 97.9356 12.296 98.3436 11.016 98.3436 9.816ZM 92.0316 10.032C 92.5916 8.784 93.3196 7.76 94.2156 6.96C 95.1276 6.144 96.0556 5.736 96.9996 5.736C 97.9596 5.736 98.7596 6.144 99.3996 6.96C 100.04 7.76 100.36 8.744 100.36 9.912C 100.36 11.064 100.08 12.248 99.5196 13.464C 98.9596 14.664 98.1836 15.664 97.1916 16.464C 96.2156 17.248 95.1756 17.64 94.0716 17.64C 93.2556 17.64 92.5756 17.264 92.0316 16.512C 91.4876 15.76 91.2156 14.808 91.2156 13.656C 91.2156 12.488 91.4876 11.28 92.0316 10.032ZM 104.323 13.464C 105.859 10.856 107.107 8.92 108.067 7.656C 109.043 6.376 109.835 5.736 110.443 5.736C 111.067 5.736 111.651 6.064 112.195 6.72C 112.755 7.376 113.035 8.072 113.035 8.808C 113.035 9.96 112.771 11.368 112.243 13.032C 111.283 16.104 110.419 17.64 109.651 17.64C 109.299 17.64 109.123 17.4 109.123 16.92C 109.123 16.584 109.291 15.904 109.627 14.88C 109.979 13.84 110.299 12.824 110.587 11.832C 110.891 10.824 111.043 10.072 111.043 9.576C 111.043 9.064 110.963 8.688 110.803 8.448C 110.659 8.208 110.507 8.088 110.347 8.088C 110.203 8.088 110.051 8.136 109.891 8.232C 109.731 8.328 109.547 8.488 109.339 8.712C 109.147 8.936 108.963 9.16 108.787 9.384C 108.611 9.592 108.387 9.896 108.115 10.296C 107.859 10.696 107.643 11.04 107.467 11.328C 107.291 11.6 107.035 12 106.699 12.528C 106.363 13.056 106.107 13.456 105.931 13.728C 105.755 14 105.523 14.368 105.235 14.832C 104.947 15.296 104.715 15.656 104.539 15.912C 104.379 16.168 104.195 16.448 103.987 16.752C 103.587 17.344 103.267 17.64 103.027 17.64C 102.803 17.64 102.539 17.464 102.235 17.112C 101.931 16.744 101.779 16.424 101.779 16.152C 101.779 16.072 101.835 15.856 101.947 15.504C 102.251 14.576 102.587 13.432 102.955 12.072C 103.323 10.696 103.523 9.136 103.555 7.392C 103.603 6.224 103.771 5.64 104.059 5.64C 104.411 5.64 104.763 5.824 105.115 6.192C 105.467 6.56 105.643 6.968 105.643 7.416C 105.643 7.848 105.507 8.696 105.235 9.96C 104.979 11.208 104.675 12.376 104.323 13.464ZM 121.631 5.736C 122.175 5.736 122.687 6.04 123.167 6.648C 123.647 7.24 123.887 7.76 123.887 8.208C 123.887 8.48 123.759 8.616 123.503 8.616C 123.327 8.616 123.055 8.48 122.687 8.208C 122.319 7.92 121.943 7.776 121.559 7.776C 121.175 7.776 120.567 8 119.735 8.448C 118.919 8.896 118.511 9.368 118.511 9.864C 118.511 10.232 119.247 10.864 120.719 11.76C 121.279 12.112 121.783 12.568 122.231 13.128C 122.695 13.672 122.927 14.264 122.927 14.904C 122.927 15.528 122.487 16.144 121.607 16.752C 120.743 17.344 119.727 17.64 118.559 17.64C 117.407 17.64 116.383 17.36 115.487 16.8C 114.607 16.24 114.167 15.712 114.167 15.216C 114.167 15.008 114.215 14.848 114.311 14.736C 114.423 14.608 114.559 14.544 114.719 14.544C 114.879 14.544 115.103 14.648 115.391 14.856C 116.255 15.48 117.151 15.792 118.079 15.792C 119.023 15.792 119.703 15.688 120.119 15.48C 120.535 15.256 120.743 14.968 120.743 14.616C 120.743 14.248 120.511 13.864 120.047 13.464C 119.583 13.048 119.071 12.68 118.511 12.36C 117.967 12.04 117.463 11.648 116.999 11.184C 116.535 10.72 116.303 10.248 116.303 9.768C 116.303 8.92 116.967 8.04 118.295 7.128C 119.639 6.2 120.751 5.736 121.631 5.736ZM 128.058 2.328C 128.058 2.008 128.186 1.704 128.442 1.416C 128.698 1.128 128.954 0.984 129.21 0.984C 129.482 0.984 129.802 1.312 130.17 1.968C 130.538 2.608 130.722 3.144 130.722 3.576C 130.722 3.736 130.65 3.88 130.506 4.008C 130.362 4.136 130.21 4.2 130.05 4.2C 129.666 4.2 129.234 3.968 128.754 3.504C 128.29 3.04 128.058 2.648 128.058 2.328ZM 127.938 5.736C 128.242 5.736 128.53 5.92 128.802 6.288C 129.074 6.656 129.21 7.016 129.21 7.368C 129.21 7.72 128.978 8.776 128.514 10.536C 128.05 12.28 127.466 14.24 126.762 16.416C 126.49 17.216 126.146 17.616 125.73 17.616C 125.506 17.616 125.314 17.528 125.154 17.352C 124.994 17.16 124.914 16.952 124.914 16.728C 124.914 16.488 124.97 16.12 125.082 15.624C 125.21 15.112 125.386 14.44 125.61 13.608C 125.85 12.76 126.034 12.072 126.162 11.544C 126.306 11.016 126.45 10.424 126.594 9.768C 126.738 9.096 126.85 8.56 126.93 8.16C 127.026 7.744 127.13 7.328 127.242 6.912C 127.466 6.128 127.698 5.736 127.938 5.736ZM 138.985 5.736C 139.257 5.736 139.521 5.84 139.777 6.048C 140.033 6.24 140.161 6.456 140.161 6.696C 140.161 7.128 139.577 8.624 138.409 11.184C 137.257 13.744 136.433 15.472 135.937 16.368C 135.457 17.248 135.033 17.688 134.665 17.688C 134.457 17.688 134.201 17.536 133.897 17.232C 133.593 16.928 133.369 16.6 133.225 16.248C 132.793 15.24 132.329 13.616 131.833 11.376C 131.337 9.136 131.089 7.496 131.089 6.456C 131.089 5.976 131.233 5.736 131.521 5.736C 131.873 5.736 132.233 5.888 132.601 6.192C 132.969 6.48 133.225 6.848 133.369 7.296C 133.417 7.552 133.481 8.192 133.561 9.216C 133.785 11.744 134.169 13.688 134.713 15.048C 135.145 14.12 135.697 12.808 136.369 11.112C 137.041 9.4 137.585 8.08 138.001 7.152C 138.433 6.208 138.761 5.736 138.985 5.736ZM 150.406 9.72C 150.406 10.568 149.942 11.264 149.014 11.808C 148.102 12.336 147.062 12.6 145.894 12.6C 144.742 12.6 143.694 12.472 142.75 12.216C 142.526 12.92 142.414 13.552 142.414 14.112C 142.414 14.656 142.582 15.08 142.918 15.384C 143.27 15.688 143.838 15.84 144.622 15.84C 145.422 15.84 146.238 15.704 147.07 15.432C 147.918 15.144 148.382 15 148.462 15C 148.878 15 149.086 15.16 149.086 15.48C 149.086 15.912 148.598 16.384 147.622 16.896C 146.646 17.392 145.694 17.64 144.766 17.64C 143.518 17.64 142.502 17.272 141.718 16.536C 140.934 15.784 140.542 14.84 140.542 13.704C 140.542 12.568 140.846 11.384 141.454 10.152C 142.062 8.904 142.846 7.856 143.806 7.008C 144.766 6.16 145.718 5.736 146.662 5.736C 147.606 5.736 148.462 6.184 149.23 7.08C 150.014 7.976 150.406 8.856 150.406 9.72ZM 146.782 7.632C 146.19 7.632 145.574 7.944 144.934 8.568C 144.294 9.176 143.75 9.936 143.302 10.848C 143.942 10.992 144.67 11.064 145.486 11.064C 146.302 11.064 147.014 10.936 147.622 10.68C 148.23 10.408 148.534 10.056 148.534 9.624C 148.534 9.192 148.334 8.752 147.934 8.304C 147.55 7.856 147.166 7.632 146.782 7.632ZM 171.803 0.768C 172.219 0.768 172.643 1.032 173.075 1.56C 173.523 2.088 173.747 2.528 173.747 2.88C 173.747 3.216 173.683 3.384 173.555 3.384C 173.443 3.384 173.219 3.328 172.883 3.216C 172.547 3.088 172.243 3.024 171.971 3.024C 171.347 3.024 170.587 3.344 169.691 3.984C 168.811 4.624 167.971 5.416 167.171 6.36C 166.387 7.304 165.715 8.384 165.155 9.6C 164.595 10.8 164.315 11.84 164.315 12.72C 164.315 13.6 164.539 14.248 164.987 14.664C 165.451 15.064 166.051 15.264 166.787 15.264C 167.523 15.264 168.283 15.16 169.067 14.952C 169.851 14.728 170.491 14.48 170.987 14.208C 172.267 13.52 172.971 13.176 173.099 13.176C 173.371 13.176 173.507 13.36 173.507 13.728C 173.507 14.08 173.139 14.56 172.403 15.168C 171.667 15.76 170.755 16.296 169.667 16.776C 168.579 17.256 167.603 17.496 166.739 17.496C 165.619 17.496 164.563 17.016 163.571 16.056C 162.579 15.08 162.083 14.008 162.083 12.84C 162.083 11.336 162.571 9.64 163.547 7.752C 164.539 5.848 165.803 4.208 167.339 2.832C 168.891 1.456 170.379 0.768 171.803 0.768ZM 181.707 2.832L 177.603 3.024C 177.347 3.024 177.083 2.856 176.811 2.52C 176.539 2.184 176.403 1.856 176.403 1.536C 176.403 1.248 176.859 1.064 177.771 0.984C 178.699 0.904 180.723 0.864 183.843 0.864C 185.459 0.864 186.787 1.04 187.827 1.392C 188.883 1.744 189.411 2.136 189.411 2.568C 189.411 2.872 189.147 3.024 188.619 3.024C 188.091 3.024 187.355 2.992 186.411 2.928C 185.467 2.864 184.563 2.824 183.699 2.808C 183.747 2.968 183.771 3.144 183.771 3.336C 183.771 3.928 183.147 6.68 181.899 11.592C 181.771 12.104 181.579 12.904 181.323 13.992C 181.067 15.08 180.875 15.84 180.747 16.272C 180.523 17.12 180.323 17.544 180.147 17.544C 179.907 17.544 179.635 17.368 179.331 17.016C 179.043 16.648 178.899 16.28 178.899 15.912C 178.899 15.544 179.331 13.656 180.195 10.248C 181.059 6.824 181.563 4.352 181.707 2.832ZM 201.27 9.288C 201.27 9.592 200.566 9.944 199.158 10.344C 199.286 12.008 199.35 13.424 199.35 14.592C 199.35 16.608 199.094 17.616 198.582 17.616C 198.31 17.616 198.094 17.448 197.934 17.112C 197.774 16.776 197.646 16.192 197.55 15.36C 197.438 13.824 197.318 12.32 197.19 10.848C 196.47 11.04 195.814 11.216 195.222 11.376C 194.63 11.52 193.734 11.76 192.534 12.096C 191.126 15.776 190.294 17.616 190.038 17.616C 189.782 17.616 189.502 17.464 189.198 17.16C 188.91 16.84 188.766 16.504 188.766 16.152C 188.766 15.992 189.222 14.856 190.134 12.744L 189.966 12.744C 189.646 12.744 189.358 12.64 189.102 12.432C 188.862 12.224 188.742 11.968 188.742 11.664C 188.742 11.344 189.534 10.928 191.118 10.416C 191.374 9.84 191.582 9.32 191.742 8.856C 192.11 7.944 192.622 6.696 193.278 5.112C 193.934 3.528 194.35 2.52 194.526 2.088C 194.702 1.64 195.006 1.264 195.438 0.960001C 195.886 0.639999 196.318 0.48 196.734 0.48C 197.23 0.48 197.67 1.272 198.054 2.856C 198.454 4.44 198.774 6.4 199.014 8.736C 199.462 8.688 199.854 8.664 200.19 8.664C 200.91 8.664 201.27 8.872 201.27 9.288ZM 193.422 9.792C 194.558 9.488 195.758 9.232 197.022 9.024C 196.734 6.288 196.454 4.232 196.182 2.856C 195.462 4.504 194.542 6.816 193.422 9.792ZM 209.944 5.736C 210.488 5.736 211 6.04 211.48 6.648C 211.96 7.24 212.2 7.76 212.2 8.208C 212.2 8.48 212.072 8.616 211.816 8.616C 211.64 8.616 211.368 8.48 211 8.208C 210.632 7.92 210.256 7.776 209.872 7.776C 209.488 7.776 208.88 8 208.048 8.448C 207.232 8.896 206.824 9.368 206.824 9.864C 206.824 10.232 207.56 10.864 209.032 11.76C 209.592 12.112 210.096 12.568 210.544 13.128C 211.008 13.672 211.24 14.264 211.24 14.904C 211.24 15.528 210.8 16.144 209.92 16.752C 209.056 17.344 208.04 17.64 206.872 17.64C 205.72 17.64 204.696 17.36 203.8 16.8C 202.92 16.24 202.48 15.712 202.48 15.216C 202.48 15.008 202.528 14.848 202.624 14.736C 202.736 14.608 202.872 14.544 203.032 14.544C 203.192 14.544 203.416 14.648 203.704 14.856C 204.568 15.48 205.464 15.792 206.392 15.792C 207.336 15.792 208.016 15.688 208.432 15.48C 208.848 15.256 209.056 14.968 209.056 14.616C 209.056 14.248 208.824 13.864 208.36 13.464C 207.896 13.048 207.384 12.68 206.824 12.36C 206.28 12.04 205.776 11.648 205.312 11.184C 204.848 10.72 204.616 10.248 204.616 9.768C 204.616 8.92 205.28 8.04 206.608 7.128C 207.952 6.2 209.064 5.736 209.944 5.736ZM 227.66 1.032C 227.66 4.04 227.036 7.944 225.788 12.744C 224.988 16.008 224.428 17.64 224.107 17.64C 223.883 17.64 223.62 17.464 223.315 17.112C 223.028 16.76 222.883 16.488 222.883 16.296C 222.883 16.104 223.115 15.112 223.579 13.32C 224.043 11.528 224.507 9.328 224.971 6.72C 225.435 4.096 225.667 1.736 225.667 -0.36C 225.667 -0.584001 225.7 -0.744 225.764 -0.840001C 225.828 -0.935999 225.963 -0.984 226.171 -0.984C 226.38 -0.984 226.676 -0.752 227.059 -0.288001C 227.459 0.16 227.66 0.599999 227.66 1.032ZM 236.062 9.816C 236.062 9.272 235.974 8.76 235.798 8.28C 235.622 7.784 235.366 7.424 235.03 7.2C 233.926 7.504 232.974 8.36 232.174 9.768C 231.39 11.16 230.998 12.472 230.998 13.704C 230.998 14.936 231.302 15.704 231.91 16.008C 233.062 15.784 234.038 15 234.838 13.656C 235.654 12.296 236.062 11.016 236.062 9.816ZM 229.75 10.032C 230.31 8.784 231.038 7.76 231.934 6.96C 232.846 6.144 233.774 5.736 234.718 5.736C 235.678 5.736 236.478 6.144 237.118 6.96C 237.758 7.76 238.078 8.744 238.078 9.912C 238.078 11.064 237.798 12.248 237.238 13.464C 236.678 14.664 235.902 15.664 234.91 16.464C 233.934 17.248 232.894 17.64 231.79 17.64C 230.974 17.64 230.294 17.264 229.75 16.512C 229.206 15.76 228.934 14.808 228.934 13.656C 228.934 12.488 229.206 11.28 229.75 10.032ZM 246.937 9.816C 246.937 9.272 246.849 8.76 246.673 8.28C 246.497 7.784 246.241 7.424 245.905 7.2C 244.801 7.504 243.849 8.36 243.049 9.768C 242.265 11.16 241.873 12.472 241.873 13.704C 241.873 14.936 242.177 15.704 242.785 16.008C 243.937 15.784 244.913 15 245.713 13.656C 246.529 12.296 246.937 11.016 246.937 9.816ZM 240.625 10.032C 241.185 8.784 241.913 7.76 242.809 6.96C 243.721 6.144 244.649 5.736 245.593 5.736C 246.553 5.736 247.353 6.144 247.993 6.96C 248.633 7.76 248.953 8.744 248.953 9.912C 248.953 11.064 248.673 12.248 248.113 13.464C 247.553 14.664 246.777 15.664 245.785 16.464C 244.809 17.248 243.769 17.64 242.665 17.64C 241.849 17.64 241.169 17.264 240.625 16.512C 240.081 15.76 239.809 14.808 239.809 13.656C 239.809 12.488 240.081 11.28 240.625 10.032ZM 261.172 7.032C 261.172 7.176 260.46 7.928 259.036 9.288C 258.508 9.8 258.02 10.408 257.572 11.112C 257.14 11.8 256.924 12.432 256.924 13.008C 256.924 13.584 257.092 14.12 257.428 14.616C 257.78 15.096 258.156 15.464 258.556 15.72C 258.972 15.96 259.348 16.2 259.684 16.44C 260.036 16.68 260.212 16.88 260.212 17.04C 260.212 17.44 259.892 17.64 259.252 17.64C 258.628 17.64 257.876 17.288 256.996 16.584C 256.132 15.864 255.596 15.064 255.388 14.184C 255.308 14.024 255.244 13.872 255.196 13.728C 254.108 15.2 253.316 16.224 252.82 16.8C 252.34 17.36 251.98 17.64 251.74 17.64C 251.5 17.64 251.236 17.456 250.948 17.088C 250.66 16.704 250.516 16.392 250.516 16.152C 250.516 15.896 250.772 14.864 251.284 13.056C 251.812 11.232 252.332 9.048 252.844 6.504C 253.372 3.96 253.636 1.688 253.636 -0.312C 253.636 -0.568 253.668 -0.744 253.732 -0.840001C 253.812 -0.935999 253.972 -0.984 254.212 -0.984C 254.452 -0.984 254.748 -0.744 255.1 -0.263999C 255.452 0.2 255.628 0.656 255.628 1.104C 255.628 2.528 255.34 4.52 254.764 7.08C 254.188 9.64 253.5 12.072 252.7 14.376C 254.508 11.8 256.068 9.72 257.38 8.136C 258.708 6.536 259.524 5.736 259.828 5.736C 260.148 5.736 260.452 5.888 260.74 6.192C 261.028 6.496 261.172 6.776 261.172 7.032ZM 276.175 1.032C 276.175 4.04 275.551 7.944 274.303 12.744C 273.503 16.008 272.943 17.64 272.623 17.64C 272.399 17.64 272.135 17.464 271.831 17.112C 271.543 16.76 271.399 16.488 271.399 16.296C 271.399 16.104 271.631 15.112 272.095 13.32C 272.559 11.528 273.023 9.328 273.487 6.72C 273.951 4.096 274.183 1.736 274.183 -0.36C 274.183 -0.584001 274.215 -0.744 274.279 -0.840001C 274.343 -0.935999 274.479 -0.984 274.687 -0.984C 274.895 -0.984 275.191 -0.752 275.575 -0.288001C 275.975 0.16 276.175 0.599999 276.175 1.032ZM 280.402 2.328C 280.402 2.008 280.53 1.704 280.786 1.416C 281.042 1.128 281.298 0.984 281.554 0.984C 281.826 0.984 282.146 1.312 282.514 1.968C 282.882 2.608 283.066 3.144 283.066 3.576C 283.066 3.736 282.994 3.88 282.85 4.008C 282.706 4.136 282.554 4.2 282.394 4.2C 282.01 4.2 281.578 3.968 281.098 3.504C 280.634 3.04 280.402 2.648 280.402 2.328ZM 280.282 5.736C 280.586 5.736 280.874 5.92 281.146 6.288C 281.418 6.656 281.554 7.016 281.554 7.368C 281.554 7.72 281.322 8.776 280.858 10.536C 280.394 12.28 279.81 14.24 279.106 16.416C 278.834 17.216 278.49 17.616 278.074 17.616C 277.85 17.616 277.658 17.528 277.498 17.352C 277.338 17.16 277.258 16.952 277.258 16.728C 277.258 16.488 277.314 16.12 277.426 15.624C 277.554 15.112 277.73 14.44 277.954 13.608C 278.194 12.76 278.378 12.072 278.506 11.544C 278.65 11.016 278.794 10.424 278.938 9.768C 279.082 9.096 279.194 8.56 279.274 8.16C 279.37 7.744 279.474 7.328 279.586 6.912C 279.81 6.128 280.042 5.736 280.282 5.736ZM 293.657 7.032C 293.657 7.176 292.945 7.928 291.521 9.288C 290.993 9.8 290.505 10.408 290.057 11.112C 289.625 11.8 289.409 12.432 289.409 13.008C 289.409 13.584 289.577 14.12 289.913 14.616C 290.265 15.096 290.641 15.464 291.041 15.72C 291.457 15.96 291.833 16.2 292.169 16.44C 292.521 16.68 292.697 16.88 292.697 17.04C 292.697 17.44 292.377 17.64 291.737 17.64C 291.113 17.64 290.361 17.288 289.481 16.584C 288.617 15.864 288.081 15.064 287.873 14.184C 287.793 14.024 287.729 13.872 287.681 13.728C 286.593 15.2 285.801 16.224 285.305 16.8C 284.825 17.36 284.465 17.64 284.225 17.64C 283.985 17.64 283.721 17.456 283.433 17.088C 283.145 16.704 283.001 16.392 283.001 16.152C 283.001 15.896 283.257 14.864 283.769 13.056C 284.297 11.232 284.817 9.048 285.329 6.504C 285.857 3.96 286.121 1.688 286.121 -0.312C 286.121 -0.568 286.153 -0.744 286.217 -0.840001C 286.297 -0.935999 286.457 -0.984 286.697 -0.984C 286.937 -0.984 287.233 -0.744 287.585 -0.263999C 287.937 0.2 288.113 0.656 288.113 1.104C 288.113 2.528 287.825 4.52 287.249 7.08C 286.673 9.64 285.985 12.072 285.185 14.376C 286.993 11.8 288.553 9.72 289.865 8.136C 291.193 6.536 292.009 5.736 292.313 5.736C 292.633 5.736 292.937 5.888 293.225 6.192C 293.513 6.496 293.657 6.776 293.657 7.032ZM 303.875 9.72C 303.875 10.568 303.411 11.264 302.483 11.808C 301.571 12.336 300.531 12.6 299.363 12.6C 298.211 12.6 297.163 12.472 296.219 12.216C 295.995 12.92 295.883 13.552 295.883 14.112C 295.883 14.656 296.051 15.08 296.387 15.384C 296.739 15.688 297.307 15.84 298.091 15.84C 298.891 15.84 299.707 15.704 300.539 15.432C 301.387 15.144 301.851 15 301.931 15C 302.347 15 302.555 15.16 302.555 15.48C 302.555 15.912 302.067 16.384 301.091 16.896C 300.115 17.392 299.163 17.64 298.235 17.64C 296.987 17.64 295.971 17.272 295.187 16.536C 294.403 15.784 294.011 14.84 294.011 13.704C 294.011 12.568 294.315 11.384 294.923 10.152C 295.531 8.904 296.315 7.856 297.275 7.008C 298.235 6.16 299.187 5.736 300.131 5.736C 301.075 5.736 301.931 6.184 302.699 7.08C 303.483 7.976 303.875 8.856 303.875 9.72ZM 300.251 7.632C 299.659 7.632 299.043 7.944 298.403 8.568C 297.763 9.176 297.219 9.936 296.771 10.848C 297.411 10.992 298.139 11.064 298.955 11.064C 299.771 11.064 300.483 10.936 301.091 10.68C 301.699 10.408 302.003 10.056 302.003 9.624C 302.003 9.192 301.803 8.752 301.403 8.304C 301.019 7.856 300.635 7.632 300.251 7.632ZM 317.424 15.24C 317.424 15.544 317.6 15.696 317.952 15.696C 318.56 15.696 319.296 15.528 320.16 15.192C 321.04 14.84 321.528 14.664 321.624 14.664C 321.912 14.664 322.056 14.816 322.056 15.12C 322.056 15.584 321.576 16.12 320.616 16.728C 319.672 17.336 318.808 17.64 318.024 17.64C 317.256 17.64 316.616 17.432 316.104 17.016C 315.592 16.584 315.336 16.144 315.336 15.696C 315.336 15.248 315.432 14.68 315.624 13.992C 315.816 13.288 316.088 12.368 316.44 11.232C 316.808 10.08 317.096 9.128 317.304 8.376C 316.552 8.552 316.048 8.64 315.792 8.64C 315.536 8.64 315.28 8.512 315.024 8.256C 314.784 7.984 314.664 7.728 314.664 7.488C 314.664 7.104 315.704 6.736 317.784 6.384C 318.072 5.056 318.216 3.88 318.216 2.856C 318.216 2.376 318.376 2.136 318.696 2.136C 318.968 2.136 319.304 2.312 319.704 2.664C 320.104 3 320.304 3.384 320.304 3.816C 320.304 4.248 320.168 5.008 319.896 6.096C 320.808 6.016 321.536 5.976 322.08 5.976C 323.04 5.976 323.52 6.184 323.52 6.6C 323.52 6.84 323.256 7.04 322.728 7.2C 322.216 7.36 321.128 7.608 319.464 7.944C 319.128 9.208 318.704 10.656 318.192 12.288C 317.68 13.904 317.424 14.888 317.424 15.24ZM 326.849 -0.0479994C 326.849 -0.672 327.041 -0.984 327.425 -0.984C 327.729 -0.984 328.049 -0.744 328.385 -0.263999C 328.737 0.216 328.913 0.679999 328.913 1.128C 328.913 2.168 328.649 3.944 328.121 6.456C 327.609 8.952 326.937 11.448 326.105 13.944C 327.705 11.048 329.041 8.96 330.113 7.68C 331.201 6.384 332.129 5.736 332.897 5.736C 333.313 5.736 333.793 6.096 334.337 6.816C 334.897 7.536 335.177 8.256 335.177 8.976C 335.177 9.696 334.977 10.776 334.577 12.216C 333.585 15.832 332.649 17.64 331.769 17.64C 331.417 17.64 331.241 17.4 331.241 16.92C 331.241 16.44 331.433 15.632 331.817 14.496C 332.665 12.016 333.089 10.344 333.089 9.48C 333.089 9.192 333.017 8.952 332.873 8.76C 332.729 8.568 332.553 8.472 332.345 8.472C 332.137 8.472 331.881 8.584 331.577 8.808C 331.273 9.032 330.905 9.424 330.473 9.984C 329.929 10.704 329.361 11.512 328.769 12.408C 328.193 13.304 327.841 13.848 327.713 14.04C 327.601 14.216 327.393 14.544 327.089 15.024C 326.801 15.504 326.585 15.864 326.441 16.104C 326.297 16.328 326.121 16.576 325.913 16.848C 325.545 17.376 325.265 17.64 325.073 17.64C 324.881 17.64 324.625 17.464 324.305 17.112C 323.985 16.744 323.825 16.44 323.825 16.2C 323.825 15.944 323.913 15.472 324.089 14.784C 324.889 11.712 325.393 9.608 325.601 8.472C 326.433 4.312 326.849 1.472 326.849 -0.0479994ZM 339.957 2.328C 339.957 2.008 340.085 1.704 340.341 1.416C 340.597 1.128 340.853 0.984 341.109 0.984C 341.381 0.984 341.701 1.312 342.069 1.968C 342.437 2.608 342.621 3.144 342.621 3.576C 342.621 3.736 342.549 3.88 342.405 4.008C 342.261 4.136 342.109 4.2 341.949 4.2C 341.565 4.2 341.133 3.968 340.653 3.504C 340.189 3.04 339.957 2.648 339.957 2.328ZM 339.837 5.736C 340.141 5.736 340.429 5.92 340.701 6.288C 340.973 6.656 341.109 7.016 341.109 7.368C 341.109 7.72 340.877 8.776 340.413 10.536C 339.949 12.28 339.365 14.24 338.661 16.416C 338.389 17.216 338.045 17.616 337.629 17.616C 337.405 17.616 337.213 17.528 337.053 17.352C 336.893 17.16 336.813 16.952 336.813 16.728C 336.813 16.488 336.869 16.12 336.981 15.624C 337.109 15.112 337.285 14.44 337.509 13.608C 337.749 12.76 337.933 12.072 338.061 11.544C 338.205 11.016 338.349 10.424 338.493 9.768C 338.637 9.096 338.749 8.56 338.829 8.16C 338.925 7.744 339.029 7.328 339.141 6.912C 339.365 6.128 339.597 5.736 339.837 5.736ZM 349.467 5.736C 350.011 5.736 350.523 6.04 351.003 6.648C 351.483 7.24 351.723 7.76 351.723 8.208C 351.723 8.48 351.595 8.616 351.339 8.616C 351.163 8.616 350.891 8.48 350.523 8.208C 350.155 7.92 349.779 7.776 349.395 7.776C 349.011 7.776 348.403 8 347.571 8.448C 346.755 8.896 346.347 9.368 346.347 9.864C 346.347 10.232 347.083 10.864 348.555 11.76C 349.115 12.112 349.619 12.568 350.067 13.128C 350.531 13.672 350.763 14.264 350.763 14.904C 350.763 15.528 350.323 16.144 349.443 16.752C 348.579 17.344 347.563 17.64 346.395 17.64C 345.243 17.64 344.219 17.36 343.323 16.8C 342.443 16.24 342.003 15.712 342.003 15.216C 342.003 15.008 342.051 14.848 342.147 14.736C 342.259 14.608 342.395 14.544 342.555 14.544C 342.715 14.544 342.939 14.648 343.227 14.856C 344.091 15.48 344.987 15.792 345.915 15.792C 346.859 15.792 347.539 15.688 347.955 15.48C 348.371 15.256 348.579 14.968 348.579 14.616C 348.579 14.248 348.347 13.864 347.883 13.464C 347.419 13.048 346.907 12.68 346.347 12.36C 345.803 12.04 345.299 11.648 344.835 11.184C 344.371 10.72 344.139 10.248 344.139 9.768C 344.139 8.92 344.803 8.04 346.131 7.128C 347.475 6.2 348.587 5.736 349.467 5.736Z"/>
</defs>
</svg>
