<svg width="368" height="76" viewBox="0 0 368 76" version="1.1" xmlns="http://www.w3.org/2000/svg" xmlns:xlink="http://www.w3.org/1999/xlink">
<title>Group 2</title>
<desc>Created using Figma</desc>
<g id="Canvas" transform="translate(-552 445)">
<g id="Group 2">
<g id="Try dragging this slider!">
<use xlink:href="#path0_fill" transform="translate(529 -413)"/>
</g>
<g id="Arrow">
<use xlink:href="#path1_stroke" transform="matrix(0.865426 -0.501036 0.501036 0.865426 842.085 -402.717)" fill="#FF0000"/>
</g>
</g>
</g>
<defs>
<path id="path0_fill" d="M 32.7464 29.03C 32.1864 29.03 31.7964 28.74 31.5764 28.16C 31.3564 27.58 31.1764 26.8 31.0364 25.82L 30.9464 25.07C 30.6464 23.47 30.4064 21.88 30.2264 20.3C 30.0464 18.7 29.8664 16.77 29.6864 14.51L 29.5064 12.29C 28.3064 12.31 26.5964 12.26 24.3764 12.14L 23.7764 12.11C 23.4964 12.09 23.2964 11.96 23.1764 11.72C 23.0764 11.46 23.0264 11.11 23.0264 10.67L 25.0964 10.67C 28.5764 10.67 31.7164 10.8 34.5164 11.06C 37.3164 11.32 38.7164 11.85 38.7164 12.65C 38.7164 12.87 38.6764 13.02 38.5964 13.1C 38.5364 13.18 38.3964 13.22 38.1764 13.22C 37.3764 13.16 36.1364 12.99 34.4564 12.71C 34.0764 12.65 33.6164 12.58 33.0764 12.5C 32.5364 12.42 31.9264 12.34 31.2464 12.26C 31.2464 15.16 31.6764 19.62 32.5364 25.64C 32.5764 25.94 32.7164 26.37 32.9564 26.93C 33.0564 27.17 33.1464 27.43 33.2264 27.71C 33.3264 27.97 33.3764 28.21 33.3764 28.43C 33.3764 28.71 33.3364 28.88 33.2564 28.94C 33.1764 29 33.0764 29.03 32.9564 29.03C 32.8564 29.03 32.7864 29.03 32.7464 29.03ZM 43.3136 29C 42.4936 27.4 41.8436 25.52 41.3636 23.36C 40.9036 21.2 40.6736 19.33 40.6736 17.75C 40.6736 17.13 40.8136 16.73 41.0936 16.55C 41.2536 16.45 41.3736 16.4 41.4536 16.4C 41.5936 16.4 41.6936 16.51 41.7536 16.73C 41.8336 16.95 41.9136 17.35 41.9936 17.93L 42.1436 19.01C 42.3636 17.93 42.7836 17.08 43.4036 16.46C 44.0436 15.82 44.8236 15.5 45.7436 15.5C 46.7636 15.5 47.5236 15.7 48.0236 16.1C 48.5236 16.48 48.7736 17.12 48.7736 18.02C 47.7736 17.54 46.8636 17.3 46.0436 17.3C 45.2636 17.3 44.5936 17.51 44.0336 17.93C 43.4736 18.35 43.0836 18.97 42.8636 19.79C 42.6836 20.35 42.5936 20.88 42.5936 21.38C 42.5936 21.92 42.6636 22.43 42.8036 22.91C 42.9636 23.37 43.2036 23.94 43.5236 24.62C 43.8236 25.32 44.0536 25.92 44.2136 26.42C 44.3936 26.92 44.4936 27.46 44.5136 28.04C 44.5136 28.38 44.3936 28.63 44.1536 28.79C 43.9136 28.93 43.6336 29 43.3136 29ZM 58.1807 43.19C 56.8207 43.19 55.6007 42.9 54.5207 42.32C 53.4607 41.74 52.6107 41.07 51.9707 40.31C 51.3307 39.55 50.9707 38.93 50.8907 38.45C 50.8107 38.01 50.9107 37.67 51.1907 37.43C 51.4907 37.19 51.8607 37.09 52.3007 37.13C 52.9207 38.61 53.6607 39.75 54.5207 40.55C 55.3807 41.35 56.6107 41.77 58.2107 41.81C 59.3307 41.83 60.2207 41.11 60.8807 39.65C 61.5607 38.21 62.0407 36.44 62.3207 34.34C 62.6007 32.26 62.7407 30.21 62.7407 28.19C 62.7407 27.15 62.7107 26.3 62.6507 25.64C 61.1307 27.5 59.1907 28.43 56.8307 28.43C 54.7907 28.43 53.2207 27.46 52.1207 25.52C 51.0407 23.58 50.3407 21.39 50.0207 18.95C 49.9807 18.71 49.9607 18.37 49.9607 17.93C 49.9607 16.67 50.3707 16.04 51.1907 16.04C 51.2707 16.04 51.3807 16.54 51.5207 17.54C 51.7407 19.12 52.0107 20.54 52.3307 21.8C 52.6507 23.06 53.1807 24.21 53.9207 25.25C 54.6807 26.27 55.6807 26.78 56.9207 26.78C 57.9007 26.78 58.9007 26.46 59.9207 25.82C 60.9607 25.16 61.7107 24.43 62.1707 23.63C 62.1707 22.11 61.9707 20.75 61.5707 19.55C 61.1907 18.33 60.9907 17.68 60.9707 17.6C 60.9307 17.16 60.9107 16.88 60.9107 16.76C 60.9107 16.36 60.9707 16.07 61.0907 15.89C 61.2307 15.71 61.4307 15.62 61.6907 15.62C 61.9707 15.62 62.2907 16.19 62.6507 17.33C 63.0107 18.47 63.3307 19.96 63.6107 21.8C 63.8907 23.64 64.0807 25.56 64.1807 27.56C 64.2207 28.6 64.2407 29.37 64.2407 29.87C 64.2407 33.71 63.7607 36.89 62.8007 39.41C 61.8607 41.93 60.3207 43.19 58.1807 43.19ZM 79.2607 28.97C 78.3207 28.97 77.5007 28.65 76.8007 28.01C 76.1207 27.37 75.6007 26.54 75.2407 25.52C 74.9007 24.5 74.7307 23.44 74.7307 22.34C 74.7307 20.42 75.1307 18.8 75.9307 17.48C 76.7507 16.16 77.9907 15.5 79.6507 15.5C 80.6507 15.5 81.5207 15.68 82.2607 16.04C 83.0207 16.38 84.0107 16.96 85.2307 17.78L 86.0107 18.32C 85.9107 17.66 85.7607 16.9 85.5607 16.04C 85.3607 15.18 85.2307 14.59 85.1707 14.27C 84.8307 12.71 84.5807 11.55 84.4207 10.79C 84.2807 10.01 84.2107 9.32 84.2107 8.72C 84.2107 7.66 84.5107 7.13 85.1107 7.13C 85.3307 7.61 85.5907 8.64 85.8907 10.22C 86.1907 11.78 86.5707 13.92 87.0307 16.64C 87.5107 19.52 87.9307 21.87 88.2907 23.69C 88.6507 25.51 88.9507 26.65 89.1907 27.11C 89.1907 27.57 88.8507 27.8 88.1707 27.8C 87.6507 27.8 87.2907 27.5 87.0907 26.9C 86.9107 26.3 86.8007 25.25 86.7607 23.75L 86.5207 23.75C 85.6807 25.27 84.5907 26.52 83.2507 27.5C 81.9107 28.48 80.5807 28.97 79.2607 28.97ZM 79.6507 27.5C 80.4707 27.5 81.3507 27.16 82.2907 26.48C 83.2507 25.78 84.0607 24.94 84.7207 23.96C 85.3807 22.96 85.7107 22.06 85.7107 21.26L 85.7107 20.36C 83.6507 18.2 81.7507 17.12 80.0107 17.12C 78.7907 17.12 77.8507 17.57 77.1907 18.47C 76.5307 19.35 76.2007 20.51 76.2007 21.95L 76.2307 22.58C 76.3507 24.1 76.6907 25.3 77.2507 26.18C 77.8107 27.06 78.6107 27.5 79.6507 27.5ZM 93.6164 29C 92.7964 27.4 92.1464 25.52 91.6664 23.36C 91.2064 21.2 90.9764 19.33 90.9764 17.75C 90.9764 17.13 91.1164 16.73 91.3964 16.55C 91.5564 16.45 91.6764 16.4 91.7564 16.4C 91.8964 16.4 91.9964 16.51 92.0564 16.73C 92.1364 16.95 92.2164 17.35 92.2964 17.93L 92.4464 19.01C 92.6664 17.93 93.0864 17.08 93.7064 16.46C 94.3464 15.82 95.1264 15.5 96.0464 15.5C 97.0664 15.5 97.8264 15.7 98.3264 16.1C 98.8264 16.48 99.0764 17.12 99.0764 18.02C 98.0764 17.54 97.1664 17.3 96.3464 17.3C 95.5664 17.3 94.8964 17.51 94.3364 17.93C 93.7764 18.35 93.3864 18.97 93.1664 19.79C 92.9864 20.35 92.8964 20.88 92.8964 21.38C 92.8964 21.92 92.9664 22.43 93.1064 22.91C 93.2664 23.37 93.5064 23.94 93.8264 24.62C 94.1264 25.32 94.3564 25.92 94.5164 26.42C 94.6964 26.92 94.7964 27.46 94.8164 28.04C 94.8164 28.38 94.6964 28.63 94.4564 28.79C 94.2164 28.93 93.9364 29 93.6164 29ZM 107.973 29C 105.893 29 104.083 28.64 102.543 27.92C 101.023 27.18 100.263 25.89 100.263 24.05C 100.263 23.39 100.463 22.75 100.863 22.13C 101.263 21.51 101.853 21.01 102.633 20.63C 103.413 20.23 104.363 20.03 105.483 20.03C 106.343 20.03 107.073 20.07 107.673 20.15C 108.273 20.23 108.963 20.45 109.743 20.81C 110.523 21.17 111.333 21.74 112.173 22.52C 111.853 21.14 111.373 19.93 110.733 18.89C 110.093 17.85 109.373 17.05 108.573 16.49C 107.793 15.91 107.023 15.62 106.263 15.62C 105.903 15.62 105.563 15.69 105.243 15.83C 104.943 15.95 104.573 16.13 104.133 16.37C 103.633 16.69 103.263 16.85 103.023 16.85C 102.923 16.85 102.833 16.82 102.753 16.76C 102.693 16.68 102.663 16.59 102.663 16.49C 102.663 15.69 103.013 15.07 103.713 14.63C 104.433 14.19 105.303 13.99 106.323 14.03C 107.723 14.11 109.003 14.71 110.163 15.83C 111.323 16.93 112.233 18.3 112.893 19.94C 113.573 21.58 113.913 23.19 113.913 24.77C 113.913 25.03 113.893 25.4 113.853 25.88L 112.893 25.82C 112.133 24.28 111.153 23.19 109.953 22.55C 108.773 21.89 107.583 21.56 106.383 21.56C 104.843 21.56 103.743 21.79 103.083 22.25C 102.423 22.71 102.093 23.38 102.093 24.26C 102.093 25.18 102.553 25.92 103.473 26.48C 104.393 27.04 105.573 27.32 107.013 27.32C 107.813 27.32 108.453 27.28 108.933 27.2C 109.413 27.1 109.913 26.97 110.433 26.81C 110.853 26.67 111.223 26.57 111.543 26.51C 111.863 26.45 112.273 26.42 112.773 26.42C 113.333 26.42 113.683 26.46 113.823 26.54C 113.983 26.62 114.063 26.8 114.063 27.08C 114.063 27.28 113.653 27.53 112.833 27.83C 112.013 28.13 111.093 28.4 110.073 28.64C 109.053 28.88 108.353 29 107.973 29ZM 121.505 43.64C 119.825 43.64 118.415 43.16 117.275 42.2C 116.155 41.26 115.485 39.67 115.265 37.43C 115.245 37.09 115.295 36.83 115.415 36.65C 115.555 36.47 115.735 36.38 115.955 36.38C 116.195 36.38 116.405 36.47 116.585 36.65C 116.765 36.85 116.845 37.11 116.825 37.43C 116.825 38.75 117.275 39.79 118.175 40.55C 119.095 41.33 120.265 41.72 121.685 41.72C 122.505 41.72 123.225 41.42 123.845 40.82C 124.485 40.22 124.975 39.38 125.315 38.3C 125.655 37.24 125.825 36.02 125.825 34.64C 125.825 32.22 125.855 29.87 125.915 27.59L 125.945 26.06C 125.165 26.88 124.455 27.48 123.815 27.86C 123.195 28.24 122.445 28.43 121.565 28.43C 120.025 28.43 118.885 28.02 118.145 27.2C 117.425 26.36 117.065 25.08 117.065 23.36C 117.065 22.38 117.325 21.36 117.845 20.3C 118.385 19.22 119.115 18.32 120.035 17.6C 120.975 16.88 122.035 16.52 123.215 16.52C 123.615 16.52 123.985 16.56 124.325 16.64C 125.605 16.92 126.465 18.11 126.905 20.21C 127.345 22.31 127.565 25.03 127.565 28.37C 127.565 29.29 127.545 30.51 127.505 32.03L 127.475 34.88C 127.475 36.02 127.295 37.26 126.935 38.6C 126.575 39.96 125.945 41.14 125.045 42.14C 124.145 43.14 122.965 43.64 121.505 43.64ZM 121.115 26.45C 122.595 26.45 123.715 26.1 124.475 25.4C 125.235 24.68 125.615 23.63 125.615 22.25C 125.615 22.07 125.595 21.76 125.555 21.32C 125.455 20.4 125.215 19.68 124.835 19.16C 124.475 18.62 123.905 18.35 123.125 18.35C 122.305 18.35 121.555 18.64 120.875 19.22C 120.195 19.8 119.665 20.52 119.285 21.38C 118.905 22.22 118.715 23.01 118.715 23.75C 118.715 24.49 118.935 25.13 119.375 25.67C 119.815 26.19 120.395 26.45 121.115 26.45ZM 135.011 43.64C 133.331 43.64 131.921 43.16 130.781 42.2C 129.661 41.26 128.991 39.67 128.771 37.43C 128.751 37.09 128.801 36.83 128.921 36.65C 129.061 36.47 129.241 36.38 129.461 36.38C 129.701 36.38 129.911 36.47 130.091 36.65C 130.271 36.85 130.351 37.11 130.331 37.43C 130.331 38.75 130.781 39.79 131.681 40.55C 132.601 41.33 133.771 41.72 135.191 41.72C 136.011 41.72 136.731 41.42 137.351 40.82C 137.991 40.22 138.481 39.38 138.821 38.3C 139.161 37.24 139.331 36.02 139.331 34.64C 139.331 32.22 139.361 29.87 139.421 27.59L 139.451 26.06C 138.671 26.88 137.961 27.48 137.321 27.86C 136.701 28.24 135.951 28.43 135.071 28.43C 133.531 28.43 132.391 28.02 131.651 27.2C 130.931 26.36 130.571 25.08 130.571 23.36C 130.571 22.38 130.831 21.36 131.351 20.3C 131.891 19.22 132.621 18.32 133.541 17.6C 134.481 16.88 135.541 16.52 136.721 16.52C 137.121 16.52 137.491 16.56 137.831 16.64C 139.111 16.92 139.971 18.11 140.411 20.21C 140.851 22.31 141.071 25.03 141.071 28.37C 141.071 29.29 141.051 30.51 141.011 32.03L 140.981 34.88C 140.981 36.02 140.801 37.26 140.441 38.6C 140.081 39.96 139.451 41.14 138.551 42.14C 137.651 43.14 136.471 43.64 135.011 43.64ZM 134.621 26.45C 136.101 26.45 137.221 26.1 137.981 25.4C 138.741 24.68 139.121 23.63 139.121 22.25C 139.121 22.07 139.101 21.76 139.061 21.32C 138.961 20.4 138.721 19.68 138.341 19.16C 137.981 18.62 137.411 18.35 136.631 18.35C 135.811 18.35 135.061 18.64 134.381 19.22C 133.701 19.8 133.171 20.52 132.791 21.38C 132.411 22.22 132.221 23.01 132.221 23.75C 132.221 24.49 132.441 25.13 132.881 25.67C 133.321 26.19 133.901 26.45 134.621 26.45ZM 145.486 29.03C 145.026 29.03 144.656 28.36 144.376 27.02C 144.096 25.66 143.916 24.49 143.836 23.51C 143.756 22.53 143.646 20.98 143.506 18.86C 143.486 18.52 143.476 18.08 143.476 17.54C 143.476 16.86 143.526 16.39 143.626 16.13C 143.746 15.87 143.936 15.74 144.196 15.74C 144.416 15.74 144.586 15.79 144.706 15.89C 144.846 15.97 144.966 16.11 145.066 16.31L 145.036 17.51C 145.036 18.79 145.096 20 145.216 21.14C 145.356 22.28 145.566 23.81 145.846 25.73C 146.006 26.57 146.116 27.26 146.176 27.8C 146.216 28.08 146.166 28.36 146.026 28.64C 145.886 28.9 145.706 29.03 145.486 29.03ZM 144.736 12.53C 144.296 12.53 143.966 12.36 143.746 12.02C 143.546 11.68 143.446 11.26 143.446 10.76C 143.446 10.54 143.456 10.38 143.476 10.28C 143.456 9.96 143.636 9.8 144.016 9.8C 144.296 9.8 144.576 9.87 144.856 10.01C 145.156 10.13 145.246 10.22 145.126 10.28C 145.326 10.8 145.426 11.21 145.426 11.51C 145.426 11.77 145.366 11.98 145.246 12.14C 145.126 12.28 144.956 12.41 144.736 12.53ZM 151.717 29.12C 151.437 29.2 151.277 29.24 151.237 29.24C 151.077 29.24 150.907 29.16 150.727 29C 150.067 28.02 149.587 26.31 149.287 23.87C 149.007 21.43 148.867 19.33 148.867 17.57C 148.867 17.29 149.067 17.15 149.467 17.15C 150.067 17.15 150.367 17.48 150.367 18.14C 150.367 18.32 150.357 18.47 150.337 18.59C 150.517 18.17 150.857 17.74 151.357 17.3C 151.857 16.86 152.437 16.49 153.097 16.19C 153.757 15.89 154.427 15.74 155.107 15.74C 157.247 15.74 158.807 16.69 159.787 18.59C 160.767 20.47 161.257 22.81 161.257 25.61C 161.257 26.57 161.157 27.34 160.957 27.92C 160.757 28.48 160.487 28.76 160.147 28.76C 159.787 28.76 159.607 28.65 159.607 28.43C 159.747 27.37 159.817 26.33 159.817 25.31C 159.817 22.73 159.367 20.78 158.467 19.46C 157.567 18.12 156.377 17.45 154.897 17.45C 154.177 17.45 153.477 17.63 152.797 17.99C 152.137 18.35 151.597 18.85 151.177 19.49C 150.777 20.13 150.577 20.86 150.577 21.68C 150.577 22.6 150.627 23.4 150.727 24.08C 150.827 24.76 150.987 25.58 151.207 26.54C 151.447 27.48 151.617 28.34 151.717 29.12ZM 168.702 43.64C 167.022 43.64 165.612 43.16 164.472 42.2C 163.352 41.26 162.682 39.67 162.462 37.43C 162.442 37.09 162.492 36.83 162.612 36.65C 162.752 36.47 162.932 36.38 163.152 36.38C 163.392 36.38 163.602 36.47 163.782 36.65C 163.962 36.85 164.042 37.11 164.022 37.43C 164.022 38.75 164.472 39.79 165.372 40.55C 166.292 41.33 167.462 41.72 168.882 41.72C 169.702 41.72 170.422 41.42 171.042 40.82C 171.682 40.22 172.172 39.38 172.512 38.3C 172.852 37.24 173.022 36.02 173.022 34.64C 173.022 32.22 173.052 29.87 173.112 27.59L 173.142 26.06C 172.362 26.88 171.652 27.48 171.012 27.86C 170.392 28.24 169.642 28.43 168.762 28.43C 167.222 28.43 166.082 28.02 165.342 27.2C 164.622 26.36 164.262 25.08 164.262 23.36C 164.262 22.38 164.522 21.36 165.042 20.3C 165.582 19.22 166.312 18.32 167.232 17.6C 168.172 16.88 169.232 16.52 170.412 16.52C 170.812 16.52 171.182 16.56 171.522 16.64C 172.802 16.92 173.662 18.11 174.102 20.21C 174.542 22.31 174.762 25.03 174.762 28.37C 174.762 29.29 174.742 30.51 174.702 32.03L 174.672 34.88C 174.672 36.02 174.492 37.26 174.132 38.6C 173.772 39.96 173.142 41.14 172.242 42.14C 171.342 43.14 170.162 43.64 168.702 43.64ZM 168.312 26.45C 169.792 26.45 170.912 26.1 171.672 25.4C 172.432 24.68 172.812 23.63 172.812 22.25C 172.812 22.07 172.792 21.76 172.752 21.32C 172.652 20.4 172.412 19.68 172.032 19.16C 171.672 18.62 171.102 18.35 170.322 18.35C 169.502 18.35 168.752 18.64 168.072 19.22C 167.392 19.8 166.862 20.52 166.482 21.38C 166.102 22.22 165.912 23.01 165.912 23.75C 165.912 24.49 166.132 25.13 166.572 25.67C 167.012 26.19 167.592 26.45 168.312 26.45ZM 189.498 29C 189.298 29.04 189.168 29.06 189.108 29.06C 188.488 29.06 188.058 28.6 187.818 27.68C 187.598 26.76 187.488 25.47 187.488 23.81C 187.488 23.13 187.508 22.07 187.548 20.63C 187.588 19.75 187.608 19.09 187.608 18.65C 185.148 18.65 183.918 18.37 183.918 17.81C 183.918 17.63 183.938 17.49 183.978 17.39C 184.038 17.29 184.158 17.24 184.338 17.24L 187.608 17.03C 187.588 16.05 187.538 14.98 187.458 13.82C 187.378 12.78 187.328 11.82 187.308 10.94C 187.308 10.72 187.398 10.57 187.578 10.49C 187.758 10.39 187.948 10.34 188.148 10.34C 188.388 10.34 188.588 10.47 188.748 10.73C 188.908 10.97 188.988 11.22 188.988 11.48L 189.198 16.97L 191.688 17.09C 192.068 17.05 192.388 17.12 192.648 17.3C 192.928 17.48 193.078 17.78 193.098 18.2C 192.678 18.38 192.218 18.49 191.718 18.53C 191.218 18.57 190.378 18.59 189.198 18.59C 189.198 20.45 189.288 23.51 189.468 27.77C 189.468 28.21 189.468 28.52 189.468 28.7C 189.488 28.86 189.498 28.96 189.498 29ZM 198.046 28.94C 197.946 28.96 197.836 28.58 197.716 27.8C 197.616 27.02 197.476 25.68 197.296 23.78C 197.016 20.66 196.696 17.8 196.336 15.2C 195.996 12.6 195.566 10.35 195.046 8.45C 195.006 8.29 195.066 8.15 195.226 8.03C 195.386 7.91 195.606 7.85 195.886 7.85C 196.026 7.85 196.136 7.86 196.216 7.88C 196.716 9.24 197.066 10.44 197.266 11.48C 197.486 12.52 197.686 13.8 197.866 15.32L 198.016 16.49C 199.216 15.77 200.316 15.41 201.316 15.41C 203.136 15.41 204.426 16.24 205.186 17.9C 205.966 19.54 206.356 21.88 206.356 24.92C 206.356 26.08 206.286 27.06 206.146 27.86C 206.006 28.64 205.836 29.03 205.636 29.03C 205.376 29.03 205.086 28.84 204.766 28.46L 204.766 27.47L 204.796 24.2C 204.796 23.58 204.776 22.81 204.736 21.89C 204.676 20.33 204.356 19.15 203.776 18.35C 203.216 17.55 202.246 17.15 200.866 17.15C 199.946 17.15 199.086 17.49 198.286 18.17C 198.286 18.93 198.316 19.71 198.376 20.51C 198.456 21.31 198.546 22.09 198.646 22.85C 198.786 23.91 198.886 24.85 198.946 25.67C 199.026 26.47 199.066 27.36 199.066 28.34C 198.946 28.58 198.806 28.74 198.646 28.82C 198.506 28.9 198.306 28.94 198.046 28.94ZM 210.994 29.03C 210.534 29.03 210.164 28.36 209.884 27.02C 209.604 25.66 209.424 24.49 209.344 23.51C 209.264 22.53 209.154 20.98 209.014 18.86C 208.994 18.52 208.984 18.08 208.984 17.54C 208.984 16.86 209.034 16.39 209.134 16.13C 209.254 15.87 209.444 15.74 209.704 15.74C 209.924 15.74 210.094 15.79 210.214 15.89C 210.354 15.97 210.474 16.11 210.574 16.31L 210.544 17.51C 210.544 18.79 210.604 20 210.724 21.14C 210.864 22.28 211.074 23.81 211.354 25.73C 211.514 26.57 211.624 27.26 211.684 27.8C 211.724 28.08 211.674 28.36 211.534 28.64C 211.394 28.9 211.214 29.03 210.994 29.03ZM 210.244 12.53C 209.804 12.53 209.474 12.36 209.254 12.02C 209.054 11.68 208.954 11.26 208.954 10.76C 208.954 10.54 208.964 10.38 208.984 10.28C 208.964 9.96 209.144 9.8 209.524 9.8C 209.804 9.8 210.084 9.87 210.364 10.01C 210.664 10.13 210.754 10.22 210.634 10.28C 210.834 10.8 210.934 11.21 210.934 11.51C 210.934 11.77 210.874 11.98 210.754 12.14C 210.634 12.28 210.464 12.41 210.244 12.53ZM 214.525 25.46C 214.805 25.24 215.075 25.13 215.335 25.13C 215.575 25.13 215.805 25.2 216.025 25.34C 216.265 25.48 216.505 25.66 216.745 25.88C 216.985 26.08 217.175 26.23 217.315 26.33C 217.775 26.69 218.405 26.97 219.205 27.17C 220.005 27.37 220.855 27.47 221.755 27.47C 222.775 27.47 223.685 27.28 224.485 26.9C 225.305 26.5 225.715 25.97 225.715 25.31C 225.715 24.71 225.495 24.24 225.055 23.9C 224.615 23.54 224.085 23.28 223.465 23.12C 222.845 22.96 222.025 22.81 221.005 22.67C 219.625 22.51 218.525 22.31 217.705 22.07C 216.905 21.83 216.265 21.44 215.785 20.9C 215.305 20.34 215.065 19.56 215.065 18.56C 215.065 17.48 215.575 16.68 216.595 16.16C 217.615 15.62 218.785 15.35 220.105 15.35C 221.305 15.35 222.325 15.61 223.165 16.13C 224.025 16.63 224.465 17.35 224.485 18.29C 224.525 18.83 224.445 19.26 224.245 19.58C 224.045 19.88 223.805 20.03 223.525 20.03C 223.365 20.03 223.225 19.97 223.105 19.85C 223.005 19.73 222.955 19.57 222.955 19.37C 222.955 19.05 223.065 18.7 223.285 18.32C 223.185 17.84 222.855 17.48 222.295 17.24C 221.755 17 221.105 16.88 220.345 16.88C 219.225 16.88 218.335 17.09 217.675 17.51C 217.015 17.91 216.685 18.39 216.685 18.95C 216.685 19.55 216.925 20.01 217.405 20.33C 217.885 20.65 218.465 20.88 219.145 21.02C 219.845 21.14 220.835 21.26 222.115 21.38C 223.175 21.52 224.035 21.69 224.695 21.89C 225.375 22.09 225.945 22.48 226.405 23.06C 226.865 23.62 227.095 24.43 227.095 25.49C 227.095 26.59 226.585 27.46 225.565 28.1C 224.545 28.72 223.325 29.03 221.905 29.03C 220.085 29.03 218.455 28.72 217.015 28.1C 215.595 27.48 214.765 26.6 214.525 25.46ZM 237.288 25.46C 237.568 25.24 237.838 25.13 238.098 25.13C 238.338 25.13 238.568 25.2 238.788 25.34C 239.028 25.48 239.268 25.66 239.508 25.88C 239.748 26.08 239.938 26.23 240.078 26.33C 240.538 26.69 241.168 26.97 241.968 27.17C 242.768 27.37 243.618 27.47 244.518 27.47C 245.538 27.47 246.448 27.28 247.248 26.9C 248.068 26.5 248.478 25.97 248.478 25.31C 248.478 24.71 248.258 24.24 247.818 23.9C 247.378 23.54 246.848 23.28 246.228 23.12C 245.608 22.96 244.788 22.81 243.768 22.67C 242.388 22.51 241.288 22.31 240.468 22.07C 239.668 21.83 239.028 21.44 238.548 20.9C 238.068 20.34 237.828 19.56 237.828 18.56C 237.828 17.48 238.338 16.68 239.358 16.16C 240.378 15.62 241.548 15.35 242.868 15.35C 244.068 15.35 245.088 15.61 245.928 16.13C 246.788 16.63 247.228 17.35 247.248 18.29C 247.288 18.83 247.208 19.26 247.008 19.58C 246.808 19.88 246.568 20.03 246.288 20.03C 246.128 20.03 245.988 19.97 245.868 19.85C 245.768 19.73 245.718 19.57 245.718 19.37C 245.718 19.05 245.828 18.7 246.048 18.32C 245.948 17.84 245.618 17.48 245.058 17.24C 244.518 17 243.868 16.88 243.108 16.88C 241.988 16.88 241.098 17.09 240.438 17.51C 239.778 17.91 239.448 18.39 239.448 18.95C 239.448 19.55 239.688 20.01 240.168 20.33C 240.648 20.65 241.228 20.88 241.908 21.02C 242.608 21.14 243.598 21.26 244.878 21.38C 245.938 21.52 246.798 21.69 247.458 21.89C 248.138 22.09 248.708 22.48 249.168 23.06C 249.628 23.62 249.858 24.43 249.858 25.49C 249.858 26.59 249.348 27.46 248.328 28.1C 247.308 28.72 246.088 29.03 244.668 29.03C 242.848 29.03 241.218 28.72 239.778 28.1C 238.358 27.48 237.528 26.6 237.288 25.46ZM 254.052 28.79C 253.612 26.61 253.272 24.03 253.032 21.05C 252.812 18.05 252.702 15.15 252.702 12.35C 252.702 10.95 252.732 9.71 252.792 8.63C 252.792 8.37 252.992 8.24 253.392 8.24C 253.712 8.24 253.912 8.32 253.992 8.48C 254.092 8.64 254.142 8.89 254.142 9.23C 254.142 12.47 254.202 15.24 254.322 17.54C 254.442 19.82 254.602 22.28 254.802 24.92C 254.922 26.62 255.002 27.77 255.042 28.37C 255.062 28.69 254.892 28.85 254.532 28.85C 254.412 28.85 254.252 28.83 254.052 28.79ZM 259.451 29.03C 258.991 29.03 258.621 28.36 258.341 27.02C 258.061 25.66 257.881 24.49 257.801 23.51C 257.721 22.53 257.611 20.98 257.471 18.86C 257.451 18.52 257.441 18.08 257.441 17.54C 257.441 16.86 257.491 16.39 257.591 16.13C 257.711 15.87 257.901 15.74 258.161 15.74C 258.381 15.74 258.551 15.79 258.671 15.89C 258.811 15.97 258.931 16.11 259.031 16.31L 259.001 17.51C 259.001 18.79 259.061 20 259.181 21.14C 259.321 22.28 259.531 23.81 259.811 25.73C 259.971 26.57 260.081 27.26 260.141 27.8C 260.181 28.08 260.131 28.36 259.991 28.64C 259.851 28.9 259.671 29.03 259.451 29.03ZM 258.701 12.53C 258.261 12.53 257.931 12.36 257.711 12.02C 257.511 11.68 257.411 11.26 257.411 10.76C 257.411 10.54 257.421 10.38 257.441 10.28C 257.421 9.96 257.601 9.8 257.981 9.8C 258.261 9.8 258.541 9.87 258.821 10.01C 259.121 10.13 259.211 10.22 259.091 10.28C 259.291 10.8 259.391 11.21 259.391 11.51C 259.391 11.77 259.331 11.98 259.211 12.14C 259.091 12.28 258.921 12.41 258.701 12.53ZM 267.962 28.97C 267.022 28.97 266.202 28.65 265.502 28.01C 264.822 27.37 264.302 26.54 263.942 25.52C 263.602 24.5 263.432 23.44 263.432 22.34C 263.432 20.42 263.832 18.8 264.632 17.48C 265.452 16.16 266.692 15.5 268.352 15.5C 269.352 15.5 270.222 15.68 270.962 16.04C 271.722 16.38 272.712 16.96 273.932 17.78L 274.712 18.32C 274.612 17.66 274.462 16.9 274.262 16.04C 274.062 15.18 273.932 14.59 273.872 14.27C 273.532 12.71 273.282 11.55 273.122 10.79C 272.982 10.01 272.912 9.32 272.912 8.72C 272.912 7.66 273.212 7.13 273.812 7.13C 274.032 7.61 274.292 8.64 274.592 10.22C 274.892 11.78 275.272 13.92 275.732 16.64C 276.212 19.52 276.632 21.87 276.992 23.69C 277.352 25.51 277.652 26.65 277.892 27.11C 277.892 27.57 277.552 27.8 276.872 27.8C 276.352 27.8 275.992 27.5 275.792 26.9C 275.612 26.3 275.502 25.25 275.462 23.75L 275.222 23.75C 274.382 25.27 273.292 26.52 271.952 27.5C 270.612 28.48 269.282 28.97 267.962 28.97ZM 268.352 27.5C 269.172 27.5 270.052 27.16 270.992 26.48C 271.952 25.78 272.762 24.94 273.422 23.96C 274.082 22.96 274.412 22.06 274.412 21.26L 274.412 20.36C 272.352 18.2 270.452 17.12 268.712 17.12C 267.492 17.12 266.552 17.57 265.892 18.47C 265.232 19.35 264.902 20.51 264.902 21.95L 264.932 22.58C 265.052 24.1 265.392 25.3 265.952 26.18C 266.512 27.06 267.312 27.5 268.352 27.5ZM 286.758 29C 285.478 29 284.298 28.75 283.218 28.25C 282.138 27.75 281.278 27.04 280.638 26.12C 279.998 25.2 279.678 24.14 279.678 22.94C 279.678 21.6 279.928 20.35 280.428 19.19C 280.928 18.01 281.658 17.07 282.618 16.37C 283.598 15.65 284.738 15.29 286.038 15.29C 287.398 15.29 288.428 15.73 289.128 16.61C 289.828 17.47 290.158 18.56 290.118 19.88C 290.118 21.06 289.648 21.96 288.708 22.58C 287.788 23.2 286.608 23.51 285.168 23.51C 284.948 23.51 284.618 23.49 284.178 23.45C 283.458 23.37 282.948 23.26 282.648 23.12C 282.348 22.98 282.198 22.7 282.198 22.28C 282.198 22.14 282.238 22.04 282.318 21.98C 282.398 21.9 282.558 21.86 282.798 21.86C 283.058 21.86 283.518 21.92 284.178 22.04C 284.818 22.16 285.388 22.22 285.888 22.22C 287.728 22.22 288.648 21.42 288.648 19.82C 288.648 18.86 288.468 18.1 288.108 17.54C 287.768 16.98 287.158 16.7 286.278 16.7C 285.318 16.7 284.458 16.96 283.698 17.48C 282.938 17.98 282.348 18.64 281.928 19.46C 281.528 20.28 281.328 21.15 281.328 22.07C 281.328 23.65 281.768 24.95 282.648 25.97C 283.528 26.97 284.888 27.47 286.728 27.47C 286.948 27.47 287.318 27.45 287.838 27.41C 288.058 27.39 288.328 27.33 288.648 27.23C 288.968 27.13 289.198 27.06 289.338 27.02C 290.198 26.72 290.828 26.57 291.228 26.57C 291.528 26.57 291.758 26.65 291.918 26.81C 291.418 27.57 290.668 28.13 289.668 28.49C 288.688 28.83 287.718 29 286.758 29ZM 295.765 29C 294.945 27.4 294.295 25.52 293.815 23.36C 293.355 21.2 293.125 19.33 293.125 17.75C 293.125 17.13 293.265 16.73 293.545 16.55C 293.705 16.45 293.825 16.4 293.905 16.4C 294.045 16.4 294.145 16.51 294.205 16.73C 294.285 16.95 294.365 17.35 294.445 17.93L 294.595 19.01C 294.815 17.93 295.235 17.08 295.855 16.46C 296.495 15.82 297.275 15.5 298.195 15.5C 299.215 15.5 299.975 15.7 300.475 16.1C 300.975 16.48 301.225 17.12 301.225 18.02C 300.225 17.54 299.315 17.3 298.495 17.3C 297.715 17.3 297.045 17.51 296.485 17.93C 295.925 18.35 295.535 18.97 295.315 19.79C 295.135 20.35 295.045 20.88 295.045 21.38C 295.045 21.92 295.115 22.43 295.255 22.91C 295.415 23.37 295.655 23.94 295.975 24.62C 296.275 25.32 296.505 25.92 296.665 26.42C 296.845 26.92 296.945 27.46 296.965 28.04C 296.965 28.38 296.845 28.63 296.605 28.79C 296.365 28.93 296.085 29 295.765 29ZM 303.102 22.52C 302.822 22.52 302.652 22.4 302.592 22.16C 302.432 21.1 302.352 19.34 302.352 16.88L 302.382 13.7C 302.402 13.02 302.412 12.05 302.412 10.79C 302.412 9.57 302.382 8.59 302.322 7.85C 302.342 7.75 302.432 7.67 302.592 7.61C 302.772 7.53 302.982 7.49 303.222 7.49C 303.442 7.49 303.622 7.52 303.762 7.58C 303.782 8.9 303.822 11.05 303.882 14.03C 303.962 16.99 304.022 19.22 304.062 20.72L 304.092 21.41C 304.092 22.15 303.842 22.52 303.342 22.52L 303.102 22.52ZM 303.042 29.03C 302.562 29.03 302.212 28.91 301.992 28.67C 301.792 28.41 301.692 28.04 301.692 27.56C 301.692 27 301.892 26.58 302.292 26.3C 302.712 26.02 303.242 25.88 303.882 25.88C 304.262 25.88 304.572 26.07 304.812 26.45C 305.052 26.81 305.172 27.18 305.172 27.56C 305.172 27.96 304.922 28.31 304.422 28.61C 303.942 28.89 303.482 29.03 303.042 29.03Z"/>
<path id="path1_stroke" d="M 80.8515 0.509749C 81.133 -0.841957 80.2654 -2.16595 78.9137 -2.44748L 56.8864 -7.03522C 55.5347 -7.31674 54.2107 -6.44919 53.9292 -5.09749C 53.6477 -3.74578 54.5152 -2.42178 55.8669 -2.14026L 75.4467 1.93773L 71.3688 21.5176C 71.0872 22.8693 71.9548 24.1933 73.3065 24.4748C 74.6582 24.7563 75.9822 23.8888 76.2637 22.5371L 80.8515 0.509749ZM -0.97353 14.108C 15.9406 21.2591 29.8957 22.4477 42.8589 19.6482C 55.6095 16.8651 67.365 10.2207 79.7742 2.09108L 77.0338 -2.09108C 64.7589 5.95358 53.8267 12.1938 41.8035 14.7609C 29.9929 17.3115 17.088 16.3156 0.97353 9.50271L -0.97353 14.108Z"/>
</defs>
</svg>
