<svg width="336" height="67" viewBox="0 0 336 67" version="1.1" xmlns="http://www.w3.org/2000/svg" xmlns:xlink="http://www.w3.org/1999/xlink">
<title>try-dragging</title>
<desc>Created using Figma</desc>
<g id="Canvas" transform="translate(-584 445)">
<g id="try-dragging">
<g id="Fill 106">
<use xlink:href="#path0_fill" transform="matrix(0.48815 0.87276 -0.87276 0.48815 918.217 -446)" fill="#FF3860"/>
</g>
<g id="Try dragging this slider!">
<use xlink:href="#path1_fill" transform="translate(583 -402)"/>
</g>
</g>
</g>
<defs>
<path id="path0_fill" fill-rule="evenodd" d="M 1.16154 0.961065C 0.389442 1.9972 0.00431043 3.15833 0.00186902 4.44843C -0.0301134 5.63099 0.353798 6.71705 0.736488 7.79944C 0.810707 8.00947 0.884926 8.2193 0.955971 8.42969C 1.30106 9.45343 1.6674 10.4703 2.03385 11.4872C 2.47062 12.6995 2.90739 13.9118 3.30802 15.1356C 4.34367 18.2957 5.36039 21.4622 6.37724 24.6287C 7.03812 26.687 7.69901 28.7452 8.36515 30.8018C 8.59574 31.5114 8.87626 32.2076 9.18095 32.889C 9.57487 33.7672 10.6133 33.8884 11.365 33.1945C 12.5777 32.074 13.0068 30.8159 12.4527 29.164C 10.9446 24.6702 9.50834 20.153 8.08231 15.6326C 7.45609 13.647 6.90836 11.6372 6.36137 9.62916L 6.33353 9.52753C 6.29057 9.37226 6.45805 9.14222 6.58854 8.96296L 6.62345 8.91492C 6.66093 8.86097 6.86881 8.89692 6.98209 8.93836C 7.33219 9.06727 7.69169 9.18604 8.01591 9.365C 14.3562 12.8539 20.6925 16.3499 27.0281 19.8459C 27.2456 19.9658 27.4604 20.0915 27.6751 20.2172C 28.1067 20.4702 28.5385 20.723 28.9926 20.9281C 29.6122 21.2086 30.2209 21.0195 30.7194 20.5812C 30.9969 20.3381 31.2586 20.0537 31.4508 19.7404C 32.3549 18.2698 32.158 17.1196 30.7476 16.2155C 29.173 15.2067 27.5625 14.2471 25.9208 13.3525C 21.7753 11.0902 17.6128 8.85877 13.4505 6.62739L 11.7517 5.71668C 9.54752 4.53443 7.37675 3.31775 5.62406 1.47291C 5.20206 1.02826 4.663 0.680547 4.13944 0.349248C 3.11808 -0.296199 1.89286 -0.0211741 1.16154 0.961065ZM 24.3454 66.1809C 26.0645 60.7892 27.0216 55.2781 27.0653 49.6176C 27.1414 47.3336 26.8567 45.0806 26.5718 42.8257C 26.5435 42.6013 26.5152 42.3767 26.4872 42.1522C 25.6058 35.1032 22.9795 28.652 19.7023 22.4367C 18.6497 20.441 17.1534 18.7368 15.578 17.1232C 14.9217 16.452 13.9388 16.5411 13.2714 17.2803C 12.2798 18.3781 12.1211 19.619 12.8877 20.6833C 13.3254 21.2896 13.8285 21.8499 14.3099 22.4235C 15.9266 24.3511 17.2432 26.4633 18.22 28.784C 18.4692 29.376 18.7266 29.9653 18.984 30.5545C 19.5769 31.9113 20.17 33.2684 20.6619 34.6609C 24.0391 44.2322 24.5149 53.9504 21.816 63.7562C 19.8562 70.8756 17.0729 77.6964 13.9223 84.364C 13.4677 85.3256 12.9244 86.2454 12.3809 87.1652C 12.0977 87.6446 11.8144 88.124 11.5437 88.6093C 11.495 88.6964 11.4457 88.7834 11.3964 88.8704C 11.1379 89.3269 10.8782 89.7852 10.699 90.2722C 10.5232 90.7481 10.5889 91.2614 11.0537 91.6083C 11.4882 91.9334 12.0071 92.0295 12.4486 91.7365C 12.9526 91.402 13.5004 91.0145 13.8035 90.5128C 13.9562 90.2614 14.1097 90.01 14.2632 89.7586C 15.2812 88.0911 16.3028 86.418 17.1237 84.6539C 19.9187 78.652 22.331 72.493 24.3454 66.1809Z"/>
<path id="path1_fill" d="M 6.816 2.832L 2.712 3.024C 2.456 3.024 2.192 2.856 1.92 2.52C 1.648 2.184 1.512 1.856 1.512 1.536C 1.512 1.248 1.968 1.064 2.88 0.984C 3.808 0.904 5.832 0.864 8.952 0.864C 10.568 0.864 11.896 1.04 12.936 1.392C 13.992 1.744 14.52 2.136 14.52 2.568C 14.52 2.872 14.256 3.024 13.728 3.024C 13.2 3.024 12.464 2.992 11.52 2.928C 10.576 2.864 9.672 2.824 8.808 2.808C 8.856 2.968 8.88 3.144 8.88 3.336C 8.88 3.928 8.256 6.68 7.008 11.592C 6.88 12.104 6.688 12.904 6.432 13.992C 6.176 15.08 5.984 15.84 5.856 16.272C 5.632 17.12 5.432 17.544 5.256 17.544C 5.016 17.544 4.744 17.368 4.44 17.016C 4.152 16.648 4.008 16.28 4.008 15.912C 4.008 15.544 4.44 13.656 5.304 10.248C 6.168 6.824 6.672 4.352 6.816 2.832ZM 15.0277 8.664L 14.9557 6.864C 14.9557 6.112 15.1317 5.736 15.4837 5.736C 15.7877 5.736 16.0757 5.936 16.3477 6.336C 16.6358 6.72 16.7798 7.184 16.7798 7.728C 16.7798 8.256 16.7637 8.656 16.7318 8.928C 18.1237 6.816 19.4438 5.76 20.6917 5.76C 21.4758 5.76 21.8677 5.952 21.8677 6.336C 21.8677 6.528 21.7798 6.704 21.6038 6.864C 21.4278 7.024 21.1477 7.208 20.7638 7.416C 19.9158 7.784 19.1958 8.352 18.6037 9.12C 18.0278 9.872 17.5558 10.728 17.1877 11.688C 16.8198 12.648 16.5238 13.456 16.2997 14.112C 16.0917 14.768 15.9318 15.28 15.8197 15.648C 15.7078 16.016 15.5798 16.376 15.4358 16.728C 15.1798 17.368 14.8838 17.688 14.5478 17.688C 14.2758 17.688 14.0517 17.536 13.8758 17.232C 13.7158 16.912 13.6357 16.608 13.6357 16.32C 13.6357 16.016 13.7717 15.424 14.0438 14.544C 14.6997 12.528 15.0277 10.568 15.0277 8.664ZM 30.9171 5.736C 31.1731 5.736 31.4451 5.928 31.7331 6.312C 32.0371 6.68 32.1891 7.096 32.1891 7.56C 32.1891 7.88 31.8611 8.968 31.2051 10.824C 30.5491 12.68 30.1011 13.944 29.8611 14.616C 29.6371 15.272 29.3251 16.152 28.9251 17.256C 28.5411 18.344 28.1651 19.408 27.7971 20.448C 26.9971 22.736 25.7971 23.88 24.1971 23.88C 23.2851 23.88 22.4131 23.6 21.5811 23.04C 20.7491 22.496 20.3331 21.928 20.3331 21.336C 20.3331 21.112 20.4371 20.864 20.6451 20.592C 20.8371 20.32 21.0051 20.184 21.1491 20.184C 21.2931 20.184 21.5251 20.36 21.8451 20.712C 22.7731 21.768 23.5651 22.296 24.2211 22.296C 24.7171 22.296 25.1651 21.856 25.5651 20.976C 25.9651 20.112 26.3411 19.128 26.6931 18.024C 27.0611 16.936 27.2611 16.336 27.2931 16.224C 27.3411 16.112 27.3891 15.968 27.4371 15.792C 27.5011 15.616 27.5571 15.456 27.6051 15.312C 26.4691 16.864 25.3491 17.64 24.2451 17.64C 23.5731 17.64 22.9491 17.328 22.3731 16.704C 21.8131 16.08 21.5331 15.344 21.5331 14.496C 21.5331 13.648 21.7411 12.504 22.1571 11.064C 22.5731 9.624 23.0611 8.376 23.6211 7.32C 24.1811 6.264 24.6371 5.736 24.9891 5.736C 25.2771 5.736 25.5411 5.872 25.7811 6.144C 26.0371 6.4 26.1651 6.664 26.1651 6.936C 26.1651 7.208 25.9571 7.776 25.5411 8.64C 24.2451 11.296 23.5971 13.36 23.5971 14.832C 23.5971 15.088 23.6771 15.304 23.8371 15.48C 23.9971 15.64 24.1891 15.72 24.4131 15.72C 24.9891 15.72 25.6771 15.208 26.4771 14.184C 27.2771 13.16 28.0131 11.944 28.6851 10.536C 29.2451 9.352 29.8291 7.84 30.4371 6C 30.5011 5.824 30.6611 5.736 30.9171 5.736ZM 52.6879 -0.984C 52.9439 -0.984 53.2559 -0.744 53.6239 -0.263999C 54.0079 0.2 54.1999 0.639999 54.1999 1.056C 54.1999 1.472 53.9999 2.656 53.5999 4.608C 53.1999 6.544 52.7359 8.552 52.2079 10.632C 51.0559 15.304 50.2959 17.64 49.9279 17.64C 49.7039 17.64 49.4559 17.504 49.1839 17.232C 48.9279 16.944 48.7999 16.696 48.7999 16.488C 48.7999 16.28 48.8559 15.864 48.9679 15.24C 47.3999 16.84 46.0319 17.64 44.8639 17.64C 44.1599 17.64 43.5199 17.32 42.9439 16.68C 42.3839 16.04 42.1039 15.376 42.1039 14.688C 42.1039 13.696 42.3679 12.52 42.8959 11.16C 43.4399 9.784 44.2159 8.536 45.2239 7.416C 46.2319 6.296 47.3039 5.736 48.4399 5.736C 49.5759 5.736 50.3679 6.416 50.8159 7.776C 51.6319 4.384 52.0799 1.704 52.1599 -0.263999C 52.1599 -0.744 52.3359 -0.984 52.6879 -0.984ZM 50.0479 10.8C 50.0479 9.936 49.8959 9.208 49.5919 8.616C 49.3039 8.024 48.9519 7.728 48.5359 7.728C 47.8479 7.728 47.1439 8.152 46.4239 9C 45.7039 9.848 45.1279 10.824 44.6959 11.928C 44.2799 13.016 44.0719 13.96 44.0719 14.76C 44.0719 15.048 44.1759 15.28 44.3839 15.456C 44.5919 15.632 44.8399 15.72 45.1279 15.72C 45.7519 15.72 46.5919 15.272 47.6479 14.376C 48.7199 13.48 49.4959 12.424 49.9759 11.208L 50.0479 10.92L 50.0479 10.8ZM 55.8324 8.664L 55.7604 6.864C 55.7604 6.112 55.9364 5.736 56.2884 5.736C 56.5924 5.736 56.8804 5.936 57.1524 6.336C 57.4404 6.72 57.5844 7.184 57.5844 7.728C 57.5844 8.256 57.5684 8.656 57.5364 8.928C 58.9284 6.816 60.2484 5.76 61.4964 5.76C 62.2804 5.76 62.6724 5.952 62.6724 6.336C 62.6724 6.528 62.5844 6.704 62.4084 6.864C 62.2324 7.024 61.9524 7.208 61.5684 7.416C 60.7204 7.784 60.0004 8.352 59.4084 9.12C 58.8324 9.872 58.3604 10.728 57.9924 11.688C 57.6244 12.648 57.3284 13.456 57.1044 14.112C 56.8964 14.768 56.7364 15.28 56.6244 15.648C 56.5124 16.016 56.3844 16.376 56.2404 16.728C 55.9844 17.368 55.6884 17.688 55.3524 17.688C 55.0804 17.688 54.8564 17.536 54.6804 17.232C 54.5204 16.912 54.4404 16.608 54.4404 16.32C 54.4404 16.016 54.5764 15.424 54.8484 14.544C 55.5044 12.528 55.8324 10.568 55.8324 8.664ZM 68.7217 5.736C 69.4417 5.736 70.1058 6.104 70.7137 6.84C 71.3218 7.56 71.6258 8.216 71.6258 8.808C 71.6258 9.384 71.4257 9.976 71.0258 10.584C 71.2177 10.824 71.3138 11.032 71.3138 11.208C 71.3138 11.656 71.2097 12.424 71.0017 13.512C 70.8098 14.6 70.6898 15.312 70.6418 15.648C 70.6098 15.984 70.5777 16.256 70.5457 16.464C 70.5138 16.656 70.4738 16.848 70.4258 17.04C 70.3617 17.44 70.2178 17.64 69.9937 17.64C 69.7057 17.64 69.4658 17.392 69.2737 16.896C 69.0977 16.384 68.9938 15.728 68.9618 14.928C 67.5378 16.736 66.2177 17.64 65.0018 17.64C 64.2657 17.64 63.5378 17.328 62.8177 16.704C 62.1137 16.064 61.7618 15.408 61.7618 14.736C 61.7618 13.776 62.1137 12.592 62.8177 11.184C 63.5217 9.76 64.4337 8.496 65.5538 7.392C 66.6738 6.288 67.7298 5.736 68.7217 5.736ZM 69.8257 9.96C 69.8257 8.472 69.5297 7.728 68.9377 7.728C 68.3138 7.728 67.5857 8.176 66.7538 9.072C 65.9217 9.952 65.2177 10.952 64.6418 12.072C 64.0658 13.192 63.7777 14.08 63.7777 14.736C 63.7777 15.008 63.8898 15.232 64.1137 15.408C 64.3377 15.568 64.6018 15.648 64.9057 15.648C 65.6578 15.648 66.5057 15.144 67.4498 14.136C 68.3937 13.112 69.0498 11.872 69.4178 10.416C 69.4658 10.176 69.6017 10.032 69.8257 9.984L 69.8257 9.96ZM 83.0917 11.16C 83.0917 11.8 82.8117 12.528 82.2517 13.344C 81.8198 14.32 81.3558 15.728 80.8597 17.568C 80.3637 19.392 79.9478 20.696 79.6118 21.48C 78.9398 23.112 77.9077 23.928 76.5157 23.928C 75.3798 23.928 74.4198 23.616 73.6357 22.992C 72.8678 22.384 72.4838 21.776 72.4838 21.168C 72.4838 20.912 72.5637 20.656 72.7238 20.4C 72.8678 20.144 73.0197 20.016 73.1798 20.016C 73.3557 20.016 73.5477 20.136 73.7557 20.376C 73.9638 20.616 74.1558 20.872 74.3317 21.144C 74.5238 21.432 74.8037 21.696 75.1718 21.936C 75.5557 22.176 75.9237 22.296 76.2758 22.296C 76.6278 22.296 76.8917 22.24 77.0677 22.128C 77.2438 22.032 77.4118 21.864 77.5717 21.624C 77.7318 21.4 77.8677 21.168 77.9798 20.928C 78.0918 20.704 78.2118 20.376 78.3398 19.944C 78.4837 19.528 78.5958 19.168 78.6758 18.864C 78.7557 18.56 78.8677 18.136 79.0117 17.592C 79.1558 17.032 79.2758 16.584 79.3718 16.248C 78.1237 17.176 77.1077 17.64 76.3237 17.64C 75.5398 17.64 74.8597 17.328 74.2837 16.704C 73.7077 16.064 73.4198 15.328 73.4198 14.496C 73.4198 13.648 73.7318 12.528 74.3558 11.136C 74.9957 9.744 75.8518 8.496 76.9238 7.392C 77.9957 6.288 79.0437 5.736 80.0677 5.736C 80.7238 5.736 81.2757 5.984 81.7238 6.48C 82.4597 7.296 82.8278 8.456 82.8278 9.96C 82.8278 10.152 82.8198 10.288 82.8037 10.368C 82.9958 10.64 83.0917 10.904 83.0917 11.16ZM 75.3637 14.736C 75.3637 15.008 75.4517 15.232 75.6277 15.408C 75.8038 15.568 76.0277 15.648 76.2997 15.648C 77.0998 15.648 78.0438 15.176 79.1317 14.232C 80.2197 13.272 80.9877 12.16 81.4358 10.896C 81.3717 10.688 81.3157 10.368 81.2678 9.936C 81.2198 9.504 81.1718 9.16 81.1237 8.904C 81.0757 8.648 80.9718 8.392 80.8117 8.136C 80.6517 7.864 80.4437 7.728 80.1877 7.728C 79.5638 7.728 78.8598 8.176 78.0757 9.072C 77.2917 9.968 76.6437 10.968 76.1317 12.072C 75.6197 13.176 75.3637 14.064 75.3637 14.736ZM 94.4824 11.16C 94.4824 11.8 94.2024 12.528 93.6424 13.344C 93.2104 14.32 92.7464 15.728 92.2504 17.568C 91.7544 19.392 91.3384 20.696 91.0024 21.48C 90.3304 23.112 89.2984 23.928 87.9064 23.928C 86.7704 23.928 85.8104 23.616 85.0264 22.992C 84.2584 22.384 83.8744 21.776 83.8744 21.168C 83.8744 20.912 83.9544 20.656 84.1144 20.4C 84.2584 20.144 84.4104 20.016 84.5704 20.016C 84.7464 20.016 84.9384 20.136 85.1464 20.376C 85.3544 20.616 85.5464 20.872 85.7224 21.144C 85.9144 21.432 86.1944 21.696 86.5624 21.936C 86.9464 22.176 87.3144 22.296 87.6664 22.296C 88.0184 22.296 88.2824 22.24 88.4584 22.128C 88.6344 22.032 88.8024 21.864 88.9624 21.624C 89.1224 21.4 89.2584 21.168 89.3704 20.928C 89.4824 20.704 89.6024 20.376 89.7304 19.944C 89.8744 19.528 89.9864 19.168 90.0664 18.864C 90.1464 18.56 90.2584 18.136 90.4024 17.592C 90.5464 17.032 90.6664 16.584 90.7624 16.248C 89.5144 17.176 88.4984 17.64 87.7144 17.64C 86.9304 17.64 86.2504 17.328 85.6744 16.704C 85.0984 16.064 84.8104 15.328 84.8104 14.496C 84.8104 13.648 85.1224 12.528 85.7464 11.136C 86.3864 9.744 87.2424 8.496 88.3144 7.392C 89.3864 6.288 90.4344 5.736 91.4584 5.736C 92.1144 5.736 92.6664 5.984 93.1144 6.48C 93.8504 7.296 94.2184 8.456 94.2184 9.96C 94.2184 10.152 94.2104 10.288 94.1944 10.368C 94.3864 10.64 94.4824 10.904 94.4824 11.16ZM 86.7544 14.736C 86.7544 15.008 86.8424 15.232 87.0184 15.408C 87.1944 15.568 87.4184 15.648 87.6904 15.648C 88.4904 15.648 89.4344 15.176 90.5224 14.232C 91.6104 13.272 92.3784 12.16 92.8264 10.896C 92.7624 10.688 92.7064 10.368 92.6584 9.936C 92.6104 9.504 92.5624 9.16 92.5144 8.904C 92.4664 8.648 92.3624 8.392 92.2024 8.136C 92.0424 7.864 91.8344 7.728 91.5784 7.728C 90.9544 7.728 90.2504 8.176 89.4664 9.072C 88.6824 9.968 88.0344 10.968 87.5224 12.072C 87.0104 13.176 86.7544 14.064 86.7544 14.736ZM 99.441 2.328C 99.441 2.008 99.569 1.704 99.825 1.416C 100.081 1.128 100.337 0.984 100.593 0.984C 100.865 0.984 101.185 1.312 101.553 1.968C 101.921 2.608 102.105 3.144 102.105 3.576C 102.105 3.736 102.033 3.88 101.889 4.008C 101.745 4.136 101.593 4.2 101.433 4.2C 101.049 4.2 100.617 3.968 100.137 3.504C 99.673 3.04 99.441 2.648 99.441 2.328ZM 99.321 5.736C 99.625 5.736 99.913 5.92 100.185 6.288C 100.457 6.656 100.593 7.016 100.593 7.368C 100.593 7.72 100.361 8.776 99.897 10.536C 99.433 12.28 98.849 14.24 98.145 16.416C 97.873 17.216 97.529 17.616 97.113 17.616C 96.889 17.616 96.697 17.528 96.537 17.352C 96.377 17.16 96.297 16.952 96.297 16.728C 96.297 16.488 96.353 16.12 96.465 15.624C 96.593 15.112 96.769 14.44 96.993 13.608C 97.233 12.76 97.417 12.072 97.545 11.544C 97.689 11.016 97.833 10.424 97.977 9.768C 98.121 9.096 98.233 8.56 98.313 8.16C 98.409 7.744 98.513 7.328 98.625 6.912C 98.849 6.128 99.081 5.736 99.321 5.736ZM 104.44 13.464C 105.976 10.856 107.224 8.92 108.184 7.656C 109.16 6.376 109.952 5.736 110.56 5.736C 111.184 5.736 111.768 6.064 112.312 6.72C 112.872 7.376 113.152 8.072 113.152 8.808C 113.152 9.96 112.888 11.368 112.36 13.032C 111.4 16.104 110.536 17.64 109.768 17.64C 109.416 17.64 109.24 17.4 109.24 16.92C 109.24 16.584 109.408 15.904 109.744 14.88C 110.096 13.84 110.416 12.824 110.704 11.832C 111.008 10.824 111.16 10.072 111.16 9.576C 111.16 9.064 111.08 8.688 110.92 8.448C 110.776 8.208 110.624 8.088 110.464 8.088C 110.32 8.088 110.168 8.136 110.008 8.232C 109.848 8.328 109.664 8.488 109.456 8.712C 109.264 8.936 109.08 9.16 108.904 9.384C 108.728 9.592 108.504 9.896 108.232 10.296C 107.976 10.696 107.76 11.04 107.584 11.328C 107.408 11.6 107.152 12 106.816 12.528C 106.48 13.056 106.224 13.456 106.048 13.728C 105.872 14 105.64 14.368 105.352 14.832C 105.064 15.296 104.832 15.656 104.656 15.912C 104.496 16.168 104.312 16.448 104.104 16.752C 103.704 17.344 103.384 17.64 103.144 17.64C 102.92 17.64 102.656 17.464 102.352 17.112C 102.048 16.744 101.896 16.424 101.896 16.152C 101.896 16.072 101.952 15.856 102.064 15.504C 102.368 14.576 102.704 13.432 103.072 12.072C 103.44 10.696 103.64 9.136 103.672 7.392C 103.72 6.224 103.888 5.64 104.176 5.64C 104.528 5.64 104.88 5.824 105.232 6.192C 105.584 6.56 105.76 6.968 105.76 7.416C 105.76 7.848 105.624 8.696 105.352 9.96C 105.096 11.208 104.792 12.376 104.44 13.464ZM 124.389 11.16C 124.389 11.8 124.109 12.528 123.549 13.344C 123.117 14.32 122.653 15.728 122.157 17.568C 121.661 19.392 121.245 20.696 120.909 21.48C 120.237 23.112 119.205 23.928 117.813 23.928C 116.677 23.928 115.717 23.616 114.933 22.992C 114.165 22.384 113.781 21.776 113.781 21.168C 113.781 20.912 113.861 20.656 114.021 20.4C 114.165 20.144 114.317 20.016 114.477 20.016C 114.653 20.016 114.845 20.136 115.053 20.376C 115.261 20.616 115.453 20.872 115.629 21.144C 115.821 21.432 116.101 21.696 116.469 21.936C 116.853 22.176 117.221 22.296 117.573 22.296C 117.925 22.296 118.189 22.24 118.365 22.128C 118.541 22.032 118.709 21.864 118.869 21.624C 119.029 21.4 119.165 21.168 119.277 20.928C 119.389 20.704 119.509 20.376 119.637 19.944C 119.781 19.528 119.893 19.168 119.973 18.864C 120.053 18.56 120.165 18.136 120.309 17.592C 120.453 17.032 120.573 16.584 120.669 16.248C 119.421 17.176 118.405 17.64 117.621 17.64C 116.837 17.64 116.157 17.328 115.581 16.704C 115.005 16.064 114.717 15.328 114.717 14.496C 114.717 13.648 115.029 12.528 115.653 11.136C 116.293 9.744 117.149 8.496 118.221 7.392C 119.293 6.288 120.341 5.736 121.365 5.736C 122.021 5.736 122.573 5.984 123.021 6.48C 123.757 7.296 124.125 8.456 124.125 9.96C 124.125 10.152 124.117 10.288 124.101 10.368C 124.293 10.64 124.389 10.904 124.389 11.16ZM 116.661 14.736C 116.661 15.008 116.749 15.232 116.925 15.408C 117.101 15.568 117.325 15.648 117.597 15.648C 118.397 15.648 119.341 15.176 120.429 14.232C 121.517 13.272 122.285 12.16 122.733 10.896C 122.669 10.688 122.613 10.368 122.565 9.936C 122.517 9.504 122.469 9.16 122.421 8.904C 122.373 8.648 122.269 8.392 122.109 8.136C 121.949 7.864 121.741 7.728 121.485 7.728C 120.861 7.728 120.157 8.176 119.373 9.072C 118.589 9.968 117.941 10.968 117.429 12.072C 116.917 13.176 116.661 14.064 116.661 14.736ZM 138.596 15.24C 138.596 15.544 138.772 15.696 139.124 15.696C 139.732 15.696 140.468 15.528 141.332 15.192C 142.212 14.84 142.7 14.664 142.796 14.664C 143.084 14.664 143.228 14.816 143.228 15.12C 143.228 15.584 142.748 16.12 141.788 16.728C 140.844 17.336 139.98 17.64 139.196 17.64C 138.428 17.64 137.788 17.432 137.276 17.016C 136.764 16.584 136.508 16.144 136.508 15.696C 136.508 15.248 136.604 14.68 136.796 13.992C 136.988 13.288 137.26 12.368 137.612 11.232C 137.98 10.08 138.268 9.128 138.476 8.376C 137.724 8.552 137.22 8.64 136.964 8.64C 136.708 8.64 136.452 8.512 136.196 8.256C 135.956 7.984 135.836 7.728 135.836 7.488C 135.836 7.104 136.876 6.736 138.956 6.384C 139.244 5.056 139.388 3.88 139.388 2.856C 139.388 2.376 139.548 2.136 139.868 2.136C 140.14 2.136 140.476 2.312 140.876 2.664C 141.276 3 141.476 3.384 141.476 3.816C 141.476 4.248 141.34 5.008 141.068 6.096C 141.98 6.016 142.708 5.976 143.252 5.976C 144.212 5.976 144.692 6.184 144.692 6.6C 144.692 6.84 144.428 7.04 143.9 7.2C 143.388 7.36 142.3 7.608 140.636 7.944C 140.3 9.208 139.876 10.656 139.364 12.288C 138.852 13.904 138.596 14.888 138.596 15.24ZM 148.021 -0.0479994C 148.021 -0.672 148.213 -0.984 148.597 -0.984C 148.901 -0.984 149.221 -0.744 149.557 -0.263999C 149.909 0.216 150.085 0.679999 150.085 1.128C 150.085 2.168 149.821 3.944 149.293 6.456C 148.781 8.952 148.109 11.448 147.277 13.944C 148.877 11.048 150.213 8.96 151.285 7.68C 152.373 6.384 153.301 5.736 154.069 5.736C 154.485 5.736 154.965 6.096 155.509 6.816C 156.069 7.536 156.349 8.256 156.349 8.976C 156.349 9.696 156.149 10.776 155.749 12.216C 154.757 15.832 153.821 17.64 152.941 17.64C 152.589 17.64 152.413 17.4 152.413 16.92C 152.413 16.44 152.605 15.632 152.989 14.496C 153.837 12.016 154.261 10.344 154.261 9.48C 154.261 9.192 154.189 8.952 154.045 8.76C 153.901 8.568 153.725 8.472 153.517 8.472C 153.309 8.472 153.053 8.584 152.749 8.808C 152.445 9.032 152.077 9.424 151.645 9.984C 151.101 10.704 150.533 11.512 149.941 12.408C 149.365 13.304 149.013 13.848 148.885 14.04C 148.773 14.216 148.565 14.544 148.261 15.024C 147.973 15.504 147.757 15.864 147.613 16.104C 147.469 16.328 147.293 16.576 147.085 16.848C 146.717 17.376 146.437 17.64 146.245 17.64C 146.053 17.64 145.797 17.464 145.477 17.112C 145.157 16.744 144.997 16.44 144.997 16.2C 144.997 15.944 145.085 15.472 145.261 14.784C 146.061 11.712 146.565 9.608 146.773 8.472C 147.605 4.312 148.021 1.472 148.021 -0.0479994ZM 161.128 2.328C 161.128 2.008 161.256 1.704 161.512 1.416C 161.768 1.128 162.025 0.984 162.281 0.984C 162.553 0.984 162.873 1.312 163.24 1.968C 163.609 2.608 163.793 3.144 163.793 3.576C 163.793 3.736 163.72 3.88 163.577 4.008C 163.432 4.136 163.281 4.2 163.12 4.2C 162.736 4.2 162.305 3.968 161.824 3.504C 161.36 3.04 161.128 2.648 161.128 2.328ZM 161.008 5.736C 161.313 5.736 161.6 5.92 161.872 6.288C 162.144 6.656 162.281 7.016 162.281 7.368C 162.281 7.72 162.049 8.776 161.585 10.536C 161.121 12.28 160.536 14.24 159.832 16.416C 159.56 17.216 159.217 17.616 158.8 17.616C 158.577 17.616 158.384 17.528 158.224 17.352C 158.065 17.16 157.985 16.952 157.985 16.728C 157.985 16.488 158.04 16.12 158.153 15.624C 158.281 15.112 158.456 14.44 158.681 13.608C 158.921 12.76 159.104 12.072 159.232 11.544C 159.377 11.016 159.521 10.424 159.664 9.768C 159.809 9.096 159.92 8.56 160.001 8.16C 160.096 7.744 160.201 7.328 160.312 6.912C 160.536 6.128 160.768 5.736 161.008 5.736ZM 170.639 5.736C 171.183 5.736 171.695 6.04 172.175 6.648C 172.655 7.24 172.895 7.76 172.895 8.208C 172.895 8.48 172.767 8.616 172.511 8.616C 172.335 8.616 172.063 8.48 171.695 8.208C 171.327 7.92 170.951 7.776 170.567 7.776C 170.183 7.776 169.575 8 168.743 8.448C 167.927 8.896 167.519 9.368 167.519 9.864C 167.519 10.232 168.255 10.864 169.727 11.76C 170.287 12.112 170.791 12.568 171.239 13.128C 171.703 13.672 171.935 14.264 171.935 14.904C 171.935 15.528 171.495 16.144 170.615 16.752C 169.751 17.344 168.735 17.64 167.567 17.64C 166.415 17.64 165.391 17.36 164.495 16.8C 163.615 16.24 163.175 15.712 163.175 15.216C 163.175 15.008 163.223 14.848 163.319 14.736C 163.431 14.608 163.567 14.544 163.727 14.544C 163.887 14.544 164.111 14.648 164.399 14.856C 165.263 15.48 166.159 15.792 167.087 15.792C 168.031 15.792 168.711 15.688 169.127 15.48C 169.543 15.256 169.751 14.968 169.751 14.616C 169.751 14.248 169.519 13.864 169.055 13.464C 168.591 13.048 168.079 12.68 167.519 12.36C 166.975 12.04 166.471 11.648 166.007 11.184C 165.543 10.72 165.311 10.248 165.311 9.768C 165.311 8.92 165.975 8.04 167.303 7.128C 168.647 6.2 169.759 5.736 170.639 5.736ZM 190.491 5.736C 191.035 5.736 191.547 6.04 192.027 6.648C 192.507 7.24 192.747 7.76 192.747 8.208C 192.747 8.48 192.619 8.616 192.363 8.616C 192.187 8.616 191.915 8.48 191.547 8.208C 191.179 7.92 190.803 7.776 190.419 7.776C 190.035 7.776 189.427 8 188.595 8.448C 187.779 8.896 187.371 9.368 187.371 9.864C 187.371 10.232 188.107 10.864 189.579 11.76C 190.139 12.112 190.643 12.568 191.091 13.128C 191.555 13.672 191.787 14.264 191.787 14.904C 191.787 15.528 191.347 16.144 190.467 16.752C 189.603 17.344 188.587 17.64 187.419 17.64C 186.267 17.64 185.243 17.36 184.347 16.8C 183.467 16.24 183.027 15.712 183.027 15.216C 183.027 15.008 183.075 14.848 183.171 14.736C 183.283 14.608 183.419 14.544 183.579 14.544C 183.739 14.544 183.963 14.648 184.251 14.856C 185.115 15.48 186.011 15.792 186.939 15.792C 187.883 15.792 188.563 15.688 188.979 15.48C 189.395 15.256 189.603 14.968 189.603 14.616C 189.603 14.248 189.371 13.864 188.907 13.464C 188.443 13.048 187.931 12.68 187.371 12.36C 186.827 12.04 186.323 11.648 185.859 11.184C 185.395 10.72 185.163 10.248 185.163 9.768C 185.163 8.92 185.827 8.04 187.155 7.128C 188.499 6.2 189.611 5.736 190.491 5.736ZM 198.574 1.032C 198.574 4.04 197.95 7.944 196.702 12.744C 195.902 16.008 195.342 17.64 195.022 17.64C 194.798 17.64 194.534 17.464 194.23 17.112C 193.942 16.76 193.798 16.488 193.798 16.296C 193.798 16.104 194.03 15.112 194.494 13.32C 194.958 11.528 195.422 9.328 195.886 6.72C 196.35 4.096 196.582 1.736 196.582 -0.36C 196.582 -0.584001 196.614 -0.744 196.678 -0.840001C 196.742 -0.935999 196.878 -0.984 197.086 -0.984C 197.294 -0.984 197.59 -0.752 197.974 -0.288001C 198.374 0.16 198.574 0.599999 198.574 1.032ZM 202.8 2.328C 202.8 2.008 202.928 1.704 203.184 1.416C 203.44 1.128 203.696 0.984 203.952 0.984C 204.224 0.984 204.544 1.312 204.912 1.968C 205.28 2.608 205.464 3.144 205.464 3.576C 205.464 3.736 205.392 3.88 205.248 4.008C 205.104 4.136 204.952 4.2 204.792 4.2C 204.408 4.2 203.976 3.968 203.496 3.504C 203.032 3.04 202.8 2.648 202.8 2.328ZM 202.68 5.736C 202.984 5.736 203.272 5.92 203.544 6.288C 203.816 6.656 203.952 7.016 203.952 7.368C 203.952 7.72 203.72 8.776 203.256 10.536C 202.792 12.28 202.208 14.24 201.504 16.416C 201.232 17.216 200.888 17.616 200.472 17.616C 200.248 17.616 200.056 17.528 199.896 17.352C 199.736 17.16 199.656 16.952 199.656 16.728C 199.656 16.488 199.712 16.12 199.824 15.624C 199.952 15.112 200.128 14.44 200.352 13.608C 200.592 12.76 200.776 12.072 200.904 11.544C 201.048 11.016 201.192 10.424 201.336 9.768C 201.48 9.096 201.592 8.56 201.672 8.16C 201.768 7.744 201.872 7.328 201.984 6.912C 202.208 6.128 202.44 5.736 202.68 5.736ZM 215.719 -0.984C 215.975 -0.984 216.287 -0.744 216.655 -0.263999C 217.039 0.2 217.231 0.639999 217.231 1.056C 217.231 1.472 217.031 2.656 216.631 4.608C 216.231 6.544 215.767 8.552 215.239 10.632C 214.087 15.304 213.327 17.64 212.959 17.64C 212.735 17.64 212.487 17.504 212.215 17.232C 211.959 16.944 211.831 16.696 211.831 16.488C 211.831 16.28 211.887 15.864 211.999 15.24C 210.431 16.84 209.063 17.64 207.895 17.64C 207.191 17.64 206.551 17.32 205.975 16.68C 205.415 16.04 205.135 15.376 205.135 14.688C 205.135 13.696 205.399 12.52 205.927 11.16C 206.471 9.784 207.247 8.536 208.255 7.416C 209.263 6.296 210.335 5.736 211.471 5.736C 212.607 5.736 213.399 6.416 213.847 7.776C 214.663 4.384 215.111 1.704 215.191 -0.263999C 215.191 -0.744 215.367 -0.984 215.719 -0.984ZM 213.079 10.8C 213.079 9.936 212.927 9.208 212.623 8.616C 212.335 8.024 211.983 7.728 211.567 7.728C 210.879 7.728 210.175 8.152 209.455 9C 208.735 9.848 208.159 10.824 207.727 11.928C 207.311 13.016 207.103 13.96 207.103 14.76C 207.103 15.048 207.207 15.28 207.415 15.456C 207.623 15.632 207.871 15.72 208.159 15.72C 208.783 15.72 209.623 15.272 210.679 14.376C 211.751 13.48 212.527 12.424 213.007 11.208L 213.079 10.92L 213.079 10.8ZM 227 9.72C 227 10.568 226.536 11.264 225.608 11.808C 224.696 12.336 223.656 12.6 222.488 12.6C 221.336 12.6 220.288 12.472 219.344 12.216C 219.12 12.92 219.008 13.552 219.008 14.112C 219.008 14.656 219.176 15.08 219.512 15.384C 219.864 15.688 220.432 15.84 221.216 15.84C 222.016 15.84 222.832 15.704 223.664 15.432C 224.512 15.144 224.976 15 225.056 15C 225.472 15 225.68 15.16 225.68 15.48C 225.68 15.912 225.192 16.384 224.216 16.896C 223.24 17.392 222.288 17.64 221.36 17.64C 220.112 17.64 219.096 17.272 218.312 16.536C 217.528 15.784 217.136 14.84 217.136 13.704C 217.136 12.568 217.44 11.384 218.048 10.152C 218.656 8.904 219.44 7.856 220.4 7.008C 221.36 6.16 222.312 5.736 223.256 5.736C 224.2 5.736 225.056 6.184 225.824 7.08C 226.608 7.976 227 8.856 227 9.72ZM 223.376 7.632C 222.784 7.632 222.168 7.944 221.528 8.568C 220.888 9.176 220.344 9.936 219.896 10.848C 220.536 10.992 221.264 11.064 222.08 11.064C 222.896 11.064 223.608 10.936 224.216 10.68C 224.824 10.408 225.128 10.056 225.128 9.624C 225.128 9.192 224.928 8.752 224.528 8.304C 224.144 7.856 223.76 7.632 223.376 7.632ZM 229.668 8.664L 229.596 6.864C 229.596 6.112 229.772 5.736 230.124 5.736C 230.428 5.736 230.716 5.936 230.988 6.336C 231.276 6.72 231.42 7.184 231.42 7.728C 231.42 8.256 231.404 8.656 231.372 8.928C 232.764 6.816 234.084 5.76 235.332 5.76C 236.116 5.76 236.508 5.952 236.508 6.336C 236.508 6.528 236.42 6.704 236.244 6.864C 236.068 7.024 235.788 7.208 235.404 7.416C 234.556 7.784 233.836 8.352 233.244 9.12C 232.668 9.872 232.196 10.728 231.828 11.688C 231.46 12.648 231.164 13.456 230.94 14.112C 230.732 14.768 230.572 15.28 230.46 15.648C 230.348 16.016 230.22 16.376 230.076 16.728C 229.82 17.368 229.524 17.688 229.188 17.688C 228.916 17.688 228.692 17.536 228.516 17.232C 228.356 16.912 228.276 16.608 228.276 16.32C 228.276 16.016 228.412 15.424 228.684 14.544C 229.34 12.528 229.668 10.568 229.668 8.664ZM 237.47 15.072C 237.742 14.736 238.014 14.568 238.286 14.568C 238.558 14.568 238.886 14.96 239.27 15.744C 239.654 16.512 239.846 17.088 239.846 17.472C 239.846 17.584 239.766 17.712 239.606 17.856C 239.446 18 239.294 18.072 239.15 18.072C 238.75 18.072 238.302 17.824 237.806 17.328C 237.31 16.816 237.062 16.4 237.062 16.08C 237.062 15.744 237.198 15.408 237.47 15.072ZM 240.566 -1.44C 240.87 -1.44 241.286 -1.248 241.814 -0.864C 242.342 -0.48 242.606 -0.176 242.606 0.0479994C 242.606 1.408 242.254 3.8 241.55 7.224C 240.862 10.648 240.31 12.36 239.894 12.36C 239.638 12.36 239.398 12.232 239.174 11.976C 238.95 11.704 238.838 11.424 238.838 11.136C 238.822 11.04 238.918 10.464 239.126 9.408C 239.35 8.352 239.582 6.872 239.822 4.968C 240.062 3.048 240.182 1.12 240.182 -0.816C 240.182 -1.232 240.31 -1.44 240.566 -1.44Z"/>
</defs>
</svg>
